%TF.GenerationSoftware,KiCad,Pcbnew,(6.0.7)*%
%TF.CreationDate,2023-01-24T00:42:55-08:00*%
%TF.ProjectId,Sensors,53656e73-6f72-4732-9e6b-696361645f70,rev?*%
%TF.SameCoordinates,Original*%
%TF.FileFunction,Copper,L1,Top*%
%TF.FilePolarity,Positive*%
%FSLAX46Y46*%
G04 Gerber Fmt 4.6, Leading zero omitted, Abs format (unit mm)*
G04 Created by KiCad (PCBNEW (6.0.7)) date 2023-01-24 00:42:55*
%MOMM*%
%LPD*%
G01*
G04 APERTURE LIST*
G04 Aperture macros list*
%AMRoundRect*
0 Rectangle with rounded corners*
0 $1 Rounding radius*
0 $2 $3 $4 $5 $6 $7 $8 $9 X,Y pos of 4 corners*
0 Add a 4 corners polygon primitive as box body*
4,1,4,$2,$3,$4,$5,$6,$7,$8,$9,$2,$3,0*
0 Add four circle primitives for the rounded corners*
1,1,$1+$1,$2,$3*
1,1,$1+$1,$4,$5*
1,1,$1+$1,$6,$7*
1,1,$1+$1,$8,$9*
0 Add four rect primitives between the rounded corners*
20,1,$1+$1,$2,$3,$4,$5,0*
20,1,$1+$1,$4,$5,$6,$7,0*
20,1,$1+$1,$6,$7,$8,$9,0*
20,1,$1+$1,$8,$9,$2,$3,0*%
G04 Aperture macros list end*
%TA.AperFunction,SMDPad,CuDef*%
%ADD10RoundRect,0.225000X-0.225000X-0.250000X0.225000X-0.250000X0.225000X0.250000X-0.225000X0.250000X0*%
%TD*%
%TA.AperFunction,SMDPad,CuDef*%
%ADD11RoundRect,0.225000X0.225000X0.250000X-0.225000X0.250000X-0.225000X-0.250000X0.225000X-0.250000X0*%
%TD*%
%TA.AperFunction,SMDPad,CuDef*%
%ADD12C,0.200000*%
%TD*%
%TA.AperFunction,ComponentPad*%
%ADD13R,1.700000X1.700000*%
%TD*%
%TA.AperFunction,ComponentPad*%
%ADD14O,1.700000X1.700000*%
%TD*%
%TA.AperFunction,SMDPad,CuDef*%
%ADD15RoundRect,0.200000X0.200000X0.275000X-0.200000X0.275000X-0.200000X-0.275000X0.200000X-0.275000X0*%
%TD*%
%TA.AperFunction,SMDPad,CuDef*%
%ADD16RoundRect,0.200000X-0.200000X-0.275000X0.200000X-0.275000X0.200000X0.275000X-0.200000X0.275000X0*%
%TD*%
%TA.AperFunction,SMDPad,CuDef*%
%ADD17R,0.475000X0.250000*%
%TD*%
%TA.AperFunction,SMDPad,CuDef*%
%ADD18R,0.250000X0.475000*%
%TD*%
%TA.AperFunction,ViaPad*%
%ADD19C,0.800000*%
%TD*%
%TA.AperFunction,ViaPad*%
%ADD20C,0.609600*%
%TD*%
%TA.AperFunction,ViaPad*%
%ADD21C,0.203200*%
%TD*%
%TA.AperFunction,Conductor*%
%ADD22C,0.152400*%
%TD*%
%TA.AperFunction,Conductor*%
%ADD23C,0.381000*%
%TD*%
G04 APERTURE END LIST*
D10*
%TO.P,C4,1*%
%TO.N,3.3V*%
X116586491Y-61684795D03*
%TO.P,C4,2*%
%TO.N,GND*%
X118136491Y-61684795D03*
%TD*%
D11*
%TO.P,C1,1*%
%TO.N,3.3V*%
X92579900Y-57931781D03*
%TO.P,C1,2*%
%TO.N,GND*%
X91029900Y-57931781D03*
%TD*%
%TO.P,C2,1*%
%TO.N,3.3V*%
X92579900Y-61444509D03*
%TO.P,C2,2*%
%TO.N,GND*%
X91029900Y-61444509D03*
%TD*%
D12*
%TO.P,U02,A1,PS*%
%TO.N,3.3V*%
X98783485Y-59236290D03*
%TO.P,U02,A3,SCK*%
%TO.N,Net-(U01-Pad3)*%
X98783485Y-59802290D03*
%TO.P,U02,A5,CSB*%
%TO.N,GND*%
X98783485Y-60368290D03*
%TO.P,U02,B2,VDDIO*%
%TO.N,3.3V*%
X98500485Y-59519290D03*
%TO.P,U02,B4,SDI*%
%TO.N,Net-(U01-Pad2)*%
X98500485Y-60085290D03*
%TO.P,U02,C1,SDO*%
%TO.N,GND*%
X98217485Y-59236290D03*
%TO.P,U02,C5,GND*%
X98217485Y-60368290D03*
%TO.P,U02,D2,INT*%
%TO.N,unconnected-(U02-PadD2)*%
X97934485Y-59519290D03*
%TO.P,U02,D4,DRDY*%
%TO.N,unconnected-(U02-PadD4)*%
X97934485Y-60085290D03*
%TO.P,U02,E1,GND*%
%TO.N,GND*%
X97651485Y-59236290D03*
%TO.P,U02,E3,GND*%
X97651485Y-59802290D03*
%TO.P,U02,E5,VDD*%
%TO.N,3.3V*%
X97651485Y-60368290D03*
%TD*%
D13*
%TO.P,J1,1,Pin_1*%
%TO.N,Net-(U01-Pad13)*%
X106778163Y-49513787D03*
D14*
%TO.P,J1,2,Pin_2*%
%TO.N,Net-(U01-Pad14)*%
X104238163Y-49513787D03*
%TO.P,J1,3,Pin_3*%
%TO.N,Net-(U01-Pad3)*%
X101698163Y-49513787D03*
%TO.P,J1,4,Pin_4*%
%TO.N,Net-(U01-Pad2)*%
X99158163Y-49513787D03*
%TO.P,J1,5,Pin_5*%
%TO.N,GND*%
X96618163Y-49513787D03*
%TO.P,J1,6,Pin_6*%
%TO.N,3.3V*%
X94078163Y-49513787D03*
%TD*%
D10*
%TO.P,C3,1*%
%TO.N,3.3V*%
X116586491Y-57463011D03*
%TO.P,C3,2*%
%TO.N,GND*%
X118136491Y-57463011D03*
%TD*%
D15*
%TO.P,R1,1,1*%
%TO.N,3.3V*%
X110623363Y-54742305D03*
%TO.P,R1,2,2*%
%TO.N,Net-(U01-Pad13)*%
X108973363Y-54742305D03*
%TD*%
D16*
%TO.P,R2,2,2*%
%TO.N,Net-(U01-Pad14)*%
X98527332Y-54742305D03*
%TO.P,R2,1,1*%
%TO.N,3.3V*%
X96877332Y-54742305D03*
%TD*%
D17*
%TO.P,U01,1,SDO*%
%TO.N,GND*%
X107856456Y-58766169D03*
%TO.P,U01,2,ASDX*%
%TO.N,Net-(U01-Pad2)*%
X107856456Y-59266169D03*
%TO.P,U01,3,ASCX*%
%TO.N,Net-(U01-Pad3)*%
X107856456Y-59766169D03*
%TO.P,U01,4,INT1*%
%TO.N,unconnected-(U01-Pad4)*%
X107856456Y-60266169D03*
D18*
%TO.P,U01,5,VDDIO*%
%TO.N,3.3V*%
X108518956Y-60428669D03*
%TO.P,U01,6,GNDIO*%
%TO.N,GND*%
X109018956Y-60428669D03*
%TO.P,U01,7,GND*%
X109518956Y-60428669D03*
D17*
%TO.P,U01,8,VDD*%
%TO.N,3.3V*%
X110181456Y-60266169D03*
%TO.P,U01,9,INT2*%
%TO.N,unconnected-(U01-Pad9)*%
X110181456Y-59766169D03*
%TO.P,U01,10,OSCB*%
%TO.N,unconnected-(U01-Pad10)*%
X110181456Y-59266169D03*
%TO.P,U01,11,OSDO*%
%TO.N,unconnected-(U01-Pad11)*%
X110181456Y-58766169D03*
D18*
%TO.P,U01,12,CSB*%
%TO.N,3.3V*%
X109518956Y-58603669D03*
%TO.P,U01,13,SCX*%
%TO.N,Net-(U01-Pad13)*%
X109018956Y-58603669D03*
%TO.P,U01,14,SDX*%
%TO.N,Net-(U01-Pad14)*%
X108518956Y-58603669D03*
%TD*%
D19*
%TO.N,Net-(U01-Pad3)*%
X102697104Y-59624420D03*
%TO.N,Net-(U01-Pad2)*%
X101116641Y-58476961D03*
%TO.N,GND*%
X104255917Y-56896498D03*
%TO.N,3.3V*%
X106435814Y-61829107D03*
X113400556Y-57614340D03*
%TO.N,GND*%
X111631856Y-61857974D03*
D20*
%TO.N,3.3V*%
X96636712Y-60617584D03*
X97155398Y-58228121D03*
%TO.N,GND*%
X99826028Y-61033766D03*
X96535725Y-59454438D03*
D21*
%TO.N,Net-(U01-Pad2)*%
X98498057Y-60088459D03*
%TD*%
D22*
%TO.N,GND*%
X98438380Y-60589185D02*
X98217485Y-60368290D01*
%TO.N,Net-(U01-Pad13)*%
X108973363Y-50983707D02*
X108973363Y-54742305D01*
X107503443Y-49513787D02*
X108973363Y-50983707D01*
X106778163Y-49513787D02*
X107503443Y-49513787D01*
%TO.N,Net-(U01-Pad14)*%
X105225267Y-50500891D02*
X104238163Y-49513787D01*
X105225267Y-54742305D02*
X105225267Y-50500891D01*
%TO.N,GND*%
X106125588Y-58766169D02*
X104255917Y-56896498D01*
X107856456Y-58766169D02*
X106125588Y-58766169D01*
%TO.N,Net-(U01-Pad2)*%
X102574243Y-58476961D02*
X101116641Y-58476961D01*
%TO.N,Net-(U01-Pad3)*%
X102838853Y-59766169D02*
X102697104Y-59624420D01*
X104502509Y-59766169D02*
X102838853Y-59766169D01*
X102545169Y-59472485D02*
X102697104Y-59624420D01*
X99723517Y-59472485D02*
X102545169Y-59472485D01*
%TO.N,Net-(U01-Pad2)*%
X103363451Y-59266169D02*
X102574243Y-58476961D01*
X107856456Y-59266169D02*
X103363451Y-59266169D01*
D23*
%TO.N,3.3V*%
X96877332Y-53566496D02*
X96877332Y-54742305D01*
X94078163Y-49513787D02*
X94078163Y-50767327D01*
X94078163Y-50767327D02*
X96877332Y-53566496D01*
X110544895Y-54820773D02*
X110623363Y-54742305D01*
X109518956Y-57954210D02*
X110544895Y-56928271D01*
X109518956Y-58603669D02*
X109518956Y-57954210D01*
X110544895Y-56928271D02*
X110544895Y-54820773D01*
D22*
%TO.N,Net-(U01-Pad14)*%
X105225267Y-54742305D02*
X98527332Y-54742305D01*
X108518956Y-58035994D02*
X105225267Y-54742305D01*
X108518956Y-58603669D02*
X108518956Y-58035994D01*
%TO.N,Net-(U01-Pad13)*%
X109018956Y-54787898D02*
X108973363Y-54742305D01*
X109018956Y-58603669D02*
X109018956Y-54787898D01*
D23*
%TO.N,3.3V*%
X96877332Y-57950055D02*
X97155398Y-58228121D01*
X96877332Y-54742305D02*
X96877332Y-57950055D01*
X95769376Y-54742305D02*
X96877332Y-54742305D01*
X92579900Y-57931781D02*
X95769376Y-54742305D01*
D22*
%TO.N,Net-(U01-Pad3)*%
X104502509Y-59766169D02*
X104504137Y-59767797D01*
X107856456Y-59766169D02*
X104502509Y-59766169D01*
%TO.N,GND*%
X110275111Y-61857974D02*
X111631856Y-61857974D01*
X109518956Y-61101819D02*
X110275111Y-61857974D01*
X109518956Y-60428669D02*
X109518956Y-61101819D01*
D23*
%TO.N,3.3V*%
X107821426Y-61829107D02*
X106435814Y-61829107D01*
X108518956Y-61131577D02*
X107821426Y-61829107D01*
X108518956Y-60428669D02*
X108518956Y-61131577D01*
X113400556Y-57614340D02*
X113447976Y-57566919D01*
X111982692Y-54742305D02*
X110623363Y-54742305D01*
X113447976Y-56207589D02*
X111982692Y-54742305D01*
X113447976Y-57566919D02*
X113447976Y-56207589D01*
X110748726Y-60266169D02*
X113400556Y-57614340D01*
X110181456Y-60266169D02*
X110748726Y-60266169D01*
X115380414Y-59499356D02*
X113447976Y-57566919D01*
X116586491Y-59499356D02*
X115380414Y-59499356D01*
X116586491Y-59499356D02*
X116586491Y-61684795D01*
X116586491Y-57463011D02*
X116586491Y-59499356D01*
D22*
%TO.N,GND*%
X109018956Y-60428669D02*
X109518956Y-60428669D01*
D23*
%TO.N,3.3V*%
X92579900Y-57931781D02*
X92579900Y-61444509D01*
X98783485Y-59236290D02*
X97775316Y-58228121D01*
X97651485Y-60368290D02*
X97402191Y-60617584D01*
X97402191Y-60617584D02*
X96636712Y-60617584D01*
X97775316Y-58228121D02*
X97155398Y-58228121D01*
X98500485Y-59519290D02*
X98783485Y-59236290D01*
D22*
%TO.N,Net-(U01-Pad3)*%
X99723517Y-59472485D02*
X99113290Y-59472485D01*
X99113290Y-59472485D02*
X98783485Y-59802290D01*
%TO.N,GND*%
X97551485Y-59454864D02*
X96536151Y-59454864D01*
X97651485Y-59236290D02*
X97853014Y-59034761D01*
X97551485Y-59336290D02*
X97551485Y-59454864D01*
X96536151Y-59454864D02*
X96535725Y-59454438D01*
X97551485Y-59454864D02*
X97551485Y-59702290D01*
X97651485Y-59236290D02*
X97551485Y-59336290D01*
X98015956Y-59034761D02*
X98217485Y-59236290D01*
X97551485Y-59702290D02*
X97651485Y-59802290D01*
X98783485Y-60368290D02*
X98562590Y-60589185D01*
X98438380Y-60589185D02*
X98438380Y-60977101D01*
X98438380Y-60977101D02*
X98583409Y-61122130D01*
X98583409Y-61122130D02*
X99737664Y-61122130D01*
X99737664Y-61122130D02*
X99826028Y-61033766D01*
X98562590Y-60589185D02*
X98438380Y-60589185D01*
X97853014Y-59034761D02*
X98015956Y-59034761D01*
%TD*%
%TA.AperFunction,Conductor*%
%TO.N,GND*%
G36*
X121175525Y-45845844D02*
G01*
X121315373Y-45869293D01*
X121338150Y-45875347D01*
X121471199Y-45924436D01*
X121492442Y-45934623D01*
X121607764Y-46003874D01*
X121614015Y-46007628D01*
X121632998Y-46021599D01*
X121738845Y-46115968D01*
X121754893Y-46133229D01*
X121841314Y-46245659D01*
X121853867Y-46265608D01*
X121917835Y-46392163D01*
X121926450Y-46414090D01*
X121965736Y-46550364D01*
X121970115Y-46573512D01*
X121980655Y-46686094D01*
X121980155Y-46702355D01*
X121980735Y-46702362D01*
X121980622Y-46711340D01*
X121979238Y-46720209D01*
X121980399Y-46729109D01*
X121980399Y-46729110D01*
X121983330Y-46751582D01*
X121984388Y-46767997D01*
X121961940Y-70774387D01*
X121960649Y-70785662D01*
X121961322Y-70785720D01*
X121960554Y-70794665D01*
X121958527Y-70803407D01*
X121959483Y-70820280D01*
X121958517Y-70844516D01*
X121930452Y-71049239D01*
X121927325Y-71064742D01*
X121866885Y-71290272D01*
X121861841Y-71305261D01*
X121773619Y-71521457D01*
X121766736Y-71535697D01*
X121652129Y-71739131D01*
X121643517Y-71752396D01*
X121504323Y-71939876D01*
X121494117Y-71951957D01*
X121332539Y-72120518D01*
X121320899Y-72131226D01*
X121139474Y-72278221D01*
X121126590Y-72287384D01*
X120928169Y-72410500D01*
X120914247Y-72417971D01*
X120873754Y-72436529D01*
X120701969Y-72515258D01*
X120687207Y-72520931D01*
X120522208Y-72572720D01*
X120484554Y-72578503D01*
X107926426Y-72586182D01*
X88185368Y-72598254D01*
X88163751Y-72596399D01*
X88145795Y-72593283D01*
X88130665Y-72594995D01*
X88105216Y-72595287D01*
X87910707Y-72577792D01*
X87892742Y-72574856D01*
X87678244Y-72523637D01*
X87660881Y-72518137D01*
X87456017Y-72436529D01*
X87439627Y-72428583D01*
X87248681Y-72318296D01*
X87233608Y-72308070D01*
X87060555Y-72171401D01*
X87047113Y-72159108D01*
X87020738Y-72131226D01*
X86895568Y-71998908D01*
X86884040Y-71984805D01*
X86757183Y-71804439D01*
X86747808Y-71788821D01*
X86648280Y-71592041D01*
X86641256Y-71575236D01*
X86571142Y-71366166D01*
X86566614Y-71348523D01*
X86533109Y-71163226D01*
X86531988Y-71146135D01*
X86531972Y-71146137D01*
X86531127Y-71137204D01*
X86531557Y-71128233D01*
X86529452Y-71119501D01*
X86529225Y-71117105D01*
X86528665Y-71105140D01*
X86528702Y-71057082D01*
X86535764Y-61739947D01*
X90071900Y-61739947D01*
X90072237Y-61746462D01*
X90081794Y-61838566D01*
X90084688Y-61851965D01*
X90134281Y-62000616D01*
X90140455Y-62013795D01*
X90222688Y-62146682D01*
X90231724Y-62158083D01*
X90342329Y-62268495D01*
X90353740Y-62277507D01*
X90486780Y-62359513D01*
X90499961Y-62365660D01*
X90648714Y-62415000D01*
X90662090Y-62417867D01*
X90752997Y-62427181D01*
X90758026Y-62427438D01*
X90773024Y-62423034D01*
X90774229Y-62421644D01*
X90775900Y-62413961D01*
X90775900Y-62409394D01*
X91283900Y-62409394D01*
X91288375Y-62424633D01*
X91289765Y-62425838D01*
X91297448Y-62427509D01*
X91300338Y-62427509D01*
X91306853Y-62427172D01*
X91398957Y-62417615D01*
X91412356Y-62414721D01*
X91561007Y-62365128D01*
X91574186Y-62358954D01*
X91707073Y-62276721D01*
X91724211Y-62263138D01*
X91725741Y-62265068D01*
X91777780Y-62236606D01*
X91848599Y-62241622D01*
X91885517Y-62265308D01*
X91886272Y-62264352D01*
X91892018Y-62268890D01*
X91897198Y-62274061D01*
X91903428Y-62277901D01*
X91903429Y-62277902D01*
X92034920Y-62358954D01*
X92042799Y-62363811D01*
X92205143Y-62417658D01*
X92211980Y-62418358D01*
X92211982Y-62418359D01*
X92253301Y-62422592D01*
X92306168Y-62428009D01*
X92853632Y-62428009D01*
X92856878Y-62427672D01*
X92856882Y-62427672D01*
X92890983Y-62424134D01*
X92955919Y-62417396D01*
X93015956Y-62397366D01*
X93111224Y-62365582D01*
X93111226Y-62365581D01*
X93118168Y-62363265D01*
X93263613Y-62273261D01*
X93272507Y-62264352D01*
X93336084Y-62200663D01*
X93384452Y-62152211D01*
X93388293Y-62145980D01*
X93470362Y-62012840D01*
X93470363Y-62012838D01*
X93474202Y-62006610D01*
X93528049Y-61844266D01*
X93538400Y-61743241D01*
X93538400Y-61145777D01*
X93535260Y-61115509D01*
X93534277Y-61106043D01*
X93527787Y-61043490D01*
X93500933Y-60962998D01*
X93475973Y-60888185D01*
X93475972Y-60888183D01*
X93473656Y-60881241D01*
X93447410Y-60838827D01*
X93387506Y-60742024D01*
X93383652Y-60735796D01*
X93362402Y-60714583D01*
X93315882Y-60668144D01*
X93281803Y-60605861D01*
X93278900Y-60578971D01*
X93278900Y-58797346D01*
X93298902Y-58729225D01*
X93315727Y-58708328D01*
X93379281Y-58644663D01*
X93384452Y-58639483D01*
X93426407Y-58571420D01*
X93470362Y-58500112D01*
X93470363Y-58500110D01*
X93474202Y-58493882D01*
X93528049Y-58331538D01*
X93531111Y-58301659D01*
X93534439Y-58269172D01*
X93538400Y-58230513D01*
X93538400Y-58014006D01*
X93558402Y-57945885D01*
X93575305Y-57924911D01*
X95963237Y-55536979D01*
X96025549Y-55502953D01*
X96096364Y-55508018D01*
X96153200Y-55550565D01*
X96178011Y-55617085D01*
X96178332Y-55626074D01*
X96178332Y-57921456D01*
X96178040Y-57930026D01*
X96175873Y-57961816D01*
X96174162Y-57986907D01*
X96175467Y-57994383D01*
X96175467Y-57994387D01*
X96184995Y-58048979D01*
X96185958Y-58055504D01*
X96192437Y-58109039D01*
X96193523Y-58118015D01*
X96196207Y-58125117D01*
X96197051Y-58128555D01*
X96200915Y-58142678D01*
X96201945Y-58146089D01*
X96203251Y-58153572D01*
X96206304Y-58160527D01*
X96228571Y-58211253D01*
X96231062Y-58217359D01*
X96253326Y-58276277D01*
X96257625Y-58282532D01*
X96259267Y-58285673D01*
X96266365Y-58298427D01*
X96268202Y-58301533D01*
X96271255Y-58308488D01*
X96275880Y-58314515D01*
X96275882Y-58314519D01*
X96309597Y-58358457D01*
X96313461Y-58363775D01*
X96349153Y-58415707D01*
X96351313Y-58417631D01*
X96374943Y-58458727D01*
X96412431Y-58571420D01*
X96416080Y-58577445D01*
X96475202Y-58675066D01*
X96506952Y-58727492D01*
X96511843Y-58732557D01*
X96511844Y-58732558D01*
X96577316Y-58800356D01*
X96633701Y-58858744D01*
X96639593Y-58862599D01*
X96639597Y-58862603D01*
X96780483Y-58954796D01*
X96786379Y-58958654D01*
X96792983Y-58961110D01*
X96792985Y-58961111D01*
X96901547Y-59001485D01*
X96955743Y-59021641D01*
X96955744Y-59021641D01*
X96957398Y-59022256D01*
X96957290Y-59022547D01*
X97015199Y-59056475D01*
X97047328Y-59119786D01*
X97048377Y-59159288D01*
X97039317Y-59228103D01*
X97039317Y-59244478D01*
X97058057Y-59386821D01*
X97062295Y-59402639D01*
X97090641Y-59471072D01*
X97098230Y-59541662D01*
X97090641Y-59567508D01*
X97062295Y-59635941D01*
X97058057Y-59651758D01*
X97046650Y-59738400D01*
X97017927Y-59803327D01*
X96958662Y-59842418D01*
X96887670Y-59843263D01*
X96879478Y-59840658D01*
X96823605Y-59820762D01*
X96816619Y-59819929D01*
X96816615Y-59819928D01*
X96687038Y-59804478D01*
X96642426Y-59799158D01*
X96635423Y-59799894D01*
X96635422Y-59799894D01*
X96589187Y-59804754D01*
X96460963Y-59818230D01*
X96454295Y-59820500D01*
X96294902Y-59874762D01*
X96294899Y-59874763D01*
X96288235Y-59877032D01*
X96132826Y-59972640D01*
X96088376Y-60016169D01*
X96022323Y-60080853D01*
X96002462Y-60100302D01*
X95903620Y-60253674D01*
X95901211Y-60260294D01*
X95901209Y-60260297D01*
X95844706Y-60415538D01*
X95841214Y-60425133D01*
X95818346Y-60606157D01*
X95819033Y-60613164D01*
X95819033Y-60613167D01*
X95827424Y-60698738D01*
X95836151Y-60787748D01*
X95893745Y-60960883D01*
X95897394Y-60966908D01*
X95984574Y-61110858D01*
X95988266Y-61116955D01*
X95993157Y-61122020D01*
X95993158Y-61122021D01*
X96064092Y-61195475D01*
X96115015Y-61248207D01*
X96120907Y-61252062D01*
X96120911Y-61252066D01*
X96258562Y-61342142D01*
X96267693Y-61348117D01*
X96274297Y-61350573D01*
X96274299Y-61350574D01*
X96353203Y-61379918D01*
X96438712Y-61411719D01*
X96619572Y-61435851D01*
X96626583Y-61435213D01*
X96626587Y-61435213D01*
X96766292Y-61422498D01*
X96801283Y-61419313D01*
X96807985Y-61417135D01*
X96807987Y-61417135D01*
X96968117Y-61365106D01*
X96968120Y-61365105D01*
X96974816Y-61362929D01*
X96995542Y-61350574D01*
X97022750Y-61334355D01*
X97087267Y-61316584D01*
X97373592Y-61316584D01*
X97382162Y-61316876D01*
X97431468Y-61320238D01*
X97431472Y-61320238D01*
X97439043Y-61320754D01*
X97446519Y-61319449D01*
X97446523Y-61319449D01*
X97501115Y-61309921D01*
X97507640Y-61308958D01*
X97562609Y-61302306D01*
X97562611Y-61302305D01*
X97570151Y-61301393D01*
X97577253Y-61298709D01*
X97580691Y-61297865D01*
X97594814Y-61294001D01*
X97598225Y-61292971D01*
X97605708Y-61291665D01*
X97663388Y-61266345D01*
X97669495Y-61263854D01*
X97721308Y-61244275D01*
X97721309Y-61244274D01*
X97728413Y-61241590D01*
X97734668Y-61237291D01*
X97737809Y-61235649D01*
X97750563Y-61228551D01*
X97753669Y-61226714D01*
X97760624Y-61223661D01*
X97766651Y-61219036D01*
X97766655Y-61219034D01*
X97810593Y-61185319D01*
X97815911Y-61181455D01*
X97867843Y-61145763D01*
X97882207Y-61129642D01*
X97908709Y-61099896D01*
X97913690Y-61094620D01*
X98005023Y-61003287D01*
X98067335Y-60969261D01*
X98110564Y-60967460D01*
X98209297Y-60980458D01*
X98225673Y-60980458D01*
X98368016Y-60961718D01*
X98383834Y-60957480D01*
X98452267Y-60929134D01*
X98522857Y-60921545D01*
X98548703Y-60929134D01*
X98617136Y-60957480D01*
X98632954Y-60961718D01*
X98775297Y-60980458D01*
X98791673Y-60980458D01*
X98934016Y-60961718D01*
X98949835Y-60957480D01*
X99082478Y-60902537D01*
X99096661Y-60894349D01*
X99210565Y-60806946D01*
X99222141Y-60795370D01*
X99309544Y-60681466D01*
X99317732Y-60667283D01*
X99372675Y-60534640D01*
X99376913Y-60518821D01*
X99395653Y-60376478D01*
X99395653Y-60360102D01*
X99376913Y-60217758D01*
X99376387Y-60215795D01*
X99376428Y-60214074D01*
X99375835Y-60209570D01*
X99376537Y-60209478D01*
X99378077Y-60144818D01*
X99417872Y-60086023D01*
X99483137Y-60058076D01*
X99498094Y-60057185D01*
X101825170Y-60057185D01*
X101893291Y-60077187D01*
X101934288Y-60120183D01*
X101958064Y-60161364D01*
X101962482Y-60166271D01*
X101962483Y-60166272D01*
X102081429Y-60298375D01*
X102085851Y-60303286D01*
X102151343Y-60350869D01*
X102204235Y-60389297D01*
X102240352Y-60415538D01*
X102246380Y-60418222D01*
X102246382Y-60418223D01*
X102384292Y-60479624D01*
X102414816Y-60493214D01*
X102508217Y-60513067D01*
X102595160Y-60531548D01*
X102595165Y-60531548D01*
X102601617Y-60532920D01*
X102792591Y-60532920D01*
X102799043Y-60531548D01*
X102799048Y-60531548D01*
X102885991Y-60513067D01*
X102979392Y-60493214D01*
X103009916Y-60479624D01*
X103147826Y-60418223D01*
X103147828Y-60418222D01*
X103153856Y-60415538D01*
X103196527Y-60384536D01*
X103209744Y-60374933D01*
X103283805Y-60350869D01*
X104445194Y-60350869D01*
X104461641Y-60351947D01*
X104504137Y-60357542D01*
X104512325Y-60356464D01*
X104546636Y-60351947D01*
X104563082Y-60350869D01*
X106987796Y-60350869D01*
X107055917Y-60370871D01*
X107102410Y-60424527D01*
X107113059Y-60463262D01*
X107113893Y-60470940D01*
X107116355Y-60493602D01*
X107117211Y-60501485D01*
X107168341Y-60637874D01*
X107255695Y-60754430D01*
X107372251Y-60841784D01*
X107380659Y-60844936D01*
X107490530Y-60886125D01*
X107547294Y-60928767D01*
X107571994Y-60995328D01*
X107556787Y-61064677D01*
X107506501Y-61114795D01*
X107446300Y-61130107D01*
X107060295Y-61130107D01*
X106992174Y-61110105D01*
X106986234Y-61106043D01*
X106897908Y-61041870D01*
X106897907Y-61041869D01*
X106892566Y-61037989D01*
X106886538Y-61035305D01*
X106886536Y-61035304D01*
X106724133Y-60962998D01*
X106724132Y-60962998D01*
X106718102Y-60960313D01*
X106609346Y-60937196D01*
X106537758Y-60921979D01*
X106537753Y-60921979D01*
X106531301Y-60920607D01*
X106340327Y-60920607D01*
X106333875Y-60921979D01*
X106333870Y-60921979D01*
X106262282Y-60937196D01*
X106153526Y-60960313D01*
X106147496Y-60962998D01*
X106147495Y-60962998D01*
X105985092Y-61035304D01*
X105985090Y-61035305D01*
X105979062Y-61037989D01*
X105973721Y-61041869D01*
X105973720Y-61041870D01*
X105962054Y-61050346D01*
X105824561Y-61150241D01*
X105820140Y-61155151D01*
X105820139Y-61155152D01*
X105705349Y-61282640D01*
X105696774Y-61292163D01*
X105667919Y-61342142D01*
X105613816Y-61435851D01*
X105601287Y-61457551D01*
X105542272Y-61639179D01*
X105541582Y-61645740D01*
X105541582Y-61645742D01*
X105535734Y-61701385D01*
X105522310Y-61829107D01*
X105523000Y-61835672D01*
X105538882Y-61986777D01*
X105542272Y-62019035D01*
X105601287Y-62200663D01*
X105696774Y-62366051D01*
X105701192Y-62370958D01*
X105701193Y-62370959D01*
X105775165Y-62453113D01*
X105824561Y-62507973D01*
X105885394Y-62552171D01*
X105951579Y-62600257D01*
X105979062Y-62620225D01*
X105985090Y-62622909D01*
X105985092Y-62622910D01*
X106147495Y-62695216D01*
X106153526Y-62697901D01*
X106246926Y-62717754D01*
X106333870Y-62736235D01*
X106333875Y-62736235D01*
X106340327Y-62737607D01*
X106531301Y-62737607D01*
X106537753Y-62736235D01*
X106537758Y-62736235D01*
X106624702Y-62717754D01*
X106718102Y-62697901D01*
X106724133Y-62695216D01*
X106886536Y-62622910D01*
X106886538Y-62622909D01*
X106892566Y-62620225D01*
X106912220Y-62605946D01*
X106986234Y-62552171D01*
X107053102Y-62528313D01*
X107060295Y-62528107D01*
X107792827Y-62528107D01*
X107801397Y-62528399D01*
X107850703Y-62531761D01*
X107850707Y-62531761D01*
X107858278Y-62532277D01*
X107865754Y-62530972D01*
X107865758Y-62530972D01*
X107920350Y-62521444D01*
X107926875Y-62520481D01*
X107981844Y-62513829D01*
X107981846Y-62513828D01*
X107989386Y-62512916D01*
X107996488Y-62510232D01*
X107999926Y-62509388D01*
X108014049Y-62505524D01*
X108017460Y-62504494D01*
X108024943Y-62503188D01*
X108082623Y-62477868D01*
X108088730Y-62475377D01*
X108140543Y-62455798D01*
X108140544Y-62455797D01*
X108147648Y-62453113D01*
X108153903Y-62448814D01*
X108157044Y-62447172D01*
X108169798Y-62440074D01*
X108172904Y-62438237D01*
X108179859Y-62435184D01*
X108185886Y-62430559D01*
X108185890Y-62430557D01*
X108229828Y-62396842D01*
X108235146Y-62392978D01*
X108287078Y-62357286D01*
X108327945Y-62311418D01*
X108332925Y-62306143D01*
X108992994Y-61646074D01*
X108999260Y-61640220D01*
X109036505Y-61607729D01*
X109042230Y-61602735D01*
X109078458Y-61551187D01*
X109082391Y-61545893D01*
X109121247Y-61496338D01*
X109124373Y-61489414D01*
X109126220Y-61486365D01*
X109133445Y-61473699D01*
X109135142Y-61470534D01*
X109139512Y-61464316D01*
X109162412Y-61405581D01*
X109164939Y-61399568D01*
X109190868Y-61342142D01*
X109192252Y-61334674D01*
X109193320Y-61331266D01*
X109197320Y-61317227D01*
X109198209Y-61313764D01*
X109200968Y-61306688D01*
X109202128Y-61297881D01*
X109204134Y-61282640D01*
X109232855Y-61217712D01*
X109292120Y-61178619D01*
X109339043Y-61174165D01*
X109339073Y-61173616D01*
X109349283Y-61174169D01*
X109688624Y-61174168D01*
X109695446Y-61173798D01*
X109746308Y-61168274D01*
X109761560Y-61164648D01*
X109882010Y-61119493D01*
X109897605Y-61110955D01*
X109999680Y-61034454D01*
X110012238Y-61021896D01*
X110017793Y-61014484D01*
X110074653Y-60971969D01*
X110127064Y-60966077D01*
X110127176Y-60964361D01*
X110131295Y-60964631D01*
X110135382Y-60965169D01*
X110720126Y-60965169D01*
X110728697Y-60965461D01*
X110778001Y-60968823D01*
X110778005Y-60968823D01*
X110785577Y-60969339D01*
X110793053Y-60968034D01*
X110793057Y-60968034D01*
X110847648Y-60958506D01*
X110854173Y-60957543D01*
X110909144Y-60950891D01*
X110909147Y-60950890D01*
X110916686Y-60949978D01*
X110923788Y-60947294D01*
X110927226Y-60946450D01*
X110941349Y-60942586D01*
X110944761Y-60941556D01*
X110952243Y-60940250D01*
X110959196Y-60937198D01*
X110959202Y-60937196D01*
X111009920Y-60914932D01*
X111016016Y-60912444D01*
X111039450Y-60903589D01*
X111067841Y-60892861D01*
X111067844Y-60892859D01*
X111074948Y-60890175D01*
X111081212Y-60885870D01*
X111084379Y-60884214D01*
X111097144Y-60877109D01*
X111100201Y-60875301D01*
X111107159Y-60872247D01*
X111113188Y-60867621D01*
X111157122Y-60833909D01*
X111162459Y-60830031D01*
X111208119Y-60798650D01*
X111208121Y-60798648D01*
X111214378Y-60794348D01*
X111255261Y-60748462D01*
X111260224Y-60743206D01*
X113358881Y-58644550D01*
X113421193Y-58610524D01*
X113492009Y-58615589D01*
X113537071Y-58644550D01*
X114865924Y-59973402D01*
X114871778Y-59979668D01*
X114909256Y-60022630D01*
X114958423Y-60057185D01*
X114960792Y-60058850D01*
X114966088Y-60062783D01*
X115009677Y-60096962D01*
X115009680Y-60096964D01*
X115015654Y-60101648D01*
X115022578Y-60104774D01*
X115025613Y-60106612D01*
X115038312Y-60113856D01*
X115041460Y-60115544D01*
X115047675Y-60119912D01*
X115106374Y-60142798D01*
X115112434Y-60145345D01*
X115135256Y-60155649D01*
X115158784Y-60166272D01*
X115169849Y-60171268D01*
X115177316Y-60172652D01*
X115180725Y-60173720D01*
X115194772Y-60177722D01*
X115198227Y-60178609D01*
X115205303Y-60181368D01*
X115267767Y-60189591D01*
X115274259Y-60190619D01*
X115336201Y-60202100D01*
X115343781Y-60201663D01*
X115343782Y-60201663D01*
X115397508Y-60198565D01*
X115404761Y-60198356D01*
X115761491Y-60198356D01*
X115829612Y-60218358D01*
X115876105Y-60272014D01*
X115887491Y-60324356D01*
X115887491Y-60819230D01*
X115867489Y-60887351D01*
X115850664Y-60908248D01*
X115818718Y-60940250D01*
X115781939Y-60977093D01*
X115778099Y-60983323D01*
X115778098Y-60983324D01*
X115745043Y-61036950D01*
X115692189Y-61122694D01*
X115638342Y-61285038D01*
X115637642Y-61291875D01*
X115637641Y-61291877D01*
X115634356Y-61323941D01*
X115627991Y-61386063D01*
X115627991Y-61983527D01*
X115628328Y-61986773D01*
X115628328Y-61986777D01*
X115631675Y-62019035D01*
X115638604Y-62085814D01*
X115640786Y-62092354D01*
X115688913Y-62236606D01*
X115692735Y-62248063D01*
X115696587Y-62254287D01*
X115696587Y-62254288D01*
X115705121Y-62268079D01*
X115782739Y-62393508D01*
X115903789Y-62514347D01*
X115910019Y-62518187D01*
X115910020Y-62518188D01*
X116041511Y-62599240D01*
X116049390Y-62604097D01*
X116211734Y-62657944D01*
X116218571Y-62658644D01*
X116218573Y-62658645D01*
X116259892Y-62662878D01*
X116312759Y-62668295D01*
X116860223Y-62668295D01*
X116863469Y-62667958D01*
X116863473Y-62667958D01*
X116897574Y-62664420D01*
X116962510Y-62657682D01*
X116997228Y-62646099D01*
X117117815Y-62605868D01*
X117117817Y-62605867D01*
X117124759Y-62603551D01*
X117240771Y-62531761D01*
X117263976Y-62517401D01*
X117270204Y-62513547D01*
X117275377Y-62508365D01*
X117281114Y-62503818D01*
X117282546Y-62505625D01*
X117335066Y-62476893D01*
X117405886Y-62481903D01*
X117442344Y-62505294D01*
X117443174Y-62504243D01*
X117460331Y-62517793D01*
X117593371Y-62599799D01*
X117606552Y-62605946D01*
X117755305Y-62655286D01*
X117768681Y-62658153D01*
X117859588Y-62667467D01*
X117864617Y-62667724D01*
X117879615Y-62663320D01*
X117880820Y-62661930D01*
X117882491Y-62654247D01*
X117882491Y-62649680D01*
X118390491Y-62649680D01*
X118394966Y-62664919D01*
X118396356Y-62666124D01*
X118404039Y-62667795D01*
X118406929Y-62667795D01*
X118413444Y-62667458D01*
X118505548Y-62657901D01*
X118518947Y-62655007D01*
X118667598Y-62605414D01*
X118680777Y-62599240D01*
X118813664Y-62517007D01*
X118825065Y-62507971D01*
X118935477Y-62397366D01*
X118944489Y-62385955D01*
X119026495Y-62252915D01*
X119032642Y-62239734D01*
X119081982Y-62090981D01*
X119084849Y-62077605D01*
X119094163Y-61986698D01*
X119094491Y-61980282D01*
X119094491Y-61956910D01*
X119090016Y-61941671D01*
X119088626Y-61940466D01*
X119080943Y-61938795D01*
X118408606Y-61938795D01*
X118393367Y-61943270D01*
X118392162Y-61944660D01*
X118390491Y-61952343D01*
X118390491Y-62649680D01*
X117882491Y-62649680D01*
X117882491Y-61412680D01*
X118390491Y-61412680D01*
X118394966Y-61427919D01*
X118396356Y-61429124D01*
X118404039Y-61430795D01*
X119076376Y-61430795D01*
X119091615Y-61426320D01*
X119092820Y-61424930D01*
X119094491Y-61417247D01*
X119094491Y-61389357D01*
X119094154Y-61382842D01*
X119084597Y-61290738D01*
X119081703Y-61277339D01*
X119032110Y-61128688D01*
X119025936Y-61115509D01*
X118943703Y-60982622D01*
X118934667Y-60971221D01*
X118824062Y-60860809D01*
X118812651Y-60851797D01*
X118679611Y-60769791D01*
X118666430Y-60763644D01*
X118517677Y-60714304D01*
X118504301Y-60711437D01*
X118413394Y-60702123D01*
X118408365Y-60701866D01*
X118393367Y-60706270D01*
X118392162Y-60707660D01*
X118390491Y-60715343D01*
X118390491Y-61412680D01*
X117882491Y-61412680D01*
X117882491Y-60719910D01*
X117878016Y-60704671D01*
X117876626Y-60703466D01*
X117868943Y-60701795D01*
X117866053Y-60701795D01*
X117859538Y-60702132D01*
X117767434Y-60711689D01*
X117754035Y-60714583D01*
X117605384Y-60764176D01*
X117592206Y-60770350D01*
X117477794Y-60841150D01*
X117409342Y-60859988D01*
X117341573Y-60838827D01*
X117296001Y-60784386D01*
X117285491Y-60734006D01*
X117285491Y-59508068D01*
X117285493Y-59507408D01*
X117285936Y-59422780D01*
X117285959Y-59418425D01*
X117285599Y-59416924D01*
X117285491Y-59415058D01*
X117285491Y-58413918D01*
X117305493Y-58345797D01*
X117359149Y-58299304D01*
X117429423Y-58289200D01*
X117477607Y-58306658D01*
X117593371Y-58378015D01*
X117606552Y-58384162D01*
X117755305Y-58433502D01*
X117768681Y-58436369D01*
X117859588Y-58445683D01*
X117864617Y-58445940D01*
X117879615Y-58441536D01*
X117880820Y-58440146D01*
X117882491Y-58432463D01*
X117882491Y-58427896D01*
X118390491Y-58427896D01*
X118394966Y-58443135D01*
X118396356Y-58444340D01*
X118404039Y-58446011D01*
X118406929Y-58446011D01*
X118413444Y-58445674D01*
X118505548Y-58436117D01*
X118518947Y-58433223D01*
X118667598Y-58383630D01*
X118680777Y-58377456D01*
X118813664Y-58295223D01*
X118825065Y-58286187D01*
X118935477Y-58175582D01*
X118944489Y-58164171D01*
X119026495Y-58031131D01*
X119032642Y-58017950D01*
X119081982Y-57869197D01*
X119084849Y-57855821D01*
X119094163Y-57764914D01*
X119094491Y-57758498D01*
X119094491Y-57735126D01*
X119090016Y-57719887D01*
X119088626Y-57718682D01*
X119080943Y-57717011D01*
X118408606Y-57717011D01*
X118393367Y-57721486D01*
X118392162Y-57722876D01*
X118390491Y-57730559D01*
X118390491Y-58427896D01*
X117882491Y-58427896D01*
X117882491Y-57190896D01*
X118390491Y-57190896D01*
X118394966Y-57206135D01*
X118396356Y-57207340D01*
X118404039Y-57209011D01*
X119076376Y-57209011D01*
X119091615Y-57204536D01*
X119092820Y-57203146D01*
X119094491Y-57195463D01*
X119094491Y-57167573D01*
X119094154Y-57161058D01*
X119084597Y-57068954D01*
X119081703Y-57055555D01*
X119032110Y-56906904D01*
X119025936Y-56893725D01*
X118943703Y-56760838D01*
X118934667Y-56749437D01*
X118824062Y-56639025D01*
X118812651Y-56630013D01*
X118679611Y-56548007D01*
X118666430Y-56541860D01*
X118517677Y-56492520D01*
X118504301Y-56489653D01*
X118413394Y-56480339D01*
X118408365Y-56480082D01*
X118393367Y-56484486D01*
X118392162Y-56485876D01*
X118390491Y-56493559D01*
X118390491Y-57190896D01*
X117882491Y-57190896D01*
X117882491Y-56498126D01*
X117878016Y-56482887D01*
X117876626Y-56481682D01*
X117868943Y-56480011D01*
X117866053Y-56480011D01*
X117859538Y-56480348D01*
X117767434Y-56489905D01*
X117754035Y-56492799D01*
X117605384Y-56542392D01*
X117592205Y-56548566D01*
X117459318Y-56630799D01*
X117442180Y-56644382D01*
X117440650Y-56642452D01*
X117388611Y-56670914D01*
X117317792Y-56665898D01*
X117280874Y-56642212D01*
X117280119Y-56643168D01*
X117274373Y-56638630D01*
X117269193Y-56633459D01*
X117132687Y-56549315D01*
X117129822Y-56547549D01*
X117129820Y-56547548D01*
X117123592Y-56543709D01*
X116961248Y-56489862D01*
X116954411Y-56489162D01*
X116954409Y-56489161D01*
X116913090Y-56484928D01*
X116860223Y-56479511D01*
X116312759Y-56479511D01*
X116309513Y-56479848D01*
X116309509Y-56479848D01*
X116280221Y-56482887D01*
X116210472Y-56490124D01*
X116202454Y-56492799D01*
X116055167Y-56541938D01*
X116055165Y-56541939D01*
X116048223Y-56544255D01*
X115902778Y-56634259D01*
X115897605Y-56639441D01*
X115892673Y-56644382D01*
X115781939Y-56755309D01*
X115692189Y-56900910D01*
X115638342Y-57063254D01*
X115637642Y-57070091D01*
X115637641Y-57070093D01*
X115634621Y-57099569D01*
X115627991Y-57164279D01*
X115627991Y-57761743D01*
X115638604Y-57864030D01*
X115640786Y-57870570D01*
X115675003Y-57973129D01*
X115692735Y-58026279D01*
X115782739Y-58171724D01*
X115787921Y-58176897D01*
X115850509Y-58239376D01*
X115884588Y-58301659D01*
X115887491Y-58328549D01*
X115887491Y-58674356D01*
X115867489Y-58742477D01*
X115813833Y-58788970D01*
X115761491Y-58800356D01*
X115722141Y-58800356D01*
X115654020Y-58780354D01*
X115633046Y-58763452D01*
X114315533Y-57445941D01*
X114284795Y-57395781D01*
X114274359Y-57363661D01*
X114235083Y-57242784D01*
X114221473Y-57219210D01*
X114189758Y-57164279D01*
X114163857Y-57119417D01*
X114146976Y-57056418D01*
X114146976Y-56236194D01*
X114147268Y-56227624D01*
X114150630Y-56178314D01*
X114150630Y-56178310D01*
X114151146Y-56170738D01*
X114140310Y-56108654D01*
X114139354Y-56102175D01*
X114131785Y-56039629D01*
X114129101Y-56032527D01*
X114128246Y-56029045D01*
X114124406Y-56015010D01*
X114123365Y-56011562D01*
X114122058Y-56004072D01*
X114096739Y-55946394D01*
X114094246Y-55940286D01*
X114074668Y-55888475D01*
X114074668Y-55888474D01*
X114071982Y-55881367D01*
X114067676Y-55875101D01*
X114066026Y-55871946D01*
X114058907Y-55859154D01*
X114057107Y-55856110D01*
X114054054Y-55849156D01*
X114015716Y-55799193D01*
X114011838Y-55793856D01*
X113980457Y-55748196D01*
X113980455Y-55748194D01*
X113976155Y-55741937D01*
X113957751Y-55725539D01*
X113930288Y-55701071D01*
X113925012Y-55696090D01*
X112497189Y-54268267D01*
X112491335Y-54262001D01*
X112453850Y-54219031D01*
X112402314Y-54182811D01*
X112397018Y-54178878D01*
X112353429Y-54144699D01*
X112353426Y-54144697D01*
X112347452Y-54140013D01*
X112340528Y-54136887D01*
X112337493Y-54135049D01*
X112324794Y-54127805D01*
X112321646Y-54126117D01*
X112315431Y-54121749D01*
X112256742Y-54098867D01*
X112250697Y-54096327D01*
X112193257Y-54070392D01*
X112185784Y-54069007D01*
X112182366Y-54067936D01*
X112168377Y-54063951D01*
X112164885Y-54063054D01*
X112157803Y-54060293D01*
X112150270Y-54059301D01*
X112150269Y-54059301D01*
X112095362Y-54052072D01*
X112088849Y-54051040D01*
X112034374Y-54040944D01*
X112034372Y-54040944D01*
X112026905Y-54039560D01*
X112019325Y-54039997D01*
X112019324Y-54039997D01*
X111965580Y-54043096D01*
X111958327Y-54043305D01*
X111453573Y-54043305D01*
X111385452Y-54023303D01*
X111364478Y-54006400D01*
X111263744Y-53905666D01*
X111117062Y-53816833D01*
X111109815Y-53814562D01*
X111109813Y-53814561D01*
X111043527Y-53793788D01*
X110953425Y-53765552D01*
X110879998Y-53758805D01*
X110877100Y-53758805D01*
X110622698Y-53758806D01*
X110366729Y-53758806D01*
X110363871Y-53759069D01*
X110363862Y-53759069D01*
X110328359Y-53762331D01*
X110293301Y-53765552D01*
X110286923Y-53767551D01*
X110286922Y-53767551D01*
X110136913Y-53814561D01*
X110136911Y-53814562D01*
X110129664Y-53816833D01*
X109982982Y-53905666D01*
X109887458Y-54001190D01*
X109825146Y-54035216D01*
X109754331Y-54030151D01*
X109709268Y-54001190D01*
X109613744Y-53905666D01*
X109607246Y-53901730D01*
X109606314Y-53901000D01*
X109565051Y-53843226D01*
X109558063Y-53801848D01*
X109558063Y-51030293D01*
X109559141Y-51013846D01*
X109562031Y-50991895D01*
X109563109Y-50983707D01*
X109543013Y-50831070D01*
X109484097Y-50688834D01*
X109413906Y-50597359D01*
X109413905Y-50597358D01*
X109390376Y-50566694D01*
X109366256Y-50548186D01*
X109353866Y-50537319D01*
X108173568Y-49357022D01*
X108139543Y-49294710D01*
X108136663Y-49267927D01*
X108136663Y-48615653D01*
X108129908Y-48553471D01*
X108078778Y-48417082D01*
X107991424Y-48300526D01*
X107874868Y-48213172D01*
X107738479Y-48162042D01*
X107676297Y-48155287D01*
X105880029Y-48155287D01*
X105817847Y-48162042D01*
X105681458Y-48213172D01*
X105564902Y-48300526D01*
X105477548Y-48417082D01*
X105474396Y-48425490D01*
X105433082Y-48535694D01*
X105390440Y-48592458D01*
X105323879Y-48617158D01*
X105254530Y-48601950D01*
X105221906Y-48576263D01*
X105171314Y-48520662D01*
X105171305Y-48520653D01*
X105167833Y-48516838D01*
X105163782Y-48513639D01*
X105163778Y-48513635D01*
X104996577Y-48381587D01*
X104996573Y-48381585D01*
X104992522Y-48378385D01*
X104956191Y-48358329D01*
X104940299Y-48349556D01*
X104796952Y-48270425D01*
X104792083Y-48268701D01*
X104792079Y-48268699D01*
X104591250Y-48197582D01*
X104591246Y-48197581D01*
X104586375Y-48195856D01*
X104581282Y-48194949D01*
X104581279Y-48194948D01*
X104371536Y-48157587D01*
X104371530Y-48157586D01*
X104366447Y-48156681D01*
X104292615Y-48155779D01*
X104148244Y-48154015D01*
X104148242Y-48154015D01*
X104143074Y-48153952D01*
X103922254Y-48187742D01*
X103709919Y-48257144D01*
X103511770Y-48360294D01*
X103507637Y-48363397D01*
X103507634Y-48363399D01*
X103337263Y-48491317D01*
X103333128Y-48494422D01*
X103307704Y-48521027D01*
X103239443Y-48592458D01*
X103178792Y-48655925D01*
X103071364Y-48813408D01*
X103016456Y-48858408D01*
X102945931Y-48866579D01*
X102882184Y-48835325D01*
X102861487Y-48810841D01*
X102780985Y-48686404D01*
X102780983Y-48686401D01*
X102778177Y-48682064D01*
X102627833Y-48516838D01*
X102623782Y-48513639D01*
X102623778Y-48513635D01*
X102456577Y-48381587D01*
X102456573Y-48381585D01*
X102452522Y-48378385D01*
X102416191Y-48358329D01*
X102400299Y-48349556D01*
X102256952Y-48270425D01*
X102252083Y-48268701D01*
X102252079Y-48268699D01*
X102051250Y-48197582D01*
X102051246Y-48197581D01*
X102046375Y-48195856D01*
X102041282Y-48194949D01*
X102041279Y-48194948D01*
X101831536Y-48157587D01*
X101831530Y-48157586D01*
X101826447Y-48156681D01*
X101752615Y-48155779D01*
X101608244Y-48154015D01*
X101608242Y-48154015D01*
X101603074Y-48153952D01*
X101382254Y-48187742D01*
X101169919Y-48257144D01*
X100971770Y-48360294D01*
X100967637Y-48363397D01*
X100967634Y-48363399D01*
X100797263Y-48491317D01*
X100793128Y-48494422D01*
X100767704Y-48521027D01*
X100699443Y-48592458D01*
X100638792Y-48655925D01*
X100531364Y-48813408D01*
X100476456Y-48858408D01*
X100405931Y-48866579D01*
X100342184Y-48835325D01*
X100321487Y-48810841D01*
X100240985Y-48686404D01*
X100240983Y-48686401D01*
X100238177Y-48682064D01*
X100087833Y-48516838D01*
X100083782Y-48513639D01*
X100083778Y-48513635D01*
X99916577Y-48381587D01*
X99916573Y-48381585D01*
X99912522Y-48378385D01*
X99876191Y-48358329D01*
X99860299Y-48349556D01*
X99716952Y-48270425D01*
X99712083Y-48268701D01*
X99712079Y-48268699D01*
X99511250Y-48197582D01*
X99511246Y-48197581D01*
X99506375Y-48195856D01*
X99501282Y-48194949D01*
X99501279Y-48194948D01*
X99291536Y-48157587D01*
X99291530Y-48157586D01*
X99286447Y-48156681D01*
X99212615Y-48155779D01*
X99068244Y-48154015D01*
X99068242Y-48154015D01*
X99063074Y-48153952D01*
X98842254Y-48187742D01*
X98629919Y-48257144D01*
X98431770Y-48360294D01*
X98427637Y-48363397D01*
X98427634Y-48363399D01*
X98257263Y-48491317D01*
X98253128Y-48494422D01*
X98227704Y-48521027D01*
X98159443Y-48592458D01*
X98098792Y-48655925D01*
X97991367Y-48813405D01*
X97991061Y-48813853D01*
X97936150Y-48858856D01*
X97865625Y-48867027D01*
X97801878Y-48835773D01*
X97781181Y-48811289D01*
X97700589Y-48686713D01*
X97694299Y-48678544D01*
X97550969Y-48521027D01*
X97543436Y-48514002D01*
X97376302Y-48382009D01*
X97367715Y-48376304D01*
X97181280Y-48273386D01*
X97171868Y-48269156D01*
X96971122Y-48198067D01*
X96961151Y-48195433D01*
X96890000Y-48182759D01*
X96876703Y-48184219D01*
X96872163Y-48198776D01*
X96872163Y-50832304D01*
X96876227Y-50846146D01*
X96889641Y-50848180D01*
X96896347Y-50847321D01*
X96906425Y-50845179D01*
X97110418Y-50783978D01*
X97120005Y-50780220D01*
X97311258Y-50686526D01*
X97320108Y-50681251D01*
X97493491Y-50557579D01*
X97501363Y-50550926D01*
X97652215Y-50400599D01*
X97658893Y-50392752D01*
X97786185Y-50215606D01*
X97787442Y-50216509D01*
X97834536Y-50173149D01*
X97904474Y-50160932D01*
X97969914Y-50188465D01*
X97997742Y-50220298D01*
X98058150Y-50318875D01*
X98204413Y-50487725D01*
X98376289Y-50630419D01*
X98569163Y-50743125D01*
X98573988Y-50744967D01*
X98573989Y-50744968D01*
X98641052Y-50770577D01*
X98777855Y-50822817D01*
X98782923Y-50823848D01*
X98782926Y-50823849D01*
X98878025Y-50843197D01*
X98996760Y-50867354D01*
X99001935Y-50867544D01*
X99001937Y-50867544D01*
X99214836Y-50875351D01*
X99214840Y-50875351D01*
X99220000Y-50875540D01*
X99225120Y-50874884D01*
X99225122Y-50874884D01*
X99436451Y-50847812D01*
X99436452Y-50847812D01*
X99441579Y-50847155D01*
X99446529Y-50845670D01*
X99650592Y-50784448D01*
X99650597Y-50784446D01*
X99655547Y-50782961D01*
X99856157Y-50684683D01*
X100038023Y-50554960D01*
X100049861Y-50543164D01*
X100192598Y-50400924D01*
X100196259Y-50397276D01*
X100255757Y-50314476D01*
X100326616Y-50215864D01*
X100327939Y-50216815D01*
X100374808Y-50173644D01*
X100444743Y-50161412D01*
X100510189Y-50188931D01*
X100538038Y-50220781D01*
X100598150Y-50318875D01*
X100744413Y-50487725D01*
X100916289Y-50630419D01*
X101109163Y-50743125D01*
X101113988Y-50744967D01*
X101113989Y-50744968D01*
X101181052Y-50770577D01*
X101317855Y-50822817D01*
X101322923Y-50823848D01*
X101322926Y-50823849D01*
X101418025Y-50843197D01*
X101536760Y-50867354D01*
X101541935Y-50867544D01*
X101541937Y-50867544D01*
X101754836Y-50875351D01*
X101754840Y-50875351D01*
X101760000Y-50875540D01*
X101765120Y-50874884D01*
X101765122Y-50874884D01*
X101976451Y-50847812D01*
X101976452Y-50847812D01*
X101981579Y-50847155D01*
X101986529Y-50845670D01*
X102190592Y-50784448D01*
X102190597Y-50784446D01*
X102195547Y-50782961D01*
X102396157Y-50684683D01*
X102578023Y-50554960D01*
X102589861Y-50543164D01*
X102732598Y-50400924D01*
X102736259Y-50397276D01*
X102795757Y-50314476D01*
X102866616Y-50215864D01*
X102867939Y-50216815D01*
X102914808Y-50173644D01*
X102984743Y-50161412D01*
X103050189Y-50188931D01*
X103078038Y-50220781D01*
X103138150Y-50318875D01*
X103284413Y-50487725D01*
X103456289Y-50630419D01*
X103649163Y-50743125D01*
X103653988Y-50744967D01*
X103653989Y-50744968D01*
X103721052Y-50770577D01*
X103857855Y-50822817D01*
X103862923Y-50823848D01*
X103862926Y-50823849D01*
X103958025Y-50843197D01*
X104076760Y-50867354D01*
X104081935Y-50867544D01*
X104081937Y-50867544D01*
X104294836Y-50875351D01*
X104294840Y-50875351D01*
X104300000Y-50875540D01*
X104305120Y-50874884D01*
X104305122Y-50874884D01*
X104411254Y-50861288D01*
X104498558Y-50850104D01*
X104568667Y-50861288D01*
X104621601Y-50908601D01*
X104640567Y-50975083D01*
X104640567Y-54031605D01*
X104620565Y-54099726D01*
X104566909Y-54146219D01*
X104514567Y-54157605D01*
X99439111Y-54157605D01*
X99370990Y-54137603D01*
X99331335Y-54096876D01*
X99330822Y-54096028D01*
X99288971Y-54026924D01*
X99167713Y-53905666D01*
X99021031Y-53816833D01*
X99013784Y-53814562D01*
X99013782Y-53814561D01*
X98947496Y-53793788D01*
X98857394Y-53765552D01*
X98783967Y-53758805D01*
X98781069Y-53758805D01*
X98526667Y-53758806D01*
X98270698Y-53758806D01*
X98267840Y-53759069D01*
X98267831Y-53759069D01*
X98232328Y-53762331D01*
X98197270Y-53765552D01*
X98190892Y-53767551D01*
X98190891Y-53767551D01*
X98040882Y-53814561D01*
X98040880Y-53814562D01*
X98033633Y-53816833D01*
X97886951Y-53905666D01*
X97791427Y-54001190D01*
X97729115Y-54035216D01*
X97658300Y-54030151D01*
X97601464Y-53987604D01*
X97576653Y-53921084D01*
X97576332Y-53912095D01*
X97576332Y-53595096D01*
X97576624Y-53586525D01*
X97579985Y-53537221D01*
X97580502Y-53529645D01*
X97569666Y-53467561D01*
X97568710Y-53461082D01*
X97561141Y-53398536D01*
X97558457Y-53391434D01*
X97557602Y-53387952D01*
X97553762Y-53373917D01*
X97552721Y-53370469D01*
X97551414Y-53362979D01*
X97526095Y-53305301D01*
X97523602Y-53299193D01*
X97504024Y-53247382D01*
X97504024Y-53247381D01*
X97501338Y-53240274D01*
X97497032Y-53234008D01*
X97495382Y-53230853D01*
X97488263Y-53218061D01*
X97486463Y-53215017D01*
X97483410Y-53208063D01*
X97445072Y-53158100D01*
X97441194Y-53152763D01*
X97409813Y-53107103D01*
X97409811Y-53107101D01*
X97405511Y-53100844D01*
X97359643Y-53059977D01*
X97354368Y-53054997D01*
X94995338Y-50695967D01*
X94961312Y-50633655D01*
X94966377Y-50562840D01*
X94995493Y-50517621D01*
X95112598Y-50400924D01*
X95116259Y-50397276D01*
X95175757Y-50314476D01*
X95246616Y-50215864D01*
X95247803Y-50216717D01*
X95295123Y-50173149D01*
X95365060Y-50160932D01*
X95430501Y-50188465D01*
X95458329Y-50220298D01*
X95515857Y-50314175D01*
X95521940Y-50322486D01*
X95661376Y-50483454D01*
X95668743Y-50490670D01*
X95832597Y-50626703D01*
X95841044Y-50632618D01*
X96024919Y-50740066D01*
X96034205Y-50744516D01*
X96233164Y-50820490D01*
X96243062Y-50823366D01*
X96346413Y-50844393D01*
X96360462Y-50843197D01*
X96364163Y-50832852D01*
X96364163Y-48196889D01*
X96360245Y-48183545D01*
X96345969Y-48181558D01*
X96307487Y-48187447D01*
X96297451Y-48189838D01*
X96095031Y-48255999D01*
X96085522Y-48259996D01*
X95896626Y-48358329D01*
X95887901Y-48363823D01*
X95717596Y-48491692D01*
X95709889Y-48498535D01*
X95562753Y-48652504D01*
X95556272Y-48660509D01*
X95451661Y-48813861D01*
X95396750Y-48858863D01*
X95326225Y-48867034D01*
X95262478Y-48835780D01*
X95241781Y-48811296D01*
X95160985Y-48686404D01*
X95160983Y-48686401D01*
X95158177Y-48682064D01*
X95007833Y-48516838D01*
X95003782Y-48513639D01*
X95003778Y-48513635D01*
X94836577Y-48381587D01*
X94836573Y-48381585D01*
X94832522Y-48378385D01*
X94796191Y-48358329D01*
X94780299Y-48349556D01*
X94636952Y-48270425D01*
X94632083Y-48268701D01*
X94632079Y-48268699D01*
X94431250Y-48197582D01*
X94431246Y-48197581D01*
X94426375Y-48195856D01*
X94421282Y-48194949D01*
X94421279Y-48194948D01*
X94211536Y-48157587D01*
X94211530Y-48157586D01*
X94206447Y-48156681D01*
X94132615Y-48155779D01*
X93988244Y-48154015D01*
X93988242Y-48154015D01*
X93983074Y-48153952D01*
X93762254Y-48187742D01*
X93549919Y-48257144D01*
X93351770Y-48360294D01*
X93347637Y-48363397D01*
X93347634Y-48363399D01*
X93177263Y-48491317D01*
X93173128Y-48494422D01*
X93147704Y-48521027D01*
X93079443Y-48592458D01*
X93018792Y-48655925D01*
X92892906Y-48840467D01*
X92798851Y-49043092D01*
X92739152Y-49258357D01*
X92715414Y-49480482D01*
X92728273Y-49703502D01*
X92729410Y-49708548D01*
X92729411Y-49708554D01*
X92750438Y-49801856D01*
X92777385Y-49921426D01*
X92861429Y-50128403D01*
X92913105Y-50212731D01*
X92975454Y-50314475D01*
X92978150Y-50318875D01*
X93124413Y-50487725D01*
X93296289Y-50630419D01*
X93300756Y-50633029D01*
X93300760Y-50633032D01*
X93315917Y-50641889D01*
X93364641Y-50693527D01*
X93378056Y-50759246D01*
X93375509Y-50796603D01*
X93375509Y-50796607D01*
X93374993Y-50804179D01*
X93376298Y-50811655D01*
X93376298Y-50811659D01*
X93385826Y-50866251D01*
X93386789Y-50872776D01*
X93391125Y-50908601D01*
X93394354Y-50935287D01*
X93397038Y-50942390D01*
X93397877Y-50945806D01*
X93401746Y-50959950D01*
X93402776Y-50963361D01*
X93404082Y-50970844D01*
X93407135Y-50977799D01*
X93429402Y-51028525D01*
X93431893Y-51034631D01*
X93454157Y-51093549D01*
X93458456Y-51099804D01*
X93460098Y-51102945D01*
X93467196Y-51115699D01*
X93469033Y-51118805D01*
X93472086Y-51125760D01*
X93476711Y-51131787D01*
X93476713Y-51131791D01*
X93510428Y-51175729D01*
X93514292Y-51181047D01*
X93549984Y-51232979D01*
X93595870Y-51273862D01*
X93601126Y-51278825D01*
X96141427Y-53819127D01*
X96175453Y-53881439D01*
X96178332Y-53908222D01*
X96178332Y-53912095D01*
X96158330Y-53980216D01*
X96141427Y-54001190D01*
X96136217Y-54006400D01*
X96073905Y-54040426D01*
X96047122Y-54043305D01*
X95797965Y-54043305D01*
X95789395Y-54043013D01*
X95740100Y-54039652D01*
X95740096Y-54039652D01*
X95732524Y-54039136D01*
X95725047Y-54040441D01*
X95725046Y-54040441D01*
X95697756Y-54045204D01*
X95670461Y-54049968D01*
X95663944Y-54050929D01*
X95654502Y-54052072D01*
X95608958Y-54057583D01*
X95608955Y-54057584D01*
X95601416Y-54058496D01*
X95594307Y-54061182D01*
X95590864Y-54062028D01*
X95576739Y-54065891D01*
X95573334Y-54066919D01*
X95565858Y-54068224D01*
X95508186Y-54093540D01*
X95502091Y-54096028D01*
X95450256Y-54115615D01*
X95450254Y-54115616D01*
X95443154Y-54118299D01*
X95436902Y-54122596D01*
X95433759Y-54124239D01*
X95421011Y-54131334D01*
X95417899Y-54133175D01*
X95410943Y-54136228D01*
X95370698Y-54167109D01*
X95360978Y-54174567D01*
X95355651Y-54178438D01*
X95303724Y-54214126D01*
X95298672Y-54219796D01*
X95298671Y-54219797D01*
X95262866Y-54259984D01*
X95257885Y-54265260D01*
X93919647Y-55603499D01*
X92611770Y-56911376D01*
X92549458Y-56945402D01*
X92522675Y-56948281D01*
X92306168Y-56948281D01*
X92302922Y-56948618D01*
X92302918Y-56948618D01*
X92273630Y-56951657D01*
X92203881Y-56958894D01*
X92195863Y-56961569D01*
X92048576Y-57010708D01*
X92048574Y-57010709D01*
X92041632Y-57013025D01*
X92035408Y-57016877D01*
X92035407Y-57016877D01*
X91928364Y-57083117D01*
X91896187Y-57103029D01*
X91891014Y-57108211D01*
X91885277Y-57112758D01*
X91883845Y-57110951D01*
X91831325Y-57139683D01*
X91760505Y-57134673D01*
X91724047Y-57111282D01*
X91723217Y-57112333D01*
X91706060Y-57098783D01*
X91573020Y-57016777D01*
X91559839Y-57010630D01*
X91411086Y-56961290D01*
X91397710Y-56958423D01*
X91306803Y-56949109D01*
X91301774Y-56948852D01*
X91286776Y-56953256D01*
X91285571Y-56954646D01*
X91283900Y-56962329D01*
X91283900Y-58896666D01*
X91288375Y-58911905D01*
X91289765Y-58913110D01*
X91297448Y-58914781D01*
X91300338Y-58914781D01*
X91306853Y-58914444D01*
X91398957Y-58904887D01*
X91412356Y-58901993D01*
X91561007Y-58852400D01*
X91574185Y-58846226D01*
X91688597Y-58775426D01*
X91757049Y-58756588D01*
X91824818Y-58777749D01*
X91870390Y-58832190D01*
X91880900Y-58882570D01*
X91880900Y-60493602D01*
X91860898Y-60561723D01*
X91807242Y-60608216D01*
X91736968Y-60618320D01*
X91688784Y-60600862D01*
X91573020Y-60529505D01*
X91559839Y-60523358D01*
X91411086Y-60474018D01*
X91397710Y-60471151D01*
X91306803Y-60461837D01*
X91301774Y-60461580D01*
X91286776Y-60465984D01*
X91285571Y-60467374D01*
X91283900Y-60475057D01*
X91283900Y-62409394D01*
X90775900Y-62409394D01*
X90775900Y-61716624D01*
X90771425Y-61701385D01*
X90770035Y-61700180D01*
X90762352Y-61698509D01*
X90090015Y-61698509D01*
X90074776Y-61702984D01*
X90073571Y-61704374D01*
X90071900Y-61712057D01*
X90071900Y-61739947D01*
X86535764Y-61739947D01*
X86536194Y-61172394D01*
X90071900Y-61172394D01*
X90076375Y-61187633D01*
X90077765Y-61188838D01*
X90085448Y-61190509D01*
X90757785Y-61190509D01*
X90773024Y-61186034D01*
X90774229Y-61184644D01*
X90775900Y-61176961D01*
X90775900Y-60479624D01*
X90771425Y-60464385D01*
X90770035Y-60463180D01*
X90762352Y-60461509D01*
X90759462Y-60461509D01*
X90752947Y-60461846D01*
X90660843Y-60471403D01*
X90647444Y-60474297D01*
X90498793Y-60523890D01*
X90485614Y-60530064D01*
X90352727Y-60612297D01*
X90341326Y-60621333D01*
X90230914Y-60731938D01*
X90221902Y-60743349D01*
X90139896Y-60876389D01*
X90133749Y-60889570D01*
X90084409Y-61038323D01*
X90081542Y-61051699D01*
X90072228Y-61142606D01*
X90071900Y-61149023D01*
X90071900Y-61172394D01*
X86536194Y-61172394D01*
X86538426Y-58227219D01*
X90071900Y-58227219D01*
X90072237Y-58233734D01*
X90081794Y-58325838D01*
X90084688Y-58339237D01*
X90134281Y-58487888D01*
X90140455Y-58501067D01*
X90222688Y-58633954D01*
X90231724Y-58645355D01*
X90342329Y-58755767D01*
X90353740Y-58764779D01*
X90486780Y-58846785D01*
X90499961Y-58852932D01*
X90648714Y-58902272D01*
X90662090Y-58905139D01*
X90752997Y-58914453D01*
X90758026Y-58914710D01*
X90773024Y-58910306D01*
X90774229Y-58908916D01*
X90775900Y-58901233D01*
X90775900Y-58203896D01*
X90771425Y-58188657D01*
X90770035Y-58187452D01*
X90762352Y-58185781D01*
X90090015Y-58185781D01*
X90074776Y-58190256D01*
X90073571Y-58191646D01*
X90071900Y-58199329D01*
X90071900Y-58227219D01*
X86538426Y-58227219D01*
X86538856Y-57659666D01*
X90071900Y-57659666D01*
X90076375Y-57674905D01*
X90077765Y-57676110D01*
X90085448Y-57677781D01*
X90757785Y-57677781D01*
X90773024Y-57673306D01*
X90774229Y-57671916D01*
X90775900Y-57664233D01*
X90775900Y-56966896D01*
X90771425Y-56951657D01*
X90770035Y-56950452D01*
X90762352Y-56948781D01*
X90759462Y-56948781D01*
X90752947Y-56949118D01*
X90660843Y-56958675D01*
X90647444Y-56961569D01*
X90498793Y-57011162D01*
X90485614Y-57017336D01*
X90352727Y-57099569D01*
X90341326Y-57108605D01*
X90230914Y-57219210D01*
X90221902Y-57230621D01*
X90139896Y-57363661D01*
X90133749Y-57376842D01*
X90084409Y-57525595D01*
X90081542Y-57538971D01*
X90072228Y-57629878D01*
X90071900Y-57636295D01*
X90071900Y-57659666D01*
X86538856Y-57659666D01*
X86540341Y-55701071D01*
X86547106Y-46775436D01*
X86548203Y-46758943D01*
X86551159Y-46736690D01*
X86551159Y-46736685D01*
X86552340Y-46727793D01*
X86550626Y-46716635D01*
X86549514Y-46688111D01*
X86558286Y-46570698D01*
X86562451Y-46546657D01*
X86599355Y-46412540D01*
X86608075Y-46389753D01*
X86615027Y-46375807D01*
X86670139Y-46265259D01*
X86683082Y-46244589D01*
X86767979Y-46134390D01*
X86784671Y-46116595D01*
X86889201Y-46024837D01*
X86909010Y-46010591D01*
X87029279Y-45940692D01*
X87051461Y-45930533D01*
X87182942Y-45885128D01*
X87206668Y-45879434D01*
X87316809Y-45864075D01*
X87332645Y-45863869D01*
X87332624Y-45863160D01*
X87341594Y-45862897D01*
X87350516Y-45863908D01*
X87368812Y-45860737D01*
X87390286Y-45858887D01*
X103760493Y-45854914D01*
X120926604Y-45850748D01*
X120931622Y-45850847D01*
X120983798Y-45852914D01*
X120983801Y-45852914D01*
X120992769Y-45853269D01*
X121001478Y-45851093D01*
X121001483Y-45851092D01*
X121004205Y-45850412D01*
X121032083Y-45846680D01*
X121152018Y-45844137D01*
X121175525Y-45845844D01*
G37*
%TD.AperFunction*%
%TA.AperFunction,Conductor*%
G36*
X104999008Y-55347007D02*
G01*
X105019982Y-55363910D01*
X107582131Y-57926060D01*
X107616157Y-57988372D01*
X107611092Y-58059188D01*
X107568545Y-58116023D01*
X107522180Y-58137738D01*
X107501353Y-58142690D01*
X107380902Y-58187845D01*
X107365307Y-58196383D01*
X107263232Y-58272884D01*
X107250671Y-58285445D01*
X107174170Y-58387520D01*
X107165632Y-58403115D01*
X107120478Y-58523563D01*
X107116851Y-58538818D01*
X107113563Y-58569078D01*
X107086320Y-58634640D01*
X107027957Y-58675066D01*
X106988300Y-58681469D01*
X103657833Y-58681469D01*
X103589712Y-58661467D01*
X103568738Y-58644565D01*
X103020627Y-58096455D01*
X103009759Y-58084062D01*
X102996284Y-58066501D01*
X102991256Y-58059948D01*
X102981176Y-58052213D01*
X102910097Y-57997673D01*
X102897976Y-57988372D01*
X102869116Y-57966227D01*
X102827456Y-57948971D01*
X102726880Y-57907311D01*
X102718692Y-57906233D01*
X102612567Y-57892261D01*
X102612562Y-57892261D01*
X102574243Y-57887216D01*
X102566055Y-57888294D01*
X102544110Y-57891183D01*
X102527664Y-57892261D01*
X101868779Y-57892261D01*
X101800658Y-57872259D01*
X101775148Y-57850576D01*
X101727894Y-57798095D01*
X101616292Y-57717011D01*
X101578735Y-57689724D01*
X101578734Y-57689723D01*
X101573393Y-57685843D01*
X101567365Y-57683159D01*
X101567363Y-57683158D01*
X101404960Y-57610852D01*
X101404959Y-57610852D01*
X101398929Y-57608167D01*
X101288470Y-57584688D01*
X101218585Y-57569833D01*
X101218580Y-57569833D01*
X101212128Y-57568461D01*
X101021154Y-57568461D01*
X101014702Y-57569833D01*
X101014697Y-57569833D01*
X100944812Y-57584688D01*
X100834353Y-57608167D01*
X100828323Y-57610852D01*
X100828322Y-57610852D01*
X100665919Y-57683158D01*
X100665917Y-57683159D01*
X100659889Y-57685843D01*
X100654548Y-57689723D01*
X100654547Y-57689724D01*
X100616990Y-57717011D01*
X100505388Y-57798095D01*
X100500967Y-57803005D01*
X100500966Y-57803006D01*
X100407050Y-57907311D01*
X100377601Y-57940017D01*
X100282114Y-58105405D01*
X100223099Y-58287033D01*
X100222409Y-58293594D01*
X100222409Y-58293596D01*
X100211808Y-58394464D01*
X100203137Y-58476961D01*
X100203827Y-58483526D01*
X100220753Y-58644565D01*
X100223099Y-58666889D01*
X100241282Y-58722850D01*
X100243310Y-58793816D01*
X100206648Y-58854614D01*
X100142936Y-58885939D01*
X100121449Y-58887785D01*
X99461005Y-58887785D01*
X99392884Y-58867783D01*
X99352888Y-58826489D01*
X99343761Y-58811239D01*
X99343760Y-58811238D01*
X99339860Y-58804721D01*
X99311999Y-58776567D01*
X99311100Y-58775603D01*
X99310332Y-58774601D01*
X99283867Y-58748136D01*
X99283402Y-58747669D01*
X99223912Y-58687553D01*
X99223911Y-58687552D01*
X99220856Y-58684465D01*
X99219543Y-58683660D01*
X99218152Y-58682421D01*
X98762950Y-58227219D01*
X98289806Y-57754076D01*
X98283952Y-57747809D01*
X98268904Y-57730559D01*
X98246474Y-57704847D01*
X98194938Y-57668627D01*
X98189642Y-57664694D01*
X98146053Y-57630515D01*
X98146050Y-57630513D01*
X98140076Y-57625829D01*
X98133152Y-57622703D01*
X98130117Y-57620865D01*
X98117418Y-57613621D01*
X98114270Y-57611933D01*
X98108055Y-57607565D01*
X98049366Y-57584683D01*
X98043321Y-57582143D01*
X97985881Y-57556208D01*
X97978408Y-57554823D01*
X97974990Y-57553752D01*
X97961001Y-57549767D01*
X97957509Y-57548870D01*
X97950427Y-57546109D01*
X97942894Y-57545117D01*
X97942893Y-57545117D01*
X97887986Y-57537888D01*
X97881473Y-57536856D01*
X97826998Y-57526760D01*
X97826996Y-57526760D01*
X97819529Y-57525376D01*
X97811949Y-57525813D01*
X97811948Y-57525813D01*
X97758204Y-57528912D01*
X97750951Y-57529121D01*
X97702332Y-57529121D01*
X97634211Y-57509119D01*
X97587718Y-57455463D01*
X97576332Y-57403121D01*
X97576332Y-55572515D01*
X97596334Y-55504394D01*
X97649990Y-55457901D01*
X97720264Y-55447797D01*
X97784844Y-55477291D01*
X97791427Y-55483420D01*
X97886951Y-55578944D01*
X98033633Y-55667777D01*
X98040880Y-55670048D01*
X98040882Y-55670049D01*
X98107168Y-55690822D01*
X98197270Y-55719058D01*
X98270697Y-55725805D01*
X98273595Y-55725805D01*
X98527997Y-55725804D01*
X98783966Y-55725804D01*
X98786824Y-55725541D01*
X98786833Y-55725541D01*
X98822336Y-55722279D01*
X98857394Y-55719058D01*
X98863779Y-55717057D01*
X99013782Y-55670049D01*
X99013784Y-55670048D01*
X99021031Y-55667777D01*
X99167713Y-55578944D01*
X99288971Y-55457686D01*
X99331336Y-55387733D01*
X99383732Y-55339827D01*
X99439111Y-55327005D01*
X104930887Y-55327005D01*
X104999008Y-55347007D01*
G37*
%TD.AperFunction*%
%TD*%
M02*
