%TF.GenerationSoftware,KiCad,Pcbnew,(6.0.7)*%
%TF.CreationDate,2023-01-24T00:42:55-08:00*%
%TF.ProjectId,Sensors,53656e73-6f72-4732-9e6b-696361645f70,rev?*%
%TF.SameCoordinates,Original*%
%TF.FileFunction,Copper,L4,Bot*%
%TF.FilePolarity,Positive*%
%FSLAX46Y46*%
G04 Gerber Fmt 4.6, Leading zero omitted, Abs format (unit mm)*
G04 Created by KiCad (PCBNEW (6.0.7)) date 2023-01-24 00:42:55*
%MOMM*%
%LPD*%
G01*
G04 APERTURE LIST*
%TA.AperFunction,ComponentPad*%
%ADD10R,1.700000X1.700000*%
%TD*%
%TA.AperFunction,ComponentPad*%
%ADD11O,1.700000X1.700000*%
%TD*%
%TA.AperFunction,ViaPad*%
%ADD12C,0.800000*%
%TD*%
%TA.AperFunction,ViaPad*%
%ADD13C,0.609600*%
%TD*%
%TA.AperFunction,ViaPad*%
%ADD14C,0.203200*%
%TD*%
%TA.AperFunction,Conductor*%
%ADD15C,0.152400*%
%TD*%
G04 APERTURE END LIST*
D10*
%TO.P,J1,1,Pin_1*%
%TO.N,Net-(U01-Pad13)*%
X106778163Y-49513787D03*
D11*
%TO.P,J1,2,Pin_2*%
%TO.N,Net-(U01-Pad14)*%
X104238163Y-49513787D03*
%TO.P,J1,3,Pin_3*%
%TO.N,Net-(U01-Pad3)*%
X101698163Y-49513787D03*
%TO.P,J1,4,Pin_4*%
%TO.N,Net-(U01-Pad2)*%
X99158163Y-49513787D03*
%TO.P,J1,5,Pin_5*%
%TO.N,GND*%
X96618163Y-49513787D03*
%TO.P,J1,6,Pin_6*%
%TO.N,3.3V*%
X94078163Y-49513787D03*
%TD*%
D12*
%TO.N,Net-(U01-Pad3)*%
X102697104Y-59624420D03*
%TO.N,Net-(U01-Pad2)*%
X101116641Y-58476961D03*
%TO.N,GND*%
X104255917Y-56896498D03*
%TO.N,3.3V*%
X106435814Y-61829107D03*
X113400556Y-57614340D03*
%TO.N,GND*%
X111631856Y-61857974D03*
D13*
%TO.N,3.3V*%
X96636712Y-60617584D03*
X97155398Y-58228121D03*
%TO.N,GND*%
X99826028Y-61033766D03*
X96535725Y-59454438D03*
D14*
%TO.N,Net-(U01-Pad2)*%
X98498057Y-60088459D03*
%TD*%
D15*
%TO.N,Net-(U01-Pad3)*%
X102697104Y-50512728D02*
X101698163Y-49513787D01*
X102697104Y-59624420D02*
X102697104Y-50512728D01*
%TO.N,Net-(U01-Pad2)*%
X101074567Y-58519035D02*
X101116641Y-58476961D01*
X101052916Y-58519035D02*
X101074567Y-58519035D01*
X100099083Y-50454707D02*
X99158163Y-49513787D01*
X100099083Y-57565202D02*
X100099083Y-50454707D01*
X101052916Y-58519035D02*
X100099083Y-57565202D01*
X101052916Y-58519035D02*
X100983541Y-58519035D01*
X100983541Y-58519035D02*
X100408726Y-59093850D01*
X100408726Y-59093850D02*
X100648303Y-58854273D01*
X99414117Y-60088459D02*
X100408726Y-59093850D01*
X98498057Y-60088459D02*
X99414117Y-60088459D01*
%TD*%
M02*
