%TF.GenerationSoftware,KiCad,Pcbnew,(6.0.7)*%
%TF.CreationDate,2023-01-24T00:43:17-08:00*%
%TF.ProjectId,Sensors,53656e73-6f72-4732-9e6b-696361645f70,rev?*%
%TF.SameCoordinates,Original*%
%TF.FileFunction,Drillmap*%
%TF.FilePolarity,Positive*%
%FSLAX45Y45*%
G04 Gerber Fmt 4.5, Leading zero omitted, Abs format (unit mm)*
G04 Created by KiCad (PCBNEW (6.0.7)) date 2023-01-24 00:43:17*
%MOMM*%
%LPD*%
G01*
G04 APERTURE LIST*
%ADD10C,0.050000*%
%ADD11C,0.200000*%
G04 APERTURE END LIST*
D10*
X12057623Y-7307784D02*
G75*
G03*
X12247037Y-7084735I-57044J240393D01*
G01*
X12249293Y-4672665D02*
G75*
G03*
X12094013Y-4534224I-139311J48D01*
G01*
X8813060Y-7310679D02*
X12057839Y-7308694D01*
X8733543Y-4535040D02*
X12094013Y-4534224D01*
X8603864Y-4673303D02*
X8602011Y-7117662D01*
X8733543Y-4535047D02*
G75*
G03*
X8603864Y-4673303I5627J-135223D01*
G01*
X8602203Y-7117642D02*
G75*
G03*
X8813060Y-7310679I214455J22572D01*
G01*
X12249293Y-4672665D02*
X12247037Y-7084735D01*
D11*
X8857130Y-7623655D02*
X8857130Y-7423655D01*
X8904749Y-7423655D01*
X8933321Y-7433179D01*
X8952368Y-7452226D01*
X8961892Y-7471274D01*
X8971416Y-7509369D01*
X8971416Y-7537941D01*
X8961892Y-7576036D01*
X8952368Y-7595083D01*
X8933321Y-7614131D01*
X8904749Y-7623655D01*
X8857130Y-7623655D01*
X9057130Y-7623655D02*
X9057130Y-7490322D01*
X9057130Y-7528417D02*
X9066654Y-7509369D01*
X9076178Y-7499845D01*
X9095225Y-7490322D01*
X9114273Y-7490322D01*
X9180940Y-7623655D02*
X9180940Y-7490322D01*
X9180940Y-7423655D02*
X9171416Y-7433179D01*
X9180940Y-7442703D01*
X9190463Y-7433179D01*
X9180940Y-7423655D01*
X9180940Y-7442703D01*
X9304749Y-7623655D02*
X9285702Y-7614131D01*
X9276178Y-7595083D01*
X9276178Y-7423655D01*
X9409511Y-7623655D02*
X9390463Y-7614131D01*
X9380940Y-7595083D01*
X9380940Y-7423655D01*
X9638083Y-7623655D02*
X9638083Y-7423655D01*
X9704749Y-7566512D01*
X9771416Y-7423655D01*
X9771416Y-7623655D01*
X9952368Y-7623655D02*
X9952368Y-7518893D01*
X9942844Y-7499845D01*
X9923797Y-7490322D01*
X9885702Y-7490322D01*
X9866654Y-7499845D01*
X9952368Y-7614131D02*
X9933321Y-7623655D01*
X9885702Y-7623655D01*
X9866654Y-7614131D01*
X9857130Y-7595083D01*
X9857130Y-7576036D01*
X9866654Y-7556988D01*
X9885702Y-7547464D01*
X9933321Y-7547464D01*
X9952368Y-7537941D01*
X10047606Y-7490322D02*
X10047606Y-7690322D01*
X10047606Y-7499845D02*
X10066654Y-7490322D01*
X10104749Y-7490322D01*
X10123797Y-7499845D01*
X10133321Y-7509369D01*
X10142844Y-7528417D01*
X10142844Y-7585560D01*
X10133321Y-7604607D01*
X10123797Y-7614131D01*
X10104749Y-7623655D01*
X10066654Y-7623655D01*
X10047606Y-7614131D01*
X10228559Y-7604607D02*
X10238083Y-7614131D01*
X10228559Y-7623655D01*
X10219035Y-7614131D01*
X10228559Y-7604607D01*
X10228559Y-7623655D01*
X10228559Y-7499845D02*
X10238083Y-7509369D01*
X10228559Y-7518893D01*
X10219035Y-7509369D01*
X10228559Y-7499845D01*
X10228559Y-7518893D01*
M02*
