%TF.GenerationSoftware,KiCad,Pcbnew,(6.0.7)*%
%TF.CreationDate,2023-01-24T00:42:55-08:00*%
%TF.ProjectId,Sensors,53656e73-6f72-4732-9e6b-696361645f70,rev?*%
%TF.SameCoordinates,Original*%
%TF.FileFunction,Copper,L2,Inr*%
%TF.FilePolarity,Positive*%
%FSLAX46Y46*%
G04 Gerber Fmt 4.6, Leading zero omitted, Abs format (unit mm)*
G04 Created by KiCad (PCBNEW (6.0.7)) date 2023-01-24 00:42:55*
%MOMM*%
%LPD*%
G01*
G04 APERTURE LIST*
%TA.AperFunction,ComponentPad*%
%ADD10R,1.700000X1.700000*%
%TD*%
%TA.AperFunction,ComponentPad*%
%ADD11O,1.700000X1.700000*%
%TD*%
%TA.AperFunction,ViaPad*%
%ADD12C,0.800000*%
%TD*%
%TA.AperFunction,ViaPad*%
%ADD13C,0.609600*%
%TD*%
%TA.AperFunction,ViaPad*%
%ADD14C,0.203200*%
%TD*%
G04 APERTURE END LIST*
D10*
%TO.N,Net-(U01-Pad13)*%
%TO.C,J1*%
X106778163Y-49513787D03*
D11*
%TO.N,Net-(U01-Pad14)*%
X104238163Y-49513787D03*
%TO.N,Net-(U01-Pad3)*%
X101698163Y-49513787D03*
%TO.N,Net-(U01-Pad2)*%
X99158163Y-49513787D03*
%TO.N,GND*%
X96618163Y-49513787D03*
%TO.N,3.3V*%
X94078163Y-49513787D03*
%TD*%
D12*
%TO.N,Net-(U01-Pad3)*%
X102697104Y-59624420D03*
%TO.N,Net-(U01-Pad2)*%
X101116641Y-58476961D03*
%TO.N,GND*%
X104255917Y-56896498D03*
%TO.N,3.3V*%
X106435814Y-61829107D03*
X113400556Y-57614340D03*
%TO.N,GND*%
X111631856Y-61857974D03*
D13*
%TO.N,3.3V*%
X96636712Y-60617584D03*
X97155398Y-58228121D03*
%TO.N,GND*%
X99826028Y-61033766D03*
X96535725Y-59454438D03*
D14*
%TO.N,Net-(U01-Pad2)*%
X98498057Y-60088459D03*
%TD*%
%TA.AperFunction,Conductor*%
%TO.N,GND*%
G36*
X121175525Y-45845844D02*
G01*
X121315373Y-45869293D01*
X121338150Y-45875347D01*
X121471199Y-45924436D01*
X121492442Y-45934623D01*
X121607764Y-46003874D01*
X121614015Y-46007628D01*
X121632998Y-46021599D01*
X121738845Y-46115968D01*
X121754893Y-46133229D01*
X121841314Y-46245659D01*
X121853867Y-46265608D01*
X121917835Y-46392163D01*
X121926450Y-46414090D01*
X121965736Y-46550364D01*
X121970115Y-46573512D01*
X121980655Y-46686094D01*
X121980155Y-46702355D01*
X121980735Y-46702362D01*
X121980622Y-46711340D01*
X121979238Y-46720209D01*
X121980399Y-46729109D01*
X121980399Y-46729110D01*
X121983330Y-46751582D01*
X121984388Y-46767997D01*
X121961940Y-70774387D01*
X121960649Y-70785662D01*
X121961322Y-70785720D01*
X121960554Y-70794665D01*
X121958527Y-70803407D01*
X121959483Y-70820280D01*
X121958517Y-70844516D01*
X121930452Y-71049239D01*
X121927325Y-71064742D01*
X121866885Y-71290272D01*
X121861841Y-71305261D01*
X121773619Y-71521457D01*
X121766736Y-71535697D01*
X121652129Y-71739131D01*
X121643517Y-71752396D01*
X121504323Y-71939876D01*
X121494117Y-71951957D01*
X121332539Y-72120518D01*
X121320899Y-72131226D01*
X121139474Y-72278221D01*
X121126590Y-72287384D01*
X120928169Y-72410500D01*
X120914247Y-72417971D01*
X120873754Y-72436529D01*
X120701969Y-72515258D01*
X120687207Y-72520931D01*
X120522208Y-72572720D01*
X120484554Y-72578503D01*
X107926426Y-72586182D01*
X88185368Y-72598254D01*
X88163751Y-72596399D01*
X88145795Y-72593283D01*
X88130665Y-72594995D01*
X88105216Y-72595287D01*
X87910707Y-72577792D01*
X87892742Y-72574856D01*
X87678244Y-72523637D01*
X87660881Y-72518137D01*
X87456017Y-72436529D01*
X87439627Y-72428583D01*
X87248681Y-72318296D01*
X87233608Y-72308070D01*
X87060555Y-72171401D01*
X87047113Y-72159108D01*
X87020738Y-72131226D01*
X86895568Y-71998908D01*
X86884040Y-71984805D01*
X86757183Y-71804439D01*
X86747808Y-71788821D01*
X86648280Y-71592041D01*
X86641256Y-71575236D01*
X86571142Y-71366166D01*
X86566614Y-71348523D01*
X86533109Y-71163226D01*
X86531988Y-71146135D01*
X86531972Y-71146137D01*
X86531127Y-71137204D01*
X86531557Y-71128233D01*
X86529452Y-71119501D01*
X86529225Y-71117105D01*
X86528665Y-71105140D01*
X86528702Y-71057082D01*
X86535696Y-61829107D01*
X105522310Y-61829107D01*
X105542272Y-62019035D01*
X105601287Y-62200663D01*
X105696774Y-62366051D01*
X105824561Y-62507973D01*
X105979062Y-62620225D01*
X105985090Y-62622909D01*
X105985092Y-62622910D01*
X106147495Y-62695216D01*
X106153526Y-62697901D01*
X106246926Y-62717754D01*
X106333870Y-62736235D01*
X106333875Y-62736235D01*
X106340327Y-62737607D01*
X106531301Y-62737607D01*
X106537753Y-62736235D01*
X106537758Y-62736235D01*
X106624702Y-62717754D01*
X106718102Y-62697901D01*
X106724133Y-62695216D01*
X106886536Y-62622910D01*
X106886538Y-62622909D01*
X106892566Y-62620225D01*
X107047067Y-62507973D01*
X107174854Y-62366051D01*
X107270341Y-62200663D01*
X107329356Y-62019035D01*
X107349318Y-61829107D01*
X107329356Y-61639179D01*
X107270341Y-61457551D01*
X107257813Y-61435851D01*
X107178155Y-61297881D01*
X107174854Y-61292163D01*
X107150071Y-61264638D01*
X107051489Y-61155152D01*
X107051488Y-61155151D01*
X107047067Y-61150241D01*
X106892566Y-61037989D01*
X106886538Y-61035305D01*
X106886536Y-61035304D01*
X106724133Y-60962998D01*
X106724132Y-60962998D01*
X106718102Y-60960313D01*
X106624701Y-60940460D01*
X106537758Y-60921979D01*
X106537753Y-60921979D01*
X106531301Y-60920607D01*
X106340327Y-60920607D01*
X106333875Y-60921979D01*
X106333870Y-60921979D01*
X106246927Y-60940460D01*
X106153526Y-60960313D01*
X106147496Y-60962998D01*
X106147495Y-60962998D01*
X105985092Y-61035304D01*
X105985090Y-61035305D01*
X105979062Y-61037989D01*
X105824561Y-61150241D01*
X105820140Y-61155151D01*
X105820139Y-61155152D01*
X105721558Y-61264638D01*
X105696774Y-61292163D01*
X105693473Y-61297881D01*
X105613816Y-61435851D01*
X105601287Y-61457551D01*
X105542272Y-61639179D01*
X105522310Y-61829107D01*
X86535696Y-61829107D01*
X86536623Y-60606157D01*
X95818346Y-60606157D01*
X95819033Y-60613164D01*
X95819033Y-60613167D01*
X95827349Y-60697977D01*
X95836151Y-60787748D01*
X95893745Y-60960883D01*
X95988266Y-61116955D01*
X95993157Y-61122020D01*
X95993158Y-61122021D01*
X96064092Y-61195475D01*
X96115015Y-61248207D01*
X96120907Y-61252062D01*
X96120911Y-61252066D01*
X96261797Y-61344259D01*
X96267693Y-61348117D01*
X96274297Y-61350573D01*
X96274299Y-61350574D01*
X96353203Y-61379918D01*
X96438712Y-61411719D01*
X96619572Y-61435851D01*
X96626583Y-61435213D01*
X96626587Y-61435213D01*
X96766292Y-61422498D01*
X96801283Y-61419313D01*
X96807985Y-61417135D01*
X96807987Y-61417135D01*
X96968117Y-61365106D01*
X96968120Y-61365105D01*
X96974816Y-61362929D01*
X96999664Y-61348117D01*
X97125489Y-61273111D01*
X97125492Y-61273109D01*
X97131544Y-61269501D01*
X97256779Y-61150241D01*
X97258574Y-61148532D01*
X97258576Y-61148529D01*
X97263678Y-61143671D01*
X97364651Y-60991694D01*
X97391133Y-60921979D01*
X97426945Y-60827706D01*
X97426946Y-60827701D01*
X97429445Y-60821123D01*
X97446514Y-60699673D01*
X97454288Y-60644359D01*
X97454288Y-60644354D01*
X97454839Y-60640436D01*
X97455158Y-60617584D01*
X97434819Y-60436259D01*
X97413061Y-60373777D01*
X97377131Y-60270602D01*
X97374813Y-60263945D01*
X97278123Y-60109208D01*
X97251127Y-60082023D01*
X97883510Y-60082023D01*
X97899714Y-60228799D01*
X97950461Y-60367473D01*
X97954697Y-60373776D01*
X97954697Y-60373777D01*
X97984761Y-60418516D01*
X98032822Y-60490039D01*
X98142042Y-60589421D01*
X98271815Y-60659882D01*
X98414649Y-60697354D01*
X98491436Y-60698560D01*
X98554700Y-60699554D01*
X98554703Y-60699554D01*
X98562298Y-60699673D01*
X98614093Y-60687810D01*
X98698836Y-60668402D01*
X98698840Y-60668401D01*
X98706239Y-60666706D01*
X98758472Y-60640436D01*
X98831378Y-60603769D01*
X98831381Y-60603767D01*
X98838161Y-60600357D01*
X98950448Y-60504454D01*
X99036618Y-60384536D01*
X99085096Y-60263945D01*
X99088862Y-60254577D01*
X99088863Y-60254575D01*
X99091697Y-60247524D01*
X99111382Y-60109208D01*
X99111922Y-60105414D01*
X99111922Y-60105411D01*
X99112503Y-60101330D01*
X99112638Y-60088459D01*
X99094898Y-59941861D01*
X99042701Y-59803726D01*
X98959061Y-59682029D01*
X98848807Y-59583796D01*
X98841923Y-59580151D01*
X98725014Y-59518251D01*
X98725012Y-59518250D01*
X98718303Y-59514698D01*
X98671397Y-59502916D01*
X98582455Y-59480575D01*
X98582451Y-59480575D01*
X98575084Y-59478724D01*
X98567485Y-59478684D01*
X98567483Y-59478684D01*
X98505855Y-59478362D01*
X98427419Y-59477951D01*
X98420039Y-59479723D01*
X98420037Y-59479723D01*
X98291210Y-59510651D01*
X98291206Y-59510652D01*
X98283831Y-59512423D01*
X98152611Y-59580151D01*
X98041334Y-59677224D01*
X97956425Y-59798038D01*
X97953666Y-59805113D01*
X97953665Y-59805116D01*
X97922228Y-59885749D01*
X97902784Y-59935619D01*
X97901792Y-59943152D01*
X97901792Y-59943153D01*
X97894085Y-60001699D01*
X97883510Y-60082023D01*
X97251127Y-60082023D01*
X97213559Y-60044192D01*
X97154516Y-59984735D01*
X97154512Y-59984732D01*
X97149553Y-59979738D01*
X97138369Y-59972640D01*
X97068876Y-59928539D01*
X96995495Y-59881970D01*
X96888802Y-59843978D01*
X96830239Y-59823124D01*
X96830237Y-59823123D01*
X96823605Y-59820762D01*
X96816619Y-59819929D01*
X96816615Y-59819928D01*
X96680735Y-59803726D01*
X96642426Y-59799158D01*
X96635423Y-59799894D01*
X96635422Y-59799894D01*
X96598963Y-59803726D01*
X96460963Y-59818230D01*
X96454295Y-59820500D01*
X96294902Y-59874762D01*
X96294899Y-59874763D01*
X96288235Y-59877032D01*
X96193003Y-59935619D01*
X96170601Y-59949401D01*
X96132826Y-59972640D01*
X96127793Y-59977569D01*
X96014556Y-60088459D01*
X96002462Y-60100302D01*
X95903620Y-60253674D01*
X95901211Y-60260294D01*
X95901209Y-60260297D01*
X95844706Y-60415538D01*
X95841214Y-60425133D01*
X95818346Y-60606157D01*
X86536623Y-60606157D01*
X86538434Y-58216694D01*
X96337032Y-58216694D01*
X96337719Y-58223701D01*
X96337719Y-58223704D01*
X96343313Y-58280755D01*
X96354837Y-58398285D01*
X96412431Y-58571420D01*
X96416080Y-58577445D01*
X96500775Y-58717292D01*
X96506952Y-58727492D01*
X96511843Y-58732557D01*
X96511844Y-58732558D01*
X96582778Y-58806012D01*
X96633701Y-58858744D01*
X96639593Y-58862599D01*
X96639597Y-58862603D01*
X96696063Y-58899553D01*
X96786379Y-58958654D01*
X96792983Y-58961110D01*
X96792985Y-58961111D01*
X96871888Y-58990455D01*
X96957398Y-59022256D01*
X97138258Y-59046388D01*
X97145269Y-59045750D01*
X97145273Y-59045750D01*
X97284978Y-59033035D01*
X97319969Y-59029850D01*
X97326671Y-59027672D01*
X97326673Y-59027672D01*
X97486803Y-58975643D01*
X97486806Y-58975642D01*
X97493502Y-58973466D01*
X97518350Y-58958654D01*
X97644175Y-58883648D01*
X97644178Y-58883646D01*
X97650230Y-58880038D01*
X97773155Y-58762978D01*
X97777260Y-58759069D01*
X97777262Y-58759066D01*
X97782364Y-58754208D01*
X97883337Y-58602231D01*
X97930923Y-58476961D01*
X100203137Y-58476961D01*
X100223099Y-58666889D01*
X100282114Y-58848517D01*
X100285417Y-58854239D01*
X100285418Y-58854240D01*
X100297505Y-58875175D01*
X100377601Y-59013905D01*
X100382019Y-59018812D01*
X100382020Y-59018813D01*
X100448993Y-59093194D01*
X100505388Y-59155827D01*
X100659889Y-59268079D01*
X100665917Y-59270763D01*
X100665919Y-59270764D01*
X100817840Y-59338403D01*
X100834353Y-59345755D01*
X100927753Y-59365608D01*
X101014697Y-59384089D01*
X101014702Y-59384089D01*
X101021154Y-59385461D01*
X101212128Y-59385461D01*
X101218580Y-59384089D01*
X101218585Y-59384089D01*
X101305529Y-59365608D01*
X101398929Y-59345755D01*
X101415442Y-59338403D01*
X101567363Y-59270764D01*
X101567365Y-59270763D01*
X101573393Y-59268079D01*
X101631743Y-59225685D01*
X101698608Y-59201828D01*
X101767759Y-59217908D01*
X101817240Y-59268821D01*
X101831340Y-59338403D01*
X101825635Y-59366558D01*
X101803562Y-59434492D01*
X101802872Y-59441053D01*
X101802872Y-59441055D01*
X101795132Y-59514698D01*
X101783600Y-59624420D01*
X101784290Y-59630985D01*
X101802592Y-59805116D01*
X101803562Y-59814348D01*
X101862577Y-59995976D01*
X101958064Y-60161364D01*
X101962482Y-60166271D01*
X101962483Y-60166272D01*
X102050428Y-60263945D01*
X102085851Y-60303286D01*
X102240352Y-60415538D01*
X102246380Y-60418222D01*
X102246382Y-60418223D01*
X102408785Y-60490529D01*
X102414816Y-60493214D01*
X102490913Y-60509389D01*
X102595160Y-60531548D01*
X102595165Y-60531548D01*
X102601617Y-60532920D01*
X102792591Y-60532920D01*
X102799043Y-60531548D01*
X102799048Y-60531548D01*
X102903295Y-60509389D01*
X102979392Y-60493214D01*
X102985423Y-60490529D01*
X103147826Y-60418223D01*
X103147828Y-60418222D01*
X103153856Y-60415538D01*
X103308357Y-60303286D01*
X103343780Y-60263945D01*
X103431725Y-60166272D01*
X103431726Y-60166271D01*
X103436144Y-60161364D01*
X103531631Y-59995976D01*
X103590646Y-59814348D01*
X103591617Y-59805116D01*
X103609918Y-59630985D01*
X103610608Y-59624420D01*
X103599076Y-59514698D01*
X103591336Y-59441055D01*
X103591336Y-59441053D01*
X103590646Y-59434492D01*
X103531631Y-59252864D01*
X103436144Y-59087476D01*
X103384258Y-59029850D01*
X103312779Y-58950465D01*
X103312778Y-58950464D01*
X103308357Y-58945554D01*
X103153856Y-58833302D01*
X103147828Y-58830618D01*
X103147826Y-58830617D01*
X102985423Y-58758311D01*
X102985422Y-58758311D01*
X102979392Y-58755626D01*
X102881522Y-58734823D01*
X102799048Y-58717292D01*
X102799043Y-58717292D01*
X102792591Y-58715920D01*
X102601617Y-58715920D01*
X102595165Y-58717292D01*
X102595160Y-58717292D01*
X102512686Y-58734823D01*
X102414816Y-58755626D01*
X102408786Y-58758311D01*
X102408785Y-58758311D01*
X102246382Y-58830617D01*
X102246380Y-58830618D01*
X102240352Y-58833302D01*
X102182002Y-58875696D01*
X102115137Y-58899553D01*
X102045986Y-58883473D01*
X101996505Y-58832560D01*
X101982405Y-58762978D01*
X101988110Y-58734823D01*
X102008143Y-58673167D01*
X102010183Y-58666889D01*
X102030145Y-58476961D01*
X102010183Y-58287033D01*
X101951168Y-58105405D01*
X101855681Y-57940017D01*
X101793389Y-57870834D01*
X101732316Y-57803006D01*
X101732315Y-57803005D01*
X101727894Y-57798095D01*
X101607797Y-57710839D01*
X101578735Y-57689724D01*
X101578734Y-57689723D01*
X101573393Y-57685843D01*
X101567365Y-57683159D01*
X101567363Y-57683158D01*
X101412794Y-57614340D01*
X112487052Y-57614340D01*
X112507014Y-57804268D01*
X112566029Y-57985896D01*
X112661516Y-58151284D01*
X112665934Y-58156191D01*
X112665935Y-58156192D01*
X112778092Y-58280755D01*
X112789303Y-58293206D01*
X112943804Y-58405458D01*
X112949832Y-58408142D01*
X112949834Y-58408143D01*
X113104403Y-58476961D01*
X113118268Y-58483134D01*
X113211668Y-58502987D01*
X113298612Y-58521468D01*
X113298617Y-58521468D01*
X113305069Y-58522840D01*
X113496043Y-58522840D01*
X113502495Y-58521468D01*
X113502500Y-58521468D01*
X113589444Y-58502987D01*
X113682844Y-58483134D01*
X113696709Y-58476961D01*
X113851278Y-58408143D01*
X113851280Y-58408142D01*
X113857308Y-58405458D01*
X114011809Y-58293206D01*
X114023020Y-58280755D01*
X114135177Y-58156192D01*
X114135178Y-58156191D01*
X114139596Y-58151284D01*
X114235083Y-57985896D01*
X114294098Y-57804268D01*
X114314060Y-57614340D01*
X114301124Y-57491260D01*
X114294788Y-57430975D01*
X114294788Y-57430973D01*
X114294098Y-57424412D01*
X114235083Y-57242784D01*
X114139596Y-57077396D01*
X114011809Y-56935474D01*
X113857308Y-56823222D01*
X113851280Y-56820538D01*
X113851278Y-56820537D01*
X113688875Y-56748231D01*
X113688874Y-56748231D01*
X113682844Y-56745546D01*
X113589444Y-56725693D01*
X113502500Y-56707212D01*
X113502495Y-56707212D01*
X113496043Y-56705840D01*
X113305069Y-56705840D01*
X113298617Y-56707212D01*
X113298612Y-56707212D01*
X113211668Y-56725693D01*
X113118268Y-56745546D01*
X113112238Y-56748231D01*
X113112237Y-56748231D01*
X112949834Y-56820537D01*
X112949832Y-56820538D01*
X112943804Y-56823222D01*
X112789303Y-56935474D01*
X112661516Y-57077396D01*
X112566029Y-57242784D01*
X112507014Y-57424412D01*
X112506324Y-57430973D01*
X112506324Y-57430975D01*
X112499988Y-57491260D01*
X112487052Y-57614340D01*
X101412794Y-57614340D01*
X101404960Y-57610852D01*
X101404959Y-57610852D01*
X101398929Y-57608167D01*
X101304550Y-57588106D01*
X101218585Y-57569833D01*
X101218580Y-57569833D01*
X101212128Y-57568461D01*
X101021154Y-57568461D01*
X101014702Y-57569833D01*
X101014697Y-57569833D01*
X100928732Y-57588106D01*
X100834353Y-57608167D01*
X100828323Y-57610852D01*
X100828322Y-57610852D01*
X100665919Y-57683158D01*
X100665917Y-57683159D01*
X100659889Y-57685843D01*
X100654548Y-57689723D01*
X100654547Y-57689724D01*
X100625485Y-57710839D01*
X100505388Y-57798095D01*
X100500967Y-57803005D01*
X100500966Y-57803006D01*
X100439894Y-57870834D01*
X100377601Y-57940017D01*
X100282114Y-58105405D01*
X100223099Y-58287033D01*
X100203137Y-58476961D01*
X97930923Y-58476961D01*
X97933417Y-58470396D01*
X97945631Y-58438243D01*
X97945632Y-58438238D01*
X97948131Y-58431660D01*
X97951436Y-58408143D01*
X97972974Y-58254896D01*
X97972974Y-58254891D01*
X97973525Y-58250973D01*
X97973844Y-58228121D01*
X97953505Y-58046796D01*
X97893499Y-57874482D01*
X97796809Y-57719745D01*
X97692137Y-57614340D01*
X97673202Y-57595272D01*
X97673198Y-57595269D01*
X97668239Y-57590275D01*
X97657055Y-57583177D01*
X97608849Y-57552585D01*
X97514181Y-57492507D01*
X97407488Y-57454515D01*
X97348925Y-57433661D01*
X97348923Y-57433660D01*
X97342291Y-57431299D01*
X97335305Y-57430466D01*
X97335301Y-57430465D01*
X97205724Y-57415015D01*
X97161112Y-57409695D01*
X97154109Y-57410431D01*
X97154108Y-57410431D01*
X97107873Y-57415291D01*
X96979649Y-57428767D01*
X96972981Y-57431037D01*
X96813588Y-57485299D01*
X96813585Y-57485300D01*
X96806921Y-57487569D01*
X96792752Y-57496286D01*
X96675433Y-57568461D01*
X96651512Y-57583177D01*
X96521148Y-57710839D01*
X96422306Y-57864211D01*
X96419897Y-57870831D01*
X96419895Y-57870834D01*
X96378016Y-57985896D01*
X96359900Y-58035670D01*
X96337032Y-58216694D01*
X86538434Y-58216694D01*
X86544019Y-50847812D01*
X86545055Y-49480482D01*
X92715414Y-49480482D01*
X92728273Y-49703502D01*
X92729410Y-49708548D01*
X92729411Y-49708554D01*
X92750438Y-49801856D01*
X92777385Y-49921426D01*
X92861429Y-50128403D01*
X92898848Y-50189465D01*
X92975454Y-50314475D01*
X92978150Y-50318875D01*
X93124413Y-50487725D01*
X93296289Y-50630419D01*
X93489163Y-50743125D01*
X93697855Y-50822817D01*
X93702923Y-50823848D01*
X93702926Y-50823849D01*
X93798025Y-50843197D01*
X93916760Y-50867354D01*
X93921935Y-50867544D01*
X93921937Y-50867544D01*
X94134836Y-50875351D01*
X94134840Y-50875351D01*
X94140000Y-50875540D01*
X94145120Y-50874884D01*
X94145122Y-50874884D01*
X94356451Y-50847812D01*
X94356452Y-50847812D01*
X94361579Y-50847155D01*
X94366529Y-50845670D01*
X94570592Y-50784448D01*
X94570597Y-50784446D01*
X94575547Y-50782961D01*
X94776157Y-50684683D01*
X94958023Y-50554960D01*
X95116259Y-50397276D01*
X95175757Y-50314476D01*
X95246616Y-50215864D01*
X95247803Y-50216717D01*
X95295123Y-50173149D01*
X95365060Y-50160932D01*
X95430501Y-50188465D01*
X95458329Y-50220298D01*
X95515857Y-50314175D01*
X95521940Y-50322486D01*
X95661376Y-50483454D01*
X95668743Y-50490670D01*
X95832597Y-50626703D01*
X95841044Y-50632618D01*
X96024919Y-50740066D01*
X96034205Y-50744516D01*
X96233164Y-50820490D01*
X96243062Y-50823366D01*
X96346413Y-50844393D01*
X96360462Y-50843197D01*
X96364163Y-50832852D01*
X96364163Y-50832304D01*
X96872163Y-50832304D01*
X96876227Y-50846146D01*
X96889641Y-50848180D01*
X96896347Y-50847321D01*
X96906425Y-50845179D01*
X97110418Y-50783978D01*
X97120005Y-50780220D01*
X97311258Y-50686526D01*
X97320108Y-50681251D01*
X97493491Y-50557579D01*
X97501363Y-50550926D01*
X97652215Y-50400599D01*
X97658893Y-50392752D01*
X97786185Y-50215606D01*
X97787442Y-50216509D01*
X97834536Y-50173149D01*
X97904474Y-50160932D01*
X97969914Y-50188465D01*
X97997742Y-50220298D01*
X98058150Y-50318875D01*
X98204413Y-50487725D01*
X98376289Y-50630419D01*
X98569163Y-50743125D01*
X98777855Y-50822817D01*
X98782923Y-50823848D01*
X98782926Y-50823849D01*
X98878025Y-50843197D01*
X98996760Y-50867354D01*
X99001935Y-50867544D01*
X99001937Y-50867544D01*
X99214836Y-50875351D01*
X99214840Y-50875351D01*
X99220000Y-50875540D01*
X99225120Y-50874884D01*
X99225122Y-50874884D01*
X99436451Y-50847812D01*
X99436452Y-50847812D01*
X99441579Y-50847155D01*
X99446529Y-50845670D01*
X99650592Y-50784448D01*
X99650597Y-50784446D01*
X99655547Y-50782961D01*
X99856157Y-50684683D01*
X100038023Y-50554960D01*
X100196259Y-50397276D01*
X100255757Y-50314476D01*
X100326616Y-50215864D01*
X100327939Y-50216815D01*
X100374808Y-50173644D01*
X100444743Y-50161412D01*
X100510189Y-50188931D01*
X100538038Y-50220781D01*
X100598150Y-50318875D01*
X100744413Y-50487725D01*
X100916289Y-50630419D01*
X101109163Y-50743125D01*
X101317855Y-50822817D01*
X101322923Y-50823848D01*
X101322926Y-50823849D01*
X101418025Y-50843197D01*
X101536760Y-50867354D01*
X101541935Y-50867544D01*
X101541937Y-50867544D01*
X101754836Y-50875351D01*
X101754840Y-50875351D01*
X101760000Y-50875540D01*
X101765120Y-50874884D01*
X101765122Y-50874884D01*
X101976451Y-50847812D01*
X101976452Y-50847812D01*
X101981579Y-50847155D01*
X101986529Y-50845670D01*
X102190592Y-50784448D01*
X102190597Y-50784446D01*
X102195547Y-50782961D01*
X102396157Y-50684683D01*
X102578023Y-50554960D01*
X102736259Y-50397276D01*
X102795757Y-50314476D01*
X102866616Y-50215864D01*
X102867939Y-50216815D01*
X102914808Y-50173644D01*
X102984743Y-50161412D01*
X103050189Y-50188931D01*
X103078038Y-50220781D01*
X103138150Y-50318875D01*
X103284413Y-50487725D01*
X103456289Y-50630419D01*
X103649163Y-50743125D01*
X103857855Y-50822817D01*
X103862923Y-50823848D01*
X103862926Y-50823849D01*
X103958025Y-50843197D01*
X104076760Y-50867354D01*
X104081935Y-50867544D01*
X104081937Y-50867544D01*
X104294836Y-50875351D01*
X104294840Y-50875351D01*
X104300000Y-50875540D01*
X104305120Y-50874884D01*
X104305122Y-50874884D01*
X104516451Y-50847812D01*
X104516452Y-50847812D01*
X104521579Y-50847155D01*
X104526529Y-50845670D01*
X104730592Y-50784448D01*
X104730597Y-50784446D01*
X104735547Y-50782961D01*
X104936157Y-50684683D01*
X105118023Y-50554960D01*
X105226254Y-50447106D01*
X105288625Y-50413191D01*
X105359431Y-50418379D01*
X105416193Y-50461025D01*
X105433175Y-50492128D01*
X105477548Y-50610492D01*
X105564902Y-50727048D01*
X105681458Y-50814402D01*
X105817847Y-50865532D01*
X105880029Y-50872287D01*
X107676297Y-50872287D01*
X107738479Y-50865532D01*
X107874868Y-50814402D01*
X107991424Y-50727048D01*
X108078778Y-50610492D01*
X108129908Y-50474103D01*
X108136663Y-50411921D01*
X108136663Y-48615653D01*
X108129908Y-48553471D01*
X108078778Y-48417082D01*
X107991424Y-48300526D01*
X107874868Y-48213172D01*
X107738479Y-48162042D01*
X107676297Y-48155287D01*
X105880029Y-48155287D01*
X105817847Y-48162042D01*
X105681458Y-48213172D01*
X105564902Y-48300526D01*
X105477548Y-48417082D01*
X105474396Y-48425490D01*
X105433082Y-48535694D01*
X105390440Y-48592458D01*
X105323879Y-48617158D01*
X105254530Y-48601950D01*
X105221906Y-48576263D01*
X105171314Y-48520662D01*
X105171305Y-48520653D01*
X105167833Y-48516838D01*
X105163782Y-48513639D01*
X105163778Y-48513635D01*
X104996577Y-48381587D01*
X104996573Y-48381585D01*
X104992522Y-48378385D01*
X104956191Y-48358329D01*
X104940299Y-48349556D01*
X104796952Y-48270425D01*
X104792083Y-48268701D01*
X104792079Y-48268699D01*
X104591250Y-48197582D01*
X104591246Y-48197581D01*
X104586375Y-48195856D01*
X104581282Y-48194949D01*
X104581279Y-48194948D01*
X104371536Y-48157587D01*
X104371530Y-48157586D01*
X104366447Y-48156681D01*
X104292615Y-48155779D01*
X104148244Y-48154015D01*
X104148242Y-48154015D01*
X104143074Y-48153952D01*
X103922254Y-48187742D01*
X103709919Y-48257144D01*
X103511770Y-48360294D01*
X103507637Y-48363397D01*
X103507634Y-48363399D01*
X103337263Y-48491317D01*
X103333128Y-48494422D01*
X103307704Y-48521027D01*
X103239443Y-48592458D01*
X103178792Y-48655925D01*
X103071364Y-48813408D01*
X103016456Y-48858408D01*
X102945931Y-48866579D01*
X102882184Y-48835325D01*
X102861487Y-48810841D01*
X102780985Y-48686404D01*
X102780983Y-48686401D01*
X102778177Y-48682064D01*
X102627833Y-48516838D01*
X102623782Y-48513639D01*
X102623778Y-48513635D01*
X102456577Y-48381587D01*
X102456573Y-48381585D01*
X102452522Y-48378385D01*
X102416191Y-48358329D01*
X102400299Y-48349556D01*
X102256952Y-48270425D01*
X102252083Y-48268701D01*
X102252079Y-48268699D01*
X102051250Y-48197582D01*
X102051246Y-48197581D01*
X102046375Y-48195856D01*
X102041282Y-48194949D01*
X102041279Y-48194948D01*
X101831536Y-48157587D01*
X101831530Y-48157586D01*
X101826447Y-48156681D01*
X101752615Y-48155779D01*
X101608244Y-48154015D01*
X101608242Y-48154015D01*
X101603074Y-48153952D01*
X101382254Y-48187742D01*
X101169919Y-48257144D01*
X100971770Y-48360294D01*
X100967637Y-48363397D01*
X100967634Y-48363399D01*
X100797263Y-48491317D01*
X100793128Y-48494422D01*
X100767704Y-48521027D01*
X100699443Y-48592458D01*
X100638792Y-48655925D01*
X100531364Y-48813408D01*
X100476456Y-48858408D01*
X100405931Y-48866579D01*
X100342184Y-48835325D01*
X100321487Y-48810841D01*
X100240985Y-48686404D01*
X100240983Y-48686401D01*
X100238177Y-48682064D01*
X100087833Y-48516838D01*
X100083782Y-48513639D01*
X100083778Y-48513635D01*
X99916577Y-48381587D01*
X99916573Y-48381585D01*
X99912522Y-48378385D01*
X99876191Y-48358329D01*
X99860299Y-48349556D01*
X99716952Y-48270425D01*
X99712083Y-48268701D01*
X99712079Y-48268699D01*
X99511250Y-48197582D01*
X99511246Y-48197581D01*
X99506375Y-48195856D01*
X99501282Y-48194949D01*
X99501279Y-48194948D01*
X99291536Y-48157587D01*
X99291530Y-48157586D01*
X99286447Y-48156681D01*
X99212615Y-48155779D01*
X99068244Y-48154015D01*
X99068242Y-48154015D01*
X99063074Y-48153952D01*
X98842254Y-48187742D01*
X98629919Y-48257144D01*
X98431770Y-48360294D01*
X98427637Y-48363397D01*
X98427634Y-48363399D01*
X98257263Y-48491317D01*
X98253128Y-48494422D01*
X98227704Y-48521027D01*
X98159443Y-48592458D01*
X98098792Y-48655925D01*
X97991367Y-48813405D01*
X97991061Y-48813853D01*
X97936150Y-48858856D01*
X97865625Y-48867027D01*
X97801878Y-48835773D01*
X97781181Y-48811289D01*
X97700589Y-48686713D01*
X97694299Y-48678544D01*
X97550969Y-48521027D01*
X97543436Y-48514002D01*
X97376302Y-48382009D01*
X97367715Y-48376304D01*
X97181280Y-48273386D01*
X97171868Y-48269156D01*
X96971122Y-48198067D01*
X96961151Y-48195433D01*
X96890000Y-48182759D01*
X96876703Y-48184219D01*
X96872163Y-48198776D01*
X96872163Y-50832304D01*
X96364163Y-50832304D01*
X96364163Y-48196889D01*
X96360245Y-48183545D01*
X96345969Y-48181558D01*
X96307487Y-48187447D01*
X96297451Y-48189838D01*
X96095031Y-48255999D01*
X96085522Y-48259996D01*
X95896626Y-48358329D01*
X95887901Y-48363823D01*
X95717596Y-48491692D01*
X95709889Y-48498535D01*
X95562753Y-48652504D01*
X95556272Y-48660509D01*
X95451661Y-48813861D01*
X95396750Y-48858863D01*
X95326225Y-48867034D01*
X95262478Y-48835780D01*
X95241781Y-48811296D01*
X95160985Y-48686404D01*
X95160983Y-48686401D01*
X95158177Y-48682064D01*
X95007833Y-48516838D01*
X95003782Y-48513639D01*
X95003778Y-48513635D01*
X94836577Y-48381587D01*
X94836573Y-48381585D01*
X94832522Y-48378385D01*
X94796191Y-48358329D01*
X94780299Y-48349556D01*
X94636952Y-48270425D01*
X94632083Y-48268701D01*
X94632079Y-48268699D01*
X94431250Y-48197582D01*
X94431246Y-48197581D01*
X94426375Y-48195856D01*
X94421282Y-48194949D01*
X94421279Y-48194948D01*
X94211536Y-48157587D01*
X94211530Y-48157586D01*
X94206447Y-48156681D01*
X94132615Y-48155779D01*
X93988244Y-48154015D01*
X93988242Y-48154015D01*
X93983074Y-48153952D01*
X93762254Y-48187742D01*
X93549919Y-48257144D01*
X93351770Y-48360294D01*
X93347637Y-48363397D01*
X93347634Y-48363399D01*
X93177263Y-48491317D01*
X93173128Y-48494422D01*
X93147704Y-48521027D01*
X93079443Y-48592458D01*
X93018792Y-48655925D01*
X92892906Y-48840467D01*
X92798851Y-49043092D01*
X92739152Y-49258357D01*
X92715414Y-49480482D01*
X86545055Y-49480482D01*
X86547106Y-46775436D01*
X86548203Y-46758943D01*
X86551159Y-46736690D01*
X86551159Y-46736685D01*
X86552340Y-46727793D01*
X86550626Y-46716635D01*
X86549514Y-46688111D01*
X86558286Y-46570698D01*
X86562451Y-46546657D01*
X86599355Y-46412540D01*
X86608075Y-46389753D01*
X86615027Y-46375807D01*
X86670139Y-46265259D01*
X86683082Y-46244589D01*
X86767979Y-46134390D01*
X86784671Y-46116595D01*
X86889201Y-46024837D01*
X86909010Y-46010591D01*
X87029279Y-45940692D01*
X87051461Y-45930533D01*
X87182942Y-45885128D01*
X87206668Y-45879434D01*
X87316809Y-45864075D01*
X87332645Y-45863869D01*
X87332624Y-45863160D01*
X87341594Y-45862897D01*
X87350516Y-45863908D01*
X87368812Y-45860737D01*
X87390286Y-45858887D01*
X103760493Y-45854914D01*
X120926604Y-45850748D01*
X120931622Y-45850847D01*
X120983798Y-45852914D01*
X120983801Y-45852914D01*
X120992769Y-45853269D01*
X121001478Y-45851093D01*
X121001483Y-45851092D01*
X121004205Y-45850412D01*
X121032083Y-45846680D01*
X121152018Y-45844137D01*
X121175525Y-45845844D01*
G37*
%TD.AperFunction*%
%TD*%
M02*
