%TF.GenerationSoftware,KiCad,Pcbnew,(6.0.7)*%
%TF.CreationDate,2023-01-24T00:42:55-08:00*%
%TF.ProjectId,Sensors,53656e73-6f72-4732-9e6b-696361645f70,rev?*%
%TF.SameCoordinates,Original*%
%TF.FileFunction,Copper,L3,Inr*%
%TF.FilePolarity,Positive*%
%FSLAX46Y46*%
G04 Gerber Fmt 4.6, Leading zero omitted, Abs format (unit mm)*
G04 Created by KiCad (PCBNEW (6.0.7)) date 2023-01-24 00:42:55*
%MOMM*%
%LPD*%
G01*
G04 APERTURE LIST*
%TA.AperFunction,ComponentPad*%
%ADD10R,1.700000X1.700000*%
%TD*%
%TA.AperFunction,ComponentPad*%
%ADD11O,1.700000X1.700000*%
%TD*%
%TA.AperFunction,ViaPad*%
%ADD12C,0.800000*%
%TD*%
%TA.AperFunction,ViaPad*%
%ADD13C,0.609600*%
%TD*%
%TA.AperFunction,ViaPad*%
%ADD14C,0.203200*%
%TD*%
G04 APERTURE END LIST*
D10*
%TO.N,Net-(U01-Pad13)*%
%TO.C,J1*%
X106778163Y-49513787D03*
D11*
%TO.N,Net-(U01-Pad14)*%
X104238163Y-49513787D03*
%TO.N,Net-(U01-Pad3)*%
X101698163Y-49513787D03*
%TO.N,Net-(U01-Pad2)*%
X99158163Y-49513787D03*
%TO.N,GND*%
X96618163Y-49513787D03*
%TO.N,3.3V*%
X94078163Y-49513787D03*
%TD*%
D12*
%TO.N,Net-(U01-Pad3)*%
X102697104Y-59624420D03*
%TO.N,Net-(U01-Pad2)*%
X101116641Y-58476961D03*
%TO.N,GND*%
X104255917Y-56896498D03*
%TO.N,3.3V*%
X106435814Y-61829107D03*
X113400556Y-57614340D03*
%TO.N,GND*%
X111631856Y-61857974D03*
D13*
%TO.N,3.3V*%
X96636712Y-60617584D03*
X97155398Y-58228121D03*
%TO.N,GND*%
X99826028Y-61033766D03*
X96535725Y-59454438D03*
D14*
%TO.N,Net-(U01-Pad2)*%
X98498057Y-60088459D03*
%TD*%
%TA.AperFunction,Conductor*%
%TO.N,3.3V*%
G36*
X121175525Y-45845844D02*
G01*
X121315373Y-45869293D01*
X121338150Y-45875347D01*
X121471199Y-45924436D01*
X121492442Y-45934623D01*
X121607764Y-46003874D01*
X121614015Y-46007628D01*
X121632998Y-46021599D01*
X121738845Y-46115968D01*
X121754893Y-46133229D01*
X121841314Y-46245659D01*
X121853867Y-46265608D01*
X121917835Y-46392163D01*
X121926450Y-46414090D01*
X121965736Y-46550364D01*
X121970115Y-46573512D01*
X121980655Y-46686094D01*
X121980155Y-46702355D01*
X121980735Y-46702362D01*
X121980622Y-46711340D01*
X121979238Y-46720209D01*
X121980399Y-46729109D01*
X121980399Y-46729110D01*
X121983330Y-46751582D01*
X121984388Y-46767997D01*
X121961940Y-70774387D01*
X121960649Y-70785662D01*
X121961322Y-70785720D01*
X121960554Y-70794665D01*
X121958527Y-70803407D01*
X121959483Y-70820280D01*
X121958517Y-70844516D01*
X121930452Y-71049239D01*
X121927325Y-71064742D01*
X121866885Y-71290272D01*
X121861841Y-71305261D01*
X121773619Y-71521457D01*
X121766736Y-71535697D01*
X121652129Y-71739131D01*
X121643517Y-71752396D01*
X121504323Y-71939876D01*
X121494117Y-71951957D01*
X121332539Y-72120518D01*
X121320899Y-72131226D01*
X121139474Y-72278221D01*
X121126590Y-72287384D01*
X120928169Y-72410500D01*
X120914247Y-72417971D01*
X120873754Y-72436529D01*
X120701969Y-72515258D01*
X120687207Y-72520931D01*
X120522208Y-72572720D01*
X120484554Y-72578503D01*
X107926426Y-72586182D01*
X88185368Y-72598254D01*
X88163751Y-72596399D01*
X88145795Y-72593283D01*
X88130665Y-72594995D01*
X88105216Y-72595287D01*
X87910707Y-72577792D01*
X87892742Y-72574856D01*
X87678244Y-72523637D01*
X87660881Y-72518137D01*
X87456017Y-72436529D01*
X87439627Y-72428583D01*
X87248681Y-72318296D01*
X87233608Y-72308070D01*
X87060555Y-72171401D01*
X87047113Y-72159108D01*
X87020738Y-72131226D01*
X86895568Y-71998908D01*
X86884040Y-71984805D01*
X86757183Y-71804439D01*
X86747808Y-71788821D01*
X86648280Y-71592041D01*
X86641256Y-71575236D01*
X86571142Y-71366166D01*
X86566614Y-71348523D01*
X86533109Y-71163226D01*
X86531988Y-71146135D01*
X86531972Y-71146137D01*
X86531127Y-71137204D01*
X86531557Y-71128233D01*
X86529452Y-71119501D01*
X86529225Y-71117105D01*
X86528665Y-71105140D01*
X86528702Y-71057082D01*
X86535675Y-61857974D01*
X110718352Y-61857974D01*
X110738314Y-62047902D01*
X110797329Y-62229530D01*
X110892816Y-62394918D01*
X111020603Y-62536840D01*
X111175104Y-62649092D01*
X111181132Y-62651776D01*
X111181134Y-62651777D01*
X111343537Y-62724083D01*
X111349568Y-62726768D01*
X111442969Y-62746621D01*
X111529912Y-62765102D01*
X111529917Y-62765102D01*
X111536369Y-62766474D01*
X111727343Y-62766474D01*
X111733795Y-62765102D01*
X111733800Y-62765102D01*
X111820743Y-62746621D01*
X111914144Y-62726768D01*
X111920175Y-62724083D01*
X112082578Y-62651777D01*
X112082580Y-62651776D01*
X112088608Y-62649092D01*
X112243109Y-62536840D01*
X112370896Y-62394918D01*
X112466383Y-62229530D01*
X112525398Y-62047902D01*
X112545360Y-61857974D01*
X112535773Y-61766756D01*
X112526088Y-61674609D01*
X112526088Y-61674607D01*
X112525398Y-61668046D01*
X112466383Y-61486418D01*
X112370896Y-61321030D01*
X112243109Y-61179108D01*
X112088608Y-61066856D01*
X112082580Y-61064172D01*
X112082578Y-61064171D01*
X111920175Y-60991865D01*
X111920174Y-60991865D01*
X111914144Y-60989180D01*
X111820743Y-60969327D01*
X111733800Y-60950846D01*
X111733795Y-60950846D01*
X111727343Y-60949474D01*
X111536369Y-60949474D01*
X111529917Y-60950846D01*
X111529912Y-60950846D01*
X111442969Y-60969327D01*
X111349568Y-60989180D01*
X111343538Y-60991865D01*
X111343537Y-60991865D01*
X111181134Y-61064171D01*
X111181132Y-61064172D01*
X111175104Y-61066856D01*
X111020603Y-61179108D01*
X110892816Y-61321030D01*
X110797329Y-61486418D01*
X110738314Y-61668046D01*
X110737624Y-61674607D01*
X110737624Y-61674609D01*
X110727939Y-61766756D01*
X110718352Y-61857974D01*
X86535675Y-61857974D01*
X86537505Y-59443011D01*
X95717359Y-59443011D01*
X95718046Y-59450018D01*
X95718046Y-59450021D01*
X95724388Y-59514698D01*
X95735164Y-59624602D01*
X95792758Y-59797737D01*
X95796407Y-59803762D01*
X95876263Y-59935619D01*
X95887279Y-59953809D01*
X96014028Y-60085061D01*
X96019920Y-60088916D01*
X96019924Y-60088920D01*
X96138131Y-60166272D01*
X96166706Y-60184971D01*
X96173310Y-60187427D01*
X96173312Y-60187428D01*
X96248365Y-60215340D01*
X96337725Y-60248573D01*
X96518585Y-60272705D01*
X96525596Y-60272067D01*
X96525600Y-60272067D01*
X96665305Y-60259352D01*
X96700296Y-60256167D01*
X96706998Y-60253989D01*
X96707000Y-60253989D01*
X96867130Y-60201960D01*
X96867133Y-60201959D01*
X96873829Y-60199783D01*
X96898677Y-60184971D01*
X97024502Y-60109965D01*
X97024505Y-60109963D01*
X97030557Y-60106355D01*
X97056108Y-60082023D01*
X97883510Y-60082023D01*
X97899714Y-60228799D01*
X97950461Y-60367473D01*
X97954697Y-60373776D01*
X97954697Y-60373777D01*
X98016642Y-60465960D01*
X98032822Y-60490039D01*
X98038441Y-60495152D01*
X98038442Y-60495153D01*
X98071672Y-60525390D01*
X98142042Y-60589421D01*
X98271815Y-60659882D01*
X98414649Y-60697354D01*
X98491436Y-60698560D01*
X98554700Y-60699554D01*
X98554703Y-60699554D01*
X98562298Y-60699673D01*
X98618574Y-60686784D01*
X98698836Y-60668402D01*
X98698840Y-60668401D01*
X98706239Y-60666706D01*
X98727011Y-60656259D01*
X98831378Y-60603769D01*
X98831381Y-60603767D01*
X98838161Y-60600357D01*
X98843932Y-60595428D01*
X98843935Y-60595426D01*
X98862364Y-60579685D01*
X98880650Y-60564067D01*
X98945439Y-60535036D01*
X99015639Y-60545640D01*
X99068962Y-60592514D01*
X99088478Y-60660776D01*
X99080882Y-60702972D01*
X99032939Y-60834695D01*
X99030530Y-60841315D01*
X99007662Y-61022339D01*
X99008349Y-61029346D01*
X99008349Y-61029349D01*
X99012027Y-61066856D01*
X99025467Y-61203930D01*
X99083061Y-61377065D01*
X99177582Y-61533137D01*
X99304331Y-61664389D01*
X99310223Y-61668244D01*
X99310227Y-61668248D01*
X99451113Y-61760441D01*
X99457009Y-61764299D01*
X99463613Y-61766755D01*
X99463615Y-61766756D01*
X99542518Y-61796100D01*
X99628028Y-61827901D01*
X99808888Y-61852033D01*
X99815899Y-61851395D01*
X99815903Y-61851395D01*
X99955608Y-61838680D01*
X99990599Y-61835495D01*
X99997301Y-61833317D01*
X99997303Y-61833317D01*
X100157433Y-61781288D01*
X100157436Y-61781287D01*
X100164132Y-61779111D01*
X100188980Y-61764299D01*
X100314805Y-61689293D01*
X100314808Y-61689291D01*
X100320860Y-61685683D01*
X100392167Y-61617778D01*
X100447890Y-61564714D01*
X100447892Y-61564711D01*
X100452994Y-61559853D01*
X100553967Y-61407876D01*
X100588821Y-61316122D01*
X100616261Y-61243888D01*
X100616262Y-61243883D01*
X100618761Y-61237305D01*
X100642716Y-61066856D01*
X100643604Y-61060541D01*
X100643604Y-61060536D01*
X100644155Y-61056618D01*
X100644474Y-61033766D01*
X100624135Y-60852441D01*
X100564129Y-60680127D01*
X100480093Y-60545640D01*
X100471172Y-60531364D01*
X100467439Y-60525390D01*
X100361017Y-60418223D01*
X100343832Y-60400917D01*
X100343828Y-60400914D01*
X100338869Y-60395920D01*
X100327685Y-60388822D01*
X100266887Y-60350239D01*
X100184811Y-60298152D01*
X100066905Y-60256167D01*
X100019555Y-60239306D01*
X100019553Y-60239305D01*
X100012921Y-60236944D01*
X100005935Y-60236111D01*
X100005931Y-60236110D01*
X99876354Y-60220660D01*
X99831742Y-60215340D01*
X99824739Y-60216076D01*
X99824738Y-60216076D01*
X99778503Y-60220936D01*
X99650279Y-60234412D01*
X99643611Y-60236682D01*
X99484218Y-60290944D01*
X99484215Y-60290945D01*
X99477551Y-60293214D01*
X99322142Y-60388822D01*
X99317112Y-60393748D01*
X99317104Y-60393754D01*
X99277448Y-60432589D01*
X99214783Y-60465960D01*
X99144024Y-60460154D01*
X99087637Y-60417015D01*
X99063524Y-60350239D01*
X99072383Y-60295569D01*
X99081949Y-60271773D01*
X99091697Y-60247524D01*
X99100599Y-60184971D01*
X99111922Y-60105414D01*
X99111922Y-60105411D01*
X99112503Y-60101330D01*
X99112638Y-60088459D01*
X99094898Y-59941861D01*
X99042701Y-59803726D01*
X98959061Y-59682029D01*
X98939455Y-59664560D01*
X98901771Y-59630985D01*
X98848807Y-59583796D01*
X98841923Y-59580151D01*
X98725014Y-59518251D01*
X98725012Y-59518250D01*
X98718303Y-59514698D01*
X98671397Y-59502916D01*
X98582455Y-59480575D01*
X98582451Y-59480575D01*
X98575084Y-59478724D01*
X98567485Y-59478684D01*
X98567483Y-59478684D01*
X98505855Y-59478362D01*
X98427419Y-59477951D01*
X98420039Y-59479723D01*
X98420037Y-59479723D01*
X98291210Y-59510651D01*
X98291206Y-59510652D01*
X98283831Y-59512423D01*
X98152611Y-59580151D01*
X98146889Y-59585143D01*
X98146887Y-59585144D01*
X98071389Y-59651005D01*
X98041334Y-59677224D01*
X97956425Y-59798038D01*
X97953666Y-59805113D01*
X97953665Y-59805116D01*
X97942241Y-59834419D01*
X97902784Y-59935619D01*
X97901792Y-59943152D01*
X97901792Y-59943153D01*
X97894085Y-60001699D01*
X97883510Y-60082023D01*
X97056108Y-60082023D01*
X97101864Y-60038450D01*
X97157587Y-59985386D01*
X97157589Y-59985383D01*
X97162691Y-59980525D01*
X97263664Y-59828548D01*
X97318785Y-59683442D01*
X97325958Y-59664560D01*
X97325959Y-59664555D01*
X97328458Y-59657977D01*
X97332209Y-59631287D01*
X97353301Y-59481213D01*
X97353301Y-59481208D01*
X97353852Y-59477290D01*
X97354171Y-59454438D01*
X97333832Y-59273113D01*
X97330728Y-59264198D01*
X97292989Y-59155827D01*
X97273826Y-59100799D01*
X97177136Y-58946062D01*
X97107258Y-58875695D01*
X97053529Y-58821589D01*
X97053525Y-58821586D01*
X97048566Y-58816592D01*
X97037382Y-58809494D01*
X96989176Y-58778902D01*
X96894508Y-58718824D01*
X96766290Y-58673167D01*
X96729252Y-58659978D01*
X96729250Y-58659977D01*
X96722618Y-58657616D01*
X96715632Y-58656783D01*
X96715628Y-58656782D01*
X96586051Y-58641332D01*
X96541439Y-58636012D01*
X96534436Y-58636748D01*
X96534435Y-58636748D01*
X96488200Y-58641608D01*
X96359976Y-58655084D01*
X96353308Y-58657354D01*
X96193915Y-58711616D01*
X96193912Y-58711617D01*
X96187248Y-58713886D01*
X96031839Y-58809494D01*
X95901475Y-58937156D01*
X95802633Y-59090528D01*
X95800224Y-59097148D01*
X95800222Y-59097151D01*
X95742635Y-59255370D01*
X95740227Y-59261987D01*
X95717359Y-59443011D01*
X86537505Y-59443011D01*
X86538237Y-58476961D01*
X100203137Y-58476961D01*
X100203827Y-58483526D01*
X100222373Y-58659978D01*
X100223099Y-58666889D01*
X100282114Y-58848517D01*
X100377601Y-59013905D01*
X100382019Y-59018812D01*
X100382020Y-59018813D01*
X100500966Y-59150916D01*
X100505388Y-59155827D01*
X100568703Y-59201828D01*
X100642397Y-59255370D01*
X100659889Y-59268079D01*
X100665917Y-59270763D01*
X100665919Y-59270764D01*
X100817840Y-59338403D01*
X100834353Y-59345755D01*
X100927753Y-59365608D01*
X101014697Y-59384089D01*
X101014702Y-59384089D01*
X101021154Y-59385461D01*
X101212128Y-59385461D01*
X101218580Y-59384089D01*
X101218585Y-59384089D01*
X101305529Y-59365608D01*
X101398929Y-59345755D01*
X101415442Y-59338403D01*
X101567363Y-59270764D01*
X101567365Y-59270763D01*
X101573393Y-59268079D01*
X101631743Y-59225685D01*
X101698608Y-59201828D01*
X101767759Y-59217908D01*
X101817240Y-59268821D01*
X101831340Y-59338403D01*
X101825635Y-59366558D01*
X101803562Y-59434492D01*
X101802872Y-59441053D01*
X101802872Y-59441055D01*
X101795132Y-59514698D01*
X101783600Y-59624420D01*
X101784290Y-59630985D01*
X101802592Y-59805116D01*
X101803562Y-59814348D01*
X101862577Y-59995976D01*
X101958064Y-60161364D01*
X101962482Y-60166271D01*
X101962483Y-60166272D01*
X102081228Y-60298152D01*
X102085851Y-60303286D01*
X102240352Y-60415538D01*
X102246380Y-60418222D01*
X102246382Y-60418223D01*
X102408785Y-60490529D01*
X102414816Y-60493214D01*
X102508217Y-60513067D01*
X102595160Y-60531548D01*
X102595165Y-60531548D01*
X102601617Y-60532920D01*
X102792591Y-60532920D01*
X102799043Y-60531548D01*
X102799048Y-60531548D01*
X102885991Y-60513067D01*
X102979392Y-60493214D01*
X102985423Y-60490529D01*
X103147826Y-60418223D01*
X103147828Y-60418222D01*
X103153856Y-60415538D01*
X103308357Y-60303286D01*
X103312980Y-60298152D01*
X103431725Y-60166272D01*
X103431726Y-60166271D01*
X103436144Y-60161364D01*
X103531631Y-59995976D01*
X103590646Y-59814348D01*
X103591617Y-59805116D01*
X103609918Y-59630985D01*
X103610608Y-59624420D01*
X103599076Y-59514698D01*
X103591336Y-59441055D01*
X103591336Y-59441053D01*
X103590646Y-59434492D01*
X103531631Y-59252864D01*
X103436144Y-59087476D01*
X103369901Y-59013905D01*
X103312779Y-58950465D01*
X103312778Y-58950464D01*
X103308357Y-58945554D01*
X103153856Y-58833302D01*
X103147828Y-58830618D01*
X103147826Y-58830617D01*
X102985423Y-58758311D01*
X102985422Y-58758311D01*
X102979392Y-58755626D01*
X102881522Y-58734823D01*
X102799048Y-58717292D01*
X102799043Y-58717292D01*
X102792591Y-58715920D01*
X102601617Y-58715920D01*
X102595165Y-58717292D01*
X102595160Y-58717292D01*
X102512686Y-58734823D01*
X102414816Y-58755626D01*
X102408786Y-58758311D01*
X102408785Y-58758311D01*
X102246382Y-58830617D01*
X102246380Y-58830618D01*
X102240352Y-58833302D01*
X102182002Y-58875696D01*
X102115137Y-58899553D01*
X102045986Y-58883473D01*
X101996505Y-58832560D01*
X101982405Y-58762978D01*
X101988110Y-58734823D01*
X102008143Y-58673167D01*
X102010183Y-58666889D01*
X102010910Y-58659978D01*
X102029455Y-58483526D01*
X102030145Y-58476961D01*
X102010183Y-58287033D01*
X101951168Y-58105405D01*
X101855681Y-57940017D01*
X101734110Y-57804998D01*
X101732316Y-57803006D01*
X101732315Y-57803005D01*
X101727894Y-57798095D01*
X101573393Y-57685843D01*
X101567365Y-57683159D01*
X101567363Y-57683158D01*
X101404960Y-57610852D01*
X101404959Y-57610852D01*
X101398929Y-57608167D01*
X101305528Y-57588314D01*
X101218585Y-57569833D01*
X101218580Y-57569833D01*
X101212128Y-57568461D01*
X101021154Y-57568461D01*
X101014702Y-57569833D01*
X101014697Y-57569833D01*
X100927754Y-57588314D01*
X100834353Y-57608167D01*
X100828323Y-57610852D01*
X100828322Y-57610852D01*
X100665919Y-57683158D01*
X100665917Y-57683159D01*
X100659889Y-57685843D01*
X100505388Y-57798095D01*
X100500967Y-57803005D01*
X100500966Y-57803006D01*
X100499173Y-57804998D01*
X100377601Y-57940017D01*
X100282114Y-58105405D01*
X100223099Y-58287033D01*
X100203137Y-58476961D01*
X86538237Y-58476961D01*
X86539435Y-56896498D01*
X103342413Y-56896498D01*
X103362375Y-57086426D01*
X103421390Y-57268054D01*
X103516877Y-57433442D01*
X103521295Y-57438349D01*
X103521296Y-57438350D01*
X103639684Y-57569833D01*
X103644664Y-57575364D01*
X103799165Y-57687616D01*
X103805193Y-57690300D01*
X103805195Y-57690301D01*
X103967598Y-57762607D01*
X103973629Y-57765292D01*
X104067030Y-57785145D01*
X104153973Y-57803626D01*
X104153978Y-57803626D01*
X104160430Y-57804998D01*
X104351404Y-57804998D01*
X104357856Y-57803626D01*
X104357861Y-57803626D01*
X104444804Y-57785145D01*
X104538205Y-57765292D01*
X104544236Y-57762607D01*
X104706639Y-57690301D01*
X104706641Y-57690300D01*
X104712669Y-57687616D01*
X104867170Y-57575364D01*
X104872150Y-57569833D01*
X104990538Y-57438350D01*
X104990539Y-57438349D01*
X104994957Y-57433442D01*
X105090444Y-57268054D01*
X105149459Y-57086426D01*
X105169421Y-56896498D01*
X105149459Y-56706570D01*
X105090444Y-56524942D01*
X104994957Y-56359554D01*
X104867170Y-56217632D01*
X104712669Y-56105380D01*
X104706641Y-56102696D01*
X104706639Y-56102695D01*
X104544236Y-56030389D01*
X104544235Y-56030389D01*
X104538205Y-56027704D01*
X104444804Y-56007851D01*
X104357861Y-55989370D01*
X104357856Y-55989370D01*
X104351404Y-55987998D01*
X104160430Y-55987998D01*
X104153978Y-55989370D01*
X104153973Y-55989370D01*
X104067030Y-56007851D01*
X103973629Y-56027704D01*
X103967599Y-56030389D01*
X103967598Y-56030389D01*
X103805195Y-56102695D01*
X103805193Y-56102696D01*
X103799165Y-56105380D01*
X103644664Y-56217632D01*
X103516877Y-56359554D01*
X103421390Y-56524942D01*
X103362375Y-56706570D01*
X103342413Y-56896498D01*
X86539435Y-56896498D01*
X86544019Y-50847812D01*
X86544827Y-49781753D01*
X92746420Y-49781753D01*
X92776728Y-49916233D01*
X92779808Y-49926062D01*
X92859933Y-50123390D01*
X92864576Y-50132581D01*
X92975857Y-50314175D01*
X92981940Y-50322486D01*
X93121376Y-50483454D01*
X93128743Y-50490670D01*
X93292597Y-50626703D01*
X93301044Y-50632618D01*
X93484919Y-50740066D01*
X93494205Y-50744516D01*
X93693164Y-50820490D01*
X93703062Y-50823366D01*
X93806413Y-50844393D01*
X93820462Y-50843197D01*
X93824163Y-50832852D01*
X93824163Y-50832304D01*
X94332163Y-50832304D01*
X94336227Y-50846146D01*
X94349641Y-50848180D01*
X94356347Y-50847321D01*
X94366425Y-50845179D01*
X94570418Y-50783978D01*
X94580005Y-50780220D01*
X94771258Y-50686526D01*
X94780108Y-50681251D01*
X94953491Y-50557579D01*
X94961363Y-50550926D01*
X95112215Y-50400599D01*
X95118893Y-50392752D01*
X95246185Y-50215606D01*
X95247442Y-50216509D01*
X95294536Y-50173149D01*
X95364474Y-50160932D01*
X95429914Y-50188465D01*
X95457742Y-50220298D01*
X95518150Y-50318875D01*
X95664413Y-50487725D01*
X95836289Y-50630419D01*
X96029163Y-50743125D01*
X96237855Y-50822817D01*
X96242923Y-50823848D01*
X96242926Y-50823849D01*
X96338025Y-50843197D01*
X96456760Y-50867354D01*
X96461935Y-50867544D01*
X96461937Y-50867544D01*
X96674836Y-50875351D01*
X96674840Y-50875351D01*
X96680000Y-50875540D01*
X96685120Y-50874884D01*
X96685122Y-50874884D01*
X96896451Y-50847812D01*
X96896452Y-50847812D01*
X96901579Y-50847155D01*
X96906529Y-50845670D01*
X97110592Y-50784448D01*
X97110597Y-50784446D01*
X97115547Y-50782961D01*
X97316157Y-50684683D01*
X97498023Y-50554960D01*
X97656259Y-50397276D01*
X97786616Y-50215864D01*
X97787939Y-50216815D01*
X97834808Y-50173644D01*
X97904743Y-50161412D01*
X97970189Y-50188931D01*
X97998038Y-50220781D01*
X98058150Y-50318875D01*
X98204413Y-50487725D01*
X98376289Y-50630419D01*
X98569163Y-50743125D01*
X98777855Y-50822817D01*
X98782923Y-50823848D01*
X98782926Y-50823849D01*
X98878025Y-50843197D01*
X98996760Y-50867354D01*
X99001935Y-50867544D01*
X99001937Y-50867544D01*
X99214836Y-50875351D01*
X99214840Y-50875351D01*
X99220000Y-50875540D01*
X99225120Y-50874884D01*
X99225122Y-50874884D01*
X99436451Y-50847812D01*
X99436452Y-50847812D01*
X99441579Y-50847155D01*
X99446529Y-50845670D01*
X99650592Y-50784448D01*
X99650597Y-50784446D01*
X99655547Y-50782961D01*
X99856157Y-50684683D01*
X100038023Y-50554960D01*
X100196259Y-50397276D01*
X100326616Y-50215864D01*
X100327939Y-50216815D01*
X100374808Y-50173644D01*
X100444743Y-50161412D01*
X100510189Y-50188931D01*
X100538038Y-50220781D01*
X100598150Y-50318875D01*
X100744413Y-50487725D01*
X100916289Y-50630419D01*
X101109163Y-50743125D01*
X101317855Y-50822817D01*
X101322923Y-50823848D01*
X101322926Y-50823849D01*
X101418025Y-50843197D01*
X101536760Y-50867354D01*
X101541935Y-50867544D01*
X101541937Y-50867544D01*
X101754836Y-50875351D01*
X101754840Y-50875351D01*
X101760000Y-50875540D01*
X101765120Y-50874884D01*
X101765122Y-50874884D01*
X101976451Y-50847812D01*
X101976452Y-50847812D01*
X101981579Y-50847155D01*
X101986529Y-50845670D01*
X102190592Y-50784448D01*
X102190597Y-50784446D01*
X102195547Y-50782961D01*
X102396157Y-50684683D01*
X102578023Y-50554960D01*
X102736259Y-50397276D01*
X102866616Y-50215864D01*
X102867939Y-50216815D01*
X102914808Y-50173644D01*
X102984743Y-50161412D01*
X103050189Y-50188931D01*
X103078038Y-50220781D01*
X103138150Y-50318875D01*
X103284413Y-50487725D01*
X103456289Y-50630419D01*
X103649163Y-50743125D01*
X103857855Y-50822817D01*
X103862923Y-50823848D01*
X103862926Y-50823849D01*
X103958025Y-50843197D01*
X104076760Y-50867354D01*
X104081935Y-50867544D01*
X104081937Y-50867544D01*
X104294836Y-50875351D01*
X104294840Y-50875351D01*
X104300000Y-50875540D01*
X104305120Y-50874884D01*
X104305122Y-50874884D01*
X104516451Y-50847812D01*
X104516452Y-50847812D01*
X104521579Y-50847155D01*
X104526529Y-50845670D01*
X104730592Y-50784448D01*
X104730597Y-50784446D01*
X104735547Y-50782961D01*
X104936157Y-50684683D01*
X105118023Y-50554960D01*
X105226254Y-50447106D01*
X105288625Y-50413191D01*
X105359431Y-50418379D01*
X105416193Y-50461025D01*
X105433175Y-50492128D01*
X105477548Y-50610492D01*
X105564902Y-50727048D01*
X105681458Y-50814402D01*
X105817847Y-50865532D01*
X105880029Y-50872287D01*
X107676297Y-50872287D01*
X107738479Y-50865532D01*
X107874868Y-50814402D01*
X107991424Y-50727048D01*
X108078778Y-50610492D01*
X108129908Y-50474103D01*
X108136663Y-50411921D01*
X108136663Y-48615653D01*
X108129908Y-48553471D01*
X108078778Y-48417082D01*
X107991424Y-48300526D01*
X107874868Y-48213172D01*
X107738479Y-48162042D01*
X107676297Y-48155287D01*
X105880029Y-48155287D01*
X105817847Y-48162042D01*
X105681458Y-48213172D01*
X105564902Y-48300526D01*
X105477548Y-48417082D01*
X105474396Y-48425490D01*
X105433082Y-48535694D01*
X105390440Y-48592458D01*
X105323879Y-48617158D01*
X105254530Y-48601950D01*
X105221906Y-48576263D01*
X105171314Y-48520662D01*
X105171305Y-48520653D01*
X105167833Y-48516838D01*
X105163782Y-48513639D01*
X105163778Y-48513635D01*
X104996577Y-48381587D01*
X104996573Y-48381585D01*
X104992522Y-48378385D01*
X104956191Y-48358329D01*
X104940299Y-48349556D01*
X104796952Y-48270425D01*
X104792083Y-48268701D01*
X104792079Y-48268699D01*
X104591250Y-48197582D01*
X104591246Y-48197581D01*
X104586375Y-48195856D01*
X104581282Y-48194949D01*
X104581279Y-48194948D01*
X104371536Y-48157587D01*
X104371530Y-48157586D01*
X104366447Y-48156681D01*
X104292615Y-48155779D01*
X104148244Y-48154015D01*
X104148242Y-48154015D01*
X104143074Y-48153952D01*
X103922254Y-48187742D01*
X103709919Y-48257144D01*
X103511770Y-48360294D01*
X103507637Y-48363397D01*
X103507634Y-48363399D01*
X103337263Y-48491317D01*
X103333128Y-48494422D01*
X103307704Y-48521027D01*
X103239443Y-48592458D01*
X103178792Y-48655925D01*
X103071364Y-48813408D01*
X103016456Y-48858408D01*
X102945931Y-48866579D01*
X102882184Y-48835325D01*
X102861487Y-48810841D01*
X102780985Y-48686404D01*
X102780983Y-48686401D01*
X102778177Y-48682064D01*
X102627833Y-48516838D01*
X102623782Y-48513639D01*
X102623778Y-48513635D01*
X102456577Y-48381587D01*
X102456573Y-48381585D01*
X102452522Y-48378385D01*
X102416191Y-48358329D01*
X102400299Y-48349556D01*
X102256952Y-48270425D01*
X102252083Y-48268701D01*
X102252079Y-48268699D01*
X102051250Y-48197582D01*
X102051246Y-48197581D01*
X102046375Y-48195856D01*
X102041282Y-48194949D01*
X102041279Y-48194948D01*
X101831536Y-48157587D01*
X101831530Y-48157586D01*
X101826447Y-48156681D01*
X101752615Y-48155779D01*
X101608244Y-48154015D01*
X101608242Y-48154015D01*
X101603074Y-48153952D01*
X101382254Y-48187742D01*
X101169919Y-48257144D01*
X100971770Y-48360294D01*
X100967637Y-48363397D01*
X100967634Y-48363399D01*
X100797263Y-48491317D01*
X100793128Y-48494422D01*
X100767704Y-48521027D01*
X100699443Y-48592458D01*
X100638792Y-48655925D01*
X100531364Y-48813408D01*
X100476456Y-48858408D01*
X100405931Y-48866579D01*
X100342184Y-48835325D01*
X100321487Y-48810841D01*
X100240985Y-48686404D01*
X100240983Y-48686401D01*
X100238177Y-48682064D01*
X100087833Y-48516838D01*
X100083782Y-48513639D01*
X100083778Y-48513635D01*
X99916577Y-48381587D01*
X99916573Y-48381585D01*
X99912522Y-48378385D01*
X99876191Y-48358329D01*
X99860299Y-48349556D01*
X99716952Y-48270425D01*
X99712083Y-48268701D01*
X99712079Y-48268699D01*
X99511250Y-48197582D01*
X99511246Y-48197581D01*
X99506375Y-48195856D01*
X99501282Y-48194949D01*
X99501279Y-48194948D01*
X99291536Y-48157587D01*
X99291530Y-48157586D01*
X99286447Y-48156681D01*
X99212615Y-48155779D01*
X99068244Y-48154015D01*
X99068242Y-48154015D01*
X99063074Y-48153952D01*
X98842254Y-48187742D01*
X98629919Y-48257144D01*
X98431770Y-48360294D01*
X98427637Y-48363397D01*
X98427634Y-48363399D01*
X98257263Y-48491317D01*
X98253128Y-48494422D01*
X98227704Y-48521027D01*
X98159443Y-48592458D01*
X98098792Y-48655925D01*
X97991364Y-48813408D01*
X97936456Y-48858408D01*
X97865931Y-48866579D01*
X97802184Y-48835325D01*
X97781487Y-48810841D01*
X97700985Y-48686404D01*
X97700983Y-48686401D01*
X97698177Y-48682064D01*
X97547833Y-48516838D01*
X97543782Y-48513639D01*
X97543778Y-48513635D01*
X97376577Y-48381587D01*
X97376573Y-48381585D01*
X97372522Y-48378385D01*
X97336191Y-48358329D01*
X97320299Y-48349556D01*
X97176952Y-48270425D01*
X97172083Y-48268701D01*
X97172079Y-48268699D01*
X96971250Y-48197582D01*
X96971246Y-48197581D01*
X96966375Y-48195856D01*
X96961282Y-48194949D01*
X96961279Y-48194948D01*
X96751536Y-48157587D01*
X96751530Y-48157586D01*
X96746447Y-48156681D01*
X96672615Y-48155779D01*
X96528244Y-48154015D01*
X96528242Y-48154015D01*
X96523074Y-48153952D01*
X96302254Y-48187742D01*
X96089919Y-48257144D01*
X95891770Y-48360294D01*
X95887637Y-48363397D01*
X95887634Y-48363399D01*
X95717263Y-48491317D01*
X95713128Y-48494422D01*
X95687704Y-48521027D01*
X95619443Y-48592458D01*
X95558792Y-48655925D01*
X95555883Y-48660190D01*
X95555877Y-48660198D01*
X95543567Y-48678244D01*
X95451367Y-48813405D01*
X95451061Y-48813853D01*
X95396150Y-48858856D01*
X95325625Y-48867027D01*
X95261878Y-48835773D01*
X95241181Y-48811289D01*
X95160589Y-48686713D01*
X95154299Y-48678544D01*
X95010969Y-48521027D01*
X95003436Y-48514002D01*
X94836302Y-48382009D01*
X94827715Y-48376304D01*
X94641280Y-48273386D01*
X94631868Y-48269156D01*
X94431122Y-48198067D01*
X94421151Y-48195433D01*
X94350000Y-48182759D01*
X94336703Y-48184219D01*
X94332163Y-48198776D01*
X94332163Y-50832304D01*
X93824163Y-50832304D01*
X93824163Y-49785902D01*
X93819688Y-49770663D01*
X93818298Y-49769458D01*
X93810615Y-49767787D01*
X92761388Y-49767787D01*
X92747857Y-49771760D01*
X92746420Y-49781753D01*
X86544827Y-49781753D01*
X86545232Y-49247970D01*
X92742552Y-49247970D01*
X92744075Y-49256394D01*
X92756455Y-49259787D01*
X93806048Y-49259787D01*
X93821287Y-49255312D01*
X93822492Y-49253922D01*
X93824163Y-49246239D01*
X93824163Y-48196889D01*
X93820245Y-48183545D01*
X93805969Y-48181558D01*
X93767487Y-48187447D01*
X93757451Y-48189838D01*
X93555031Y-48255999D01*
X93545522Y-48259996D01*
X93356626Y-48358329D01*
X93347901Y-48363823D01*
X93177596Y-48491692D01*
X93169889Y-48498535D01*
X93022753Y-48652504D01*
X93016267Y-48660514D01*
X92896261Y-48836436D01*
X92891163Y-48845410D01*
X92801501Y-49038570D01*
X92797938Y-49048257D01*
X92742552Y-49247970D01*
X86545232Y-49247970D01*
X86547106Y-46775436D01*
X86548203Y-46758943D01*
X86551159Y-46736690D01*
X86551159Y-46736685D01*
X86552340Y-46727793D01*
X86550626Y-46716635D01*
X86549514Y-46688111D01*
X86558286Y-46570698D01*
X86562451Y-46546657D01*
X86599355Y-46412540D01*
X86608075Y-46389753D01*
X86615027Y-46375807D01*
X86670139Y-46265259D01*
X86683082Y-46244589D01*
X86767979Y-46134390D01*
X86784671Y-46116595D01*
X86889201Y-46024837D01*
X86909010Y-46010591D01*
X87029279Y-45940692D01*
X87051461Y-45930533D01*
X87182942Y-45885128D01*
X87206668Y-45879434D01*
X87316809Y-45864075D01*
X87332645Y-45863869D01*
X87332624Y-45863160D01*
X87341594Y-45862897D01*
X87350516Y-45863908D01*
X87368812Y-45860737D01*
X87390286Y-45858887D01*
X103760493Y-45854914D01*
X120926604Y-45850748D01*
X120931622Y-45850847D01*
X120983798Y-45852914D01*
X120983801Y-45852914D01*
X120992769Y-45853269D01*
X121001478Y-45851093D01*
X121001483Y-45851092D01*
X121004205Y-45850412D01*
X121032083Y-45846680D01*
X121152018Y-45844137D01*
X121175525Y-45845844D01*
G37*
%TD.AperFunction*%
%TD*%
M02*
