%TF.GenerationSoftware,KiCad,Pcbnew,(6.0.7)*%
%TF.CreationDate,2023-01-24T00:42:55-08:00*%
%TF.ProjectId,Sensors,53656e73-6f72-4732-9e6b-696361645f70,rev?*%
%TF.SameCoordinates,Original*%
%TF.FileFunction,Legend,Top*%
%TF.FilePolarity,Positive*%
%FSLAX46Y46*%
G04 Gerber Fmt 4.6, Leading zero omitted, Abs format (unit mm)*
G04 Created by KiCad (PCBNEW (6.0.7)) date 2023-01-24 00:42:55*
%MOMM*%
%LPD*%
G01*
G04 APERTURE LIST*
%ADD10C,0.101600*%
%ADD11C,0.152400*%
%ADD12C,0.127000*%
%ADD13C,0.006350*%
%ADD14C,0.150000*%
%ADD15C,0.120000*%
G04 APERTURE END LIST*
D10*
X94994940Y-47529914D02*
X94601845Y-47529914D01*
X94813512Y-47288009D01*
X94722798Y-47288009D01*
X94662321Y-47257771D01*
X94632083Y-47227533D01*
X94601845Y-47167056D01*
X94601845Y-47015866D01*
X94632083Y-46955390D01*
X94662321Y-46925152D01*
X94722798Y-46894914D01*
X94904226Y-46894914D01*
X94964702Y-46925152D01*
X94994940Y-46955390D01*
X94329702Y-46955390D02*
X94299464Y-46925152D01*
X94329702Y-46894914D01*
X94359940Y-46925152D01*
X94329702Y-46955390D01*
X94329702Y-46894914D01*
X94087798Y-47529914D02*
X93694702Y-47529914D01*
X93906369Y-47288009D01*
X93815655Y-47288009D01*
X93755179Y-47257771D01*
X93724940Y-47227533D01*
X93694702Y-47167056D01*
X93694702Y-47015866D01*
X93724940Y-46955390D01*
X93755179Y-46925152D01*
X93815655Y-46894914D01*
X93997083Y-46894914D01*
X94057560Y-46925152D01*
X94087798Y-46955390D01*
X93513274Y-47529914D02*
X93301607Y-46894914D01*
X93089940Y-47529914D01*
X105019658Y-46925152D02*
X104928944Y-46894914D01*
X104777753Y-46894914D01*
X104717277Y-46925152D01*
X104687039Y-46955390D01*
X104656801Y-47015866D01*
X104656801Y-47076342D01*
X104687039Y-47136818D01*
X104717277Y-47167056D01*
X104777753Y-47197295D01*
X104898706Y-47227533D01*
X104959182Y-47257771D01*
X104989420Y-47288009D01*
X105019658Y-47348485D01*
X105019658Y-47408961D01*
X104989420Y-47469437D01*
X104959182Y-47499676D01*
X104898706Y-47529914D01*
X104747515Y-47529914D01*
X104656801Y-47499676D01*
X104384658Y-46894914D02*
X104384658Y-47529914D01*
X104233467Y-47529914D01*
X104142753Y-47499676D01*
X104082277Y-47439199D01*
X104052039Y-47378723D01*
X104021801Y-47257771D01*
X104021801Y-47167056D01*
X104052039Y-47046104D01*
X104082277Y-46985628D01*
X104142753Y-46925152D01*
X104233467Y-46894914D01*
X104384658Y-46894914D01*
X103779896Y-47076342D02*
X103477515Y-47076342D01*
X103840372Y-46894914D02*
X103628706Y-47529914D01*
X103417039Y-46894914D01*
X97099610Y-47541614D02*
X97160086Y-47571852D01*
X97250801Y-47571852D01*
X97341515Y-47541614D01*
X97401991Y-47481137D01*
X97432229Y-47420661D01*
X97462467Y-47299709D01*
X97462467Y-47208994D01*
X97432229Y-47088042D01*
X97401991Y-47027566D01*
X97341515Y-46967090D01*
X97250801Y-46936852D01*
X97190324Y-46936852D01*
X97099610Y-46967090D01*
X97069372Y-46997328D01*
X97069372Y-47208994D01*
X97190324Y-47208994D01*
X96797229Y-46936852D02*
X96797229Y-47571852D01*
X96434372Y-46936852D01*
X96434372Y-47571852D01*
X96131991Y-46936852D02*
X96131991Y-47571852D01*
X95980801Y-47571852D01*
X95890086Y-47541614D01*
X95829610Y-47481137D01*
X95799372Y-47420661D01*
X95769134Y-47299709D01*
X95769134Y-47208994D01*
X95799372Y-47088042D01*
X95829610Y-47027566D01*
X95890086Y-46967090D01*
X95980801Y-46936852D01*
X96131991Y-46936852D01*
D11*
X87585932Y-70023543D02*
X87634313Y-69842115D01*
X87682694Y-69781638D01*
X87779456Y-69721162D01*
X87924599Y-69721162D01*
X88021361Y-69781638D01*
X88069742Y-69842115D01*
X88118123Y-69963067D01*
X88118123Y-70446876D01*
X87102123Y-70446876D01*
X87102123Y-70023543D01*
X87150504Y-69902591D01*
X87198884Y-69842115D01*
X87295646Y-69781638D01*
X87392408Y-69781638D01*
X87489170Y-69842115D01*
X87537551Y-69902591D01*
X87585932Y-70023543D01*
X87585932Y-70446876D01*
X87585932Y-68753543D02*
X87634313Y-68572115D01*
X87682694Y-68511638D01*
X87779456Y-68451162D01*
X87924599Y-68451162D01*
X88021361Y-68511638D01*
X88069742Y-68572115D01*
X88118123Y-68693067D01*
X88118123Y-69176876D01*
X87102123Y-69176876D01*
X87102123Y-68753543D01*
X87150504Y-68632591D01*
X87198884Y-68572115D01*
X87295646Y-68511638D01*
X87392408Y-68511638D01*
X87489170Y-68572115D01*
X87537551Y-68632591D01*
X87585932Y-68753543D01*
X87585932Y-69176876D01*
X87537551Y-67725448D02*
X87489170Y-67846400D01*
X87440789Y-67906876D01*
X87344027Y-67967353D01*
X87295646Y-67967353D01*
X87198884Y-67906876D01*
X87150504Y-67846400D01*
X87102123Y-67725448D01*
X87102123Y-67483543D01*
X87150504Y-67362591D01*
X87198884Y-67302115D01*
X87295646Y-67241638D01*
X87344027Y-67241638D01*
X87440789Y-67302115D01*
X87489170Y-67362591D01*
X87537551Y-67483543D01*
X87537551Y-67725448D01*
X87585932Y-67846400D01*
X87634313Y-67906876D01*
X87731075Y-67967353D01*
X87924599Y-67967353D01*
X88021361Y-67906876D01*
X88069742Y-67846400D01*
X88118123Y-67725448D01*
X88118123Y-67483543D01*
X88069742Y-67362591D01*
X88021361Y-67302115D01*
X87924599Y-67241638D01*
X87731075Y-67241638D01*
X87634313Y-67302115D01*
X87585932Y-67362591D01*
X87537551Y-67483543D01*
D12*
X88608427Y-71603869D02*
X88904760Y-71603869D01*
X89031760Y-72069535D02*
X88608427Y-72069535D01*
X88608427Y-71180535D01*
X89031760Y-71180535D01*
X89412760Y-71984869D02*
X89455093Y-72027202D01*
X89412760Y-72069535D01*
X89370427Y-72027202D01*
X89412760Y-71984869D01*
X89412760Y-72069535D01*
X89836093Y-72069535D02*
X89836093Y-71180535D01*
X90344093Y-72069535D01*
X90344093Y-71180535D01*
X91148427Y-71476869D02*
X91148427Y-72069535D01*
X90767427Y-71476869D02*
X90767427Y-71942535D01*
X90809760Y-72027202D01*
X90894427Y-72069535D01*
X91021427Y-72069535D01*
X91106093Y-72027202D01*
X91148427Y-71984869D01*
X91444760Y-71476869D02*
X91783427Y-71476869D01*
X91571760Y-71180535D02*
X91571760Y-71942535D01*
X91614093Y-72027202D01*
X91698760Y-72069535D01*
X91783427Y-72069535D01*
X91952760Y-71476869D02*
X92291427Y-71476869D01*
X92079760Y-71180535D02*
X92079760Y-71942535D01*
X92122093Y-72027202D01*
X92206760Y-72069535D01*
X92291427Y-72069535D01*
D10*
X99826001Y-46951777D02*
X99734572Y-46921301D01*
X99582191Y-46921301D01*
X99521239Y-46951777D01*
X99490763Y-46982253D01*
X99460286Y-47043205D01*
X99460286Y-47104158D01*
X99490763Y-47165110D01*
X99521239Y-47195586D01*
X99582191Y-47226063D01*
X99704096Y-47256539D01*
X99765048Y-47287015D01*
X99795524Y-47317491D01*
X99826001Y-47378444D01*
X99826001Y-47439396D01*
X99795524Y-47500348D01*
X99765048Y-47530825D01*
X99704096Y-47561301D01*
X99551715Y-47561301D01*
X99460286Y-47530825D01*
X99186001Y-46921301D02*
X99186001Y-47561301D01*
X99033620Y-47561301D01*
X98942191Y-47530825D01*
X98881239Y-47469872D01*
X98850763Y-47408920D01*
X98820286Y-47287015D01*
X98820286Y-47195586D01*
X98850763Y-47073682D01*
X98881239Y-47012729D01*
X98942191Y-46951777D01*
X99033620Y-46921301D01*
X99186001Y-46921301D01*
X98546001Y-46921301D02*
X98546001Y-47561301D01*
X107499873Y-46967090D02*
X107409159Y-46936852D01*
X107257968Y-46936852D01*
X107197492Y-46967090D01*
X107167254Y-46997328D01*
X107137016Y-47057804D01*
X107137016Y-47118280D01*
X107167254Y-47178756D01*
X107197492Y-47208994D01*
X107257968Y-47239233D01*
X107378921Y-47269471D01*
X107439397Y-47299709D01*
X107469635Y-47329947D01*
X107499873Y-47390423D01*
X107499873Y-47450899D01*
X107469635Y-47511375D01*
X107439397Y-47541614D01*
X107378921Y-47571852D01*
X107227730Y-47571852D01*
X107137016Y-47541614D01*
X106502016Y-46997328D02*
X106532254Y-46967090D01*
X106622968Y-46936852D01*
X106683444Y-46936852D01*
X106774159Y-46967090D01*
X106834635Y-47027566D01*
X106864873Y-47088042D01*
X106895111Y-47208994D01*
X106895111Y-47299709D01*
X106864873Y-47420661D01*
X106834635Y-47481137D01*
X106774159Y-47541614D01*
X106683444Y-47571852D01*
X106622968Y-47571852D01*
X106532254Y-47541614D01*
X106502016Y-47511375D01*
X105927492Y-46936852D02*
X106229873Y-46936852D01*
X106229873Y-47571852D01*
X102537882Y-46937797D02*
X102446453Y-46907321D01*
X102294072Y-46907321D01*
X102233120Y-46937797D01*
X102202644Y-46968273D01*
X102172167Y-47029225D01*
X102172167Y-47090178D01*
X102202644Y-47151130D01*
X102233120Y-47181606D01*
X102294072Y-47212083D01*
X102415977Y-47242559D01*
X102476929Y-47273035D01*
X102507405Y-47303511D01*
X102537882Y-47364464D01*
X102537882Y-47425416D01*
X102507405Y-47486368D01*
X102476929Y-47516845D01*
X102415977Y-47547321D01*
X102263596Y-47547321D01*
X102172167Y-47516845D01*
X101532167Y-46968273D02*
X101562644Y-46937797D01*
X101654072Y-46907321D01*
X101715025Y-46907321D01*
X101806453Y-46937797D01*
X101867405Y-46998749D01*
X101897882Y-47059702D01*
X101928358Y-47181606D01*
X101928358Y-47273035D01*
X101897882Y-47394940D01*
X101867405Y-47455892D01*
X101806453Y-47516845D01*
X101715025Y-47547321D01*
X101654072Y-47547321D01*
X101562644Y-47516845D01*
X101532167Y-47486368D01*
X101257882Y-46907321D02*
X101257882Y-47547321D01*
X100892167Y-46907321D02*
X101166453Y-47273035D01*
X100892167Y-47547321D02*
X101257882Y-47181606D01*
D13*
%TO.C,G\u002A\u002A\u002A*%
X93223277Y-68599144D02*
X93222067Y-68601563D01*
X93222067Y-68605191D01*
X93223277Y-68608820D01*
X93225696Y-68611239D01*
X93228115Y-68612448D01*
X93232953Y-68613658D01*
X93236581Y-68613658D01*
X93241419Y-68612448D01*
X93243838Y-68611239D01*
X93246257Y-68608820D01*
X93247467Y-68605191D01*
X93247467Y-68602772D01*
X93246257Y-68599144D01*
X93245048Y-68597934D01*
X93236581Y-68597934D01*
X93236581Y-68602772D01*
X93222067Y-68583420D02*
X93228115Y-68583420D01*
X93225696Y-68589468D02*
X93228115Y-68583420D01*
X93225696Y-68577372D01*
X93232953Y-68587048D02*
X93228115Y-68583420D01*
X93232953Y-68579791D01*
X93222067Y-68564068D02*
X93228115Y-68564068D01*
X93225696Y-68570115D02*
X93228115Y-68564068D01*
X93225696Y-68558020D01*
X93232953Y-68567696D02*
X93228115Y-68564068D01*
X93232953Y-68560439D01*
X93222067Y-68544715D02*
X93228115Y-68544715D01*
X93225696Y-68550763D02*
X93228115Y-68544715D01*
X93225696Y-68538668D01*
X93232953Y-68548344D02*
X93228115Y-68544715D01*
X93232953Y-68541087D01*
D10*
%TO.C,C4*%
X118208773Y-60807065D02*
X118172487Y-60843351D01*
X118063630Y-60879637D01*
X117991058Y-60879637D01*
X117882201Y-60843351D01*
X117809630Y-60770780D01*
X117773344Y-60698208D01*
X117737058Y-60553065D01*
X117737058Y-60444208D01*
X117773344Y-60299065D01*
X117809630Y-60226494D01*
X117882201Y-60153923D01*
X117991058Y-60117637D01*
X118063630Y-60117637D01*
X118172487Y-60153923D01*
X118208773Y-60190208D01*
X118861915Y-60371637D02*
X118861915Y-60879637D01*
X118680487Y-60081351D02*
X118499058Y-60625637D01*
X118970773Y-60625637D01*
%TO.C,C1*%
X90693040Y-57067203D02*
X90656754Y-57103489D01*
X90547897Y-57139775D01*
X90475325Y-57139775D01*
X90366468Y-57103489D01*
X90293897Y-57030918D01*
X90257611Y-56958346D01*
X90221325Y-56813203D01*
X90221325Y-56704346D01*
X90257611Y-56559203D01*
X90293897Y-56486632D01*
X90366468Y-56414061D01*
X90475325Y-56377775D01*
X90547897Y-56377775D01*
X90656754Y-56414061D01*
X90693040Y-56450346D01*
X91418754Y-57139775D02*
X90983325Y-57139775D01*
X91201040Y-57139775D02*
X91201040Y-56377775D01*
X91128468Y-56486632D01*
X91055897Y-56559203D01*
X90983325Y-56595489D01*
%TO.C,C2*%
X90714080Y-60540693D02*
X90677794Y-60576979D01*
X90568937Y-60613265D01*
X90496365Y-60613265D01*
X90387508Y-60576979D01*
X90314937Y-60504408D01*
X90278651Y-60431836D01*
X90242365Y-60286693D01*
X90242365Y-60177836D01*
X90278651Y-60032693D01*
X90314937Y-59960122D01*
X90387508Y-59887551D01*
X90496365Y-59851265D01*
X90568937Y-59851265D01*
X90677794Y-59887551D01*
X90714080Y-59923836D01*
X91004365Y-59923836D02*
X91040651Y-59887551D01*
X91113222Y-59851265D01*
X91294651Y-59851265D01*
X91367222Y-59887551D01*
X91403508Y-59923836D01*
X91439794Y-59996408D01*
X91439794Y-60068979D01*
X91403508Y-60177836D01*
X90968080Y-60613265D01*
X91439794Y-60613265D01*
D12*
%TO.C,U02*%
X97112299Y-61178153D02*
X97112299Y-61897820D01*
X97154632Y-61982487D01*
X97196966Y-62024820D01*
X97281632Y-62067153D01*
X97450966Y-62067153D01*
X97535632Y-62024820D01*
X97577966Y-61982487D01*
X97620299Y-61897820D01*
X97620299Y-61178153D01*
X98212966Y-61178153D02*
X98297632Y-61178153D01*
X98382299Y-61220487D01*
X98424632Y-61262820D01*
X98466966Y-61347487D01*
X98509299Y-61516820D01*
X98509299Y-61728487D01*
X98466966Y-61897820D01*
X98424632Y-61982487D01*
X98382299Y-62024820D01*
X98297632Y-62067153D01*
X98212966Y-62067153D01*
X98128299Y-62024820D01*
X98085966Y-61982487D01*
X98043632Y-61897820D01*
X98001299Y-61728487D01*
X98001299Y-61516820D01*
X98043632Y-61347487D01*
X98085966Y-61262820D01*
X98128299Y-61220487D01*
X98212966Y-61178153D01*
X98847966Y-61262820D02*
X98890299Y-61220487D01*
X98974966Y-61178153D01*
X99186632Y-61178153D01*
X99271299Y-61220487D01*
X99313632Y-61262820D01*
X99355966Y-61347487D01*
X99355966Y-61432153D01*
X99313632Y-61559153D01*
X98805632Y-62067153D01*
X99355966Y-62067153D01*
D14*
%TO.C,J1*%
X109136582Y-50220287D02*
X109136582Y-50934573D01*
X109088963Y-51077430D01*
X108993725Y-51172668D01*
X108850868Y-51220287D01*
X108755630Y-51220287D01*
X110136582Y-51220287D02*
X109565154Y-51220287D01*
X109850868Y-51220287D02*
X109850868Y-50220287D01*
X109755630Y-50363145D01*
X109660392Y-50458383D01*
X109565154Y-50506002D01*
D10*
%TO.C,C3*%
X118165122Y-56599351D02*
X118128836Y-56635637D01*
X118019979Y-56671923D01*
X117947407Y-56671923D01*
X117838550Y-56635637D01*
X117765979Y-56563066D01*
X117729693Y-56490494D01*
X117693407Y-56345351D01*
X117693407Y-56236494D01*
X117729693Y-56091351D01*
X117765979Y-56018780D01*
X117838550Y-55946209D01*
X117947407Y-55909923D01*
X118019979Y-55909923D01*
X118128836Y-55946209D01*
X118165122Y-55982494D01*
X118419122Y-55909923D02*
X118890836Y-55909923D01*
X118636836Y-56200209D01*
X118745693Y-56200209D01*
X118818264Y-56236494D01*
X118854550Y-56272780D01*
X118890836Y-56345351D01*
X118890836Y-56526780D01*
X118854550Y-56599351D01*
X118818264Y-56635637D01*
X118745693Y-56671923D01*
X118527979Y-56671923D01*
X118455407Y-56635637D01*
X118419122Y-56599351D01*
%TO.C,R1*%
X110604772Y-53909459D02*
X110350772Y-53546602D01*
X110169343Y-53909459D02*
X110169343Y-53147459D01*
X110459629Y-53147459D01*
X110532200Y-53183745D01*
X110568486Y-53220030D01*
X110604772Y-53292602D01*
X110604772Y-53401459D01*
X110568486Y-53474030D01*
X110532200Y-53510316D01*
X110459629Y-53546602D01*
X110169343Y-53546602D01*
X111330486Y-53909459D02*
X110895057Y-53909459D01*
X111112772Y-53909459D02*
X111112772Y-53147459D01*
X111040200Y-53256316D01*
X110967629Y-53328887D01*
X110895057Y-53365173D01*
%TO.C,R2*%
X96689618Y-53918982D02*
X96435618Y-53556125D01*
X96254189Y-53918982D02*
X96254189Y-53156982D01*
X96544475Y-53156982D01*
X96617046Y-53193268D01*
X96653332Y-53229553D01*
X96689618Y-53302125D01*
X96689618Y-53410982D01*
X96653332Y-53483553D01*
X96617046Y-53519839D01*
X96544475Y-53556125D01*
X96254189Y-53556125D01*
X96979903Y-53229553D02*
X97016189Y-53193268D01*
X97088760Y-53156982D01*
X97270189Y-53156982D01*
X97342760Y-53193268D01*
X97379046Y-53229553D01*
X97415332Y-53302125D01*
X97415332Y-53374696D01*
X97379046Y-53483553D01*
X96943618Y-53918982D01*
X97415332Y-53918982D01*
D12*
%TO.C,U01*%
X107976469Y-61472174D02*
X107976469Y-62191841D01*
X108018802Y-62276508D01*
X108061136Y-62318841D01*
X108145802Y-62361174D01*
X108315136Y-62361174D01*
X108399802Y-62318841D01*
X108442136Y-62276508D01*
X108484469Y-62191841D01*
X108484469Y-61472174D01*
X109077136Y-61472174D02*
X109161802Y-61472174D01*
X109246469Y-61514508D01*
X109288802Y-61556841D01*
X109331136Y-61641508D01*
X109373469Y-61810841D01*
X109373469Y-62022508D01*
X109331136Y-62191841D01*
X109288802Y-62276508D01*
X109246469Y-62318841D01*
X109161802Y-62361174D01*
X109077136Y-62361174D01*
X108992469Y-62318841D01*
X108950136Y-62276508D01*
X108907802Y-62191841D01*
X108865469Y-62022508D01*
X108865469Y-61810841D01*
X108907802Y-61641508D01*
X108950136Y-61556841D01*
X108992469Y-61514508D01*
X109077136Y-61472174D01*
X110220136Y-62361174D02*
X109712136Y-62361174D01*
X109966136Y-62361174D02*
X109966136Y-61472174D01*
X109881469Y-61599174D01*
X109796802Y-61683841D01*
X109712136Y-61726174D01*
%TO.C,G\u002A\u002A\u002A*%
G36*
X90618027Y-68606184D02*
G01*
X90593764Y-68561814D01*
X90592240Y-68514360D01*
X90606963Y-68514360D01*
X90610138Y-68543640D01*
X90623591Y-68568748D01*
X90645848Y-68596547D01*
X90668880Y-68604219D01*
X90702504Y-68593289D01*
X90721338Y-68583937D01*
X90756904Y-68552367D01*
X90781350Y-68505831D01*
X90792308Y-68454016D01*
X90787408Y-68406606D01*
X90771406Y-68379267D01*
X90733812Y-68357850D01*
X90694605Y-68362899D01*
X90657788Y-68392002D01*
X90627366Y-68442752D01*
X90616741Y-68472306D01*
X90606963Y-68514360D01*
X90592240Y-68514360D01*
X90591847Y-68502106D01*
X90612293Y-68430872D01*
X90617099Y-68419849D01*
X90653062Y-68364410D01*
X90695046Y-68334279D01*
X90737623Y-68327957D01*
X90775366Y-68343947D01*
X90802847Y-68380751D01*
X90814637Y-68436872D01*
X90812685Y-68473815D01*
X90793555Y-68545876D01*
X90758876Y-68596775D01*
X90734346Y-68614231D01*
X90686565Y-68632821D01*
X90668880Y-68631308D01*
X90650197Y-68629709D01*
X90618027Y-68606184D01*
G37*
G36*
X91095145Y-68749643D02*
G01*
X91076029Y-68707791D01*
X91074843Y-68695336D01*
X91094762Y-68695336D01*
X91116532Y-68728916D01*
X91136591Y-68744304D01*
X91161782Y-68749984D01*
X91190746Y-68731989D01*
X91191409Y-68731391D01*
X91216293Y-68696379D01*
X91215446Y-68664946D01*
X91190473Y-68643554D01*
X91168308Y-68638525D01*
X91122651Y-68643468D01*
X91097468Y-68664629D01*
X91094762Y-68695336D01*
X91074843Y-68695336D01*
X91073962Y-68686082D01*
X91086543Y-68648321D01*
X91117880Y-68620432D01*
X91158363Y-68606567D01*
X91198383Y-68610876D01*
X91218096Y-68623833D01*
X91233177Y-68656621D01*
X91233975Y-68700564D01*
X91221453Y-68741661D01*
X91208849Y-68758334D01*
X91168750Y-68778768D01*
X91161782Y-68778045D01*
X91128451Y-68774587D01*
X91095145Y-68749643D01*
G37*
G36*
X91322099Y-67907493D02*
G01*
X91309064Y-67907573D01*
X91256692Y-67905576D01*
X91221843Y-67896987D01*
X91192750Y-67877913D01*
X91177552Y-67864061D01*
X91130140Y-67801022D01*
X91108517Y-67730145D01*
X91111185Y-67696628D01*
X91132792Y-67696628D01*
X91141439Y-67768952D01*
X91169017Y-67822004D01*
X91209640Y-67856035D01*
X91275490Y-67881778D01*
X91340845Y-67882641D01*
X91400092Y-67861549D01*
X91447616Y-67821429D01*
X91477803Y-67765206D01*
X91485701Y-67712180D01*
X91480020Y-67662867D01*
X91465847Y-67619752D01*
X91461529Y-67612152D01*
X91416012Y-67564884D01*
X91360134Y-67539126D01*
X91299847Y-67533348D01*
X91241105Y-67546021D01*
X91189858Y-67575616D01*
X91152060Y-67620603D01*
X91133663Y-67679451D01*
X91132792Y-67696628D01*
X91111185Y-67696628D01*
X91114335Y-67657044D01*
X91115428Y-67653257D01*
X91137747Y-67605688D01*
X91171142Y-67560500D01*
X91177552Y-67553981D01*
X91208033Y-67528566D01*
X91238682Y-67515484D01*
X91281267Y-67510842D01*
X91309064Y-67510469D01*
X91363214Y-67512849D01*
X91399399Y-67522174D01*
X91428841Y-67541721D01*
X91435008Y-67547237D01*
X91485907Y-67610942D01*
X91510095Y-67681367D01*
X91506570Y-67754416D01*
X91494428Y-67789913D01*
X91469234Y-67831390D01*
X91435715Y-67870129D01*
X91434988Y-67870804D01*
X91405562Y-67892827D01*
X91371671Y-67903965D01*
X91340845Y-67906159D01*
X91322099Y-67907493D01*
G37*
G36*
X91353465Y-69559934D02*
G01*
X91330557Y-69539766D01*
X91327109Y-69510700D01*
X91338698Y-69510700D01*
X91349624Y-69529219D01*
X91372853Y-69531653D01*
X91387724Y-69522956D01*
X91397146Y-69501967D01*
X91380554Y-69489784D01*
X91368114Y-69488639D01*
X91344158Y-69497835D01*
X91338698Y-69510700D01*
X91327109Y-69510700D01*
X91326683Y-69507107D01*
X91336023Y-69476772D01*
X91359803Y-69466855D01*
X91368114Y-69466577D01*
X91396376Y-69473026D01*
X91408243Y-69497981D01*
X91409544Y-69507107D01*
X91405344Y-69543576D01*
X91391160Y-69556480D01*
X91372853Y-69558157D01*
X91353465Y-69559934D01*
G37*
G36*
X90960267Y-68996823D02*
G01*
X90874454Y-68992877D01*
X90797828Y-68975065D01*
X90770571Y-68963117D01*
X90701770Y-68914155D01*
X90637704Y-68846423D01*
X90587143Y-68770288D01*
X90565508Y-68720708D01*
X90545230Y-68619645D01*
X90547278Y-68568901D01*
X90563753Y-68568901D01*
X90574407Y-68672171D01*
X90612798Y-68770337D01*
X90645885Y-68821180D01*
X90718122Y-68895636D01*
X90800228Y-68944997D01*
X90888212Y-68970114D01*
X90978081Y-68971836D01*
X91065846Y-68951014D01*
X91147512Y-68908496D01*
X91219090Y-68845133D01*
X91276587Y-68761776D01*
X91310237Y-68679722D01*
X91322028Y-68595991D01*
X91311469Y-68500597D01*
X91302074Y-68464184D01*
X91259403Y-68368535D01*
X91195045Y-68288770D01*
X91113309Y-68228663D01*
X91018507Y-68191983D01*
X90983451Y-68185434D01*
X90895172Y-68187094D01*
X90805659Y-68212755D01*
X90722911Y-68258491D01*
X90654931Y-68320376D01*
X90626239Y-68360717D01*
X90580981Y-68463944D01*
X90563753Y-68568901D01*
X90547278Y-68568901D01*
X90549262Y-68519745D01*
X90574860Y-68424722D01*
X90619280Y-68338294D01*
X90679776Y-68264176D01*
X90753604Y-68206086D01*
X90838018Y-68167738D01*
X90930275Y-68152850D01*
X90982667Y-68155912D01*
X91082420Y-68183404D01*
X91169264Y-68234226D01*
X91240825Y-68304246D01*
X91294728Y-68389330D01*
X91328600Y-68485344D01*
X91340065Y-68588155D01*
X91326749Y-68693629D01*
X91314614Y-68733783D01*
X91281213Y-68798605D01*
X91229695Y-68865506D01*
X91168796Y-68924564D01*
X91112617Y-68963117D01*
X91043558Y-68986903D01*
X90978081Y-68994701D01*
X90960267Y-68996823D01*
G37*
G36*
X91181661Y-67943080D02*
G01*
X91112307Y-67894891D01*
X91064516Y-67831259D01*
X91039124Y-67757609D01*
X91037635Y-67703697D01*
X91057962Y-67703697D01*
X91070196Y-67776845D01*
X91106471Y-67845519D01*
X91166672Y-67904535D01*
X91175763Y-67910900D01*
X91220697Y-67933497D01*
X91274754Y-67943267D01*
X91309283Y-67944342D01*
X91393337Y-67933080D01*
X91462197Y-67897814D01*
X91519993Y-67836321D01*
X91525870Y-67827834D01*
X91552493Y-67764440D01*
X91558674Y-67690491D01*
X91543918Y-67617050D01*
X91536160Y-67598492D01*
X91492624Y-67538714D01*
X91430944Y-67496239D01*
X91357865Y-67472697D01*
X91280135Y-67469718D01*
X91204500Y-67488931D01*
X91166687Y-67509250D01*
X91106091Y-67564715D01*
X91069888Y-67631259D01*
X91057962Y-67703697D01*
X91037635Y-67703697D01*
X91036963Y-67679369D01*
X91058868Y-67601965D01*
X91105673Y-67530822D01*
X91116527Y-67519380D01*
X91184536Y-67468821D01*
X91258160Y-67443159D01*
X91333239Y-67439978D01*
X91405610Y-67456863D01*
X91471112Y-67491396D01*
X91525583Y-67541162D01*
X91564861Y-67603743D01*
X91584785Y-67676725D01*
X91581193Y-67757690D01*
X91574310Y-67785179D01*
X91537801Y-67859182D01*
X91481214Y-67916408D01*
X91410021Y-67954655D01*
X91329695Y-67971722D01*
X91309283Y-67970188D01*
X91245705Y-67965411D01*
X91181661Y-67943080D01*
G37*
G36*
X91792138Y-68561836D02*
G01*
X91791705Y-68561256D01*
X91773841Y-68518577D01*
X91774578Y-68513959D01*
X91796256Y-68513959D01*
X91803565Y-68543676D01*
X91832429Y-68568439D01*
X91868617Y-68574073D01*
X91902358Y-68562616D01*
X91923878Y-68536105D01*
X91927002Y-68517938D01*
X91916394Y-68486816D01*
X91905750Y-68474487D01*
X91871997Y-68460443D01*
X91837347Y-68465827D01*
X91809524Y-68485410D01*
X91796256Y-68513959D01*
X91774578Y-68513959D01*
X91780100Y-68479333D01*
X91805255Y-68448965D01*
X91844082Y-68432912D01*
X91891356Y-68436615D01*
X91906025Y-68442218D01*
X91932938Y-68468669D01*
X91942826Y-68508732D01*
X91935116Y-68551638D01*
X91913507Y-68583025D01*
X91873254Y-68602657D01*
X91868617Y-68601847D01*
X91830733Y-68595225D01*
X91792138Y-68561836D01*
G37*
G36*
X93307704Y-70377295D02*
G01*
X93283265Y-70371517D01*
X93273428Y-70365429D01*
X93248553Y-70332996D01*
X93243331Y-70304910D01*
X93244417Y-70301110D01*
X93255578Y-70301110D01*
X93261722Y-70329716D01*
X93282787Y-70349147D01*
X93312119Y-70351806D01*
X93332394Y-70341000D01*
X93349858Y-70311620D01*
X93340626Y-70280347D01*
X93320822Y-70262613D01*
X93294789Y-70255269D01*
X93271011Y-70270927D01*
X93255578Y-70301110D01*
X93244417Y-70301110D01*
X93255149Y-70263562D01*
X93273428Y-70244391D01*
X93300209Y-70232199D01*
X93325390Y-70240133D01*
X93335935Y-70247108D01*
X93360886Y-70277182D01*
X93368345Y-70304910D01*
X93356713Y-70340080D01*
X93335935Y-70362712D01*
X93312119Y-70375014D01*
X93307704Y-70377295D01*
G37*
G36*
X93415388Y-67266864D02*
G01*
X93391433Y-67222116D01*
X93386282Y-67186774D01*
X93397760Y-67186774D01*
X93410184Y-67221320D01*
X93440787Y-67255278D01*
X93479564Y-67279635D01*
X93508067Y-67286178D01*
X93555628Y-67273080D01*
X93592450Y-67239167D01*
X93613348Y-67192511D01*
X93613135Y-67141183D01*
X93609238Y-67128730D01*
X93590452Y-67105737D01*
X93557632Y-67082969D01*
X93556251Y-67082246D01*
X93517330Y-67067918D01*
X93482150Y-67072433D01*
X93471696Y-67076430D01*
X93431498Y-67106770D01*
X93404257Y-67152596D01*
X93397760Y-67186774D01*
X93386282Y-67186774D01*
X93384028Y-67171312D01*
X93394180Y-67121139D01*
X93422894Y-67078285D01*
X93469624Y-67049967D01*
X93519201Y-67045749D01*
X93569947Y-67061255D01*
X93609261Y-67091887D01*
X93617216Y-67103846D01*
X93631173Y-67154976D01*
X93628001Y-67212244D01*
X93616098Y-67245732D01*
X93578871Y-67290958D01*
X93529193Y-67310347D01*
X93508933Y-67311448D01*
X93508067Y-67311246D01*
X93454890Y-67298871D01*
X93415388Y-67266864D01*
G37*
G36*
X93451430Y-70513995D02*
G01*
X93444752Y-70483663D01*
X93456591Y-70483663D01*
X93468840Y-70506458D01*
X93497624Y-70516633D01*
X93522775Y-70512851D01*
X93541421Y-70493031D01*
X93542528Y-70464369D01*
X93526458Y-70441363D01*
X93520911Y-70438598D01*
X93489416Y-70439794D01*
X93463947Y-70460499D01*
X93456591Y-70483663D01*
X93444752Y-70483663D01*
X93441883Y-70470632D01*
X93453991Y-70433292D01*
X93484121Y-70412248D01*
X93522983Y-70412872D01*
X93533806Y-70417472D01*
X93553051Y-70441921D01*
X93559238Y-70479415D01*
X93551374Y-70516172D01*
X93541895Y-70529936D01*
X93508346Y-70547993D01*
X93497624Y-70545786D01*
X93475888Y-70541313D01*
X93451430Y-70513995D01*
G37*
G36*
X95340993Y-70896496D02*
G01*
X95301198Y-70876366D01*
X95273708Y-70838926D01*
X95265624Y-70797614D01*
X95269026Y-70784332D01*
X95283240Y-70784332D01*
X95288439Y-70821322D01*
X95318672Y-70855053D01*
X95350120Y-70874653D01*
X95375889Y-70874289D01*
X95388533Y-70868626D01*
X95429261Y-70836706D01*
X95441590Y-70799806D01*
X95425069Y-70759746D01*
X95417774Y-70750972D01*
X95379238Y-70727152D01*
X95336029Y-70730286D01*
X95307228Y-70748417D01*
X95283240Y-70784332D01*
X95269026Y-70784332D01*
X95277934Y-70749547D01*
X95309679Y-70712582D01*
X95353082Y-70695094D01*
X95361223Y-70694661D01*
X95405857Y-70707918D01*
X95440181Y-70742105D01*
X95456420Y-70788847D01*
X95456822Y-70797614D01*
X95446849Y-70840799D01*
X95427407Y-70871152D01*
X95385570Y-70895898D01*
X95350120Y-70896374D01*
X95340993Y-70896496D01*
G37*
G36*
X93587210Y-68624073D02*
G01*
X93563969Y-68603965D01*
X93532664Y-68558766D01*
X93528757Y-68552487D01*
X93509304Y-68515311D01*
X93508451Y-68506475D01*
X93526497Y-68506475D01*
X93529433Y-68515941D01*
X93551609Y-68554419D01*
X93569778Y-68574805D01*
X93589573Y-68576497D01*
X93616631Y-68558893D01*
X93656588Y-68521390D01*
X93678068Y-68500061D01*
X93741661Y-68442668D01*
X93802473Y-68398540D01*
X93842610Y-68377272D01*
X93882100Y-68360590D01*
X93907431Y-68348784D01*
X93912471Y-68345517D01*
X93906670Y-68331625D01*
X93891805Y-68299800D01*
X93880662Y-68276649D01*
X93848799Y-68211065D01*
X93778252Y-68246813D01*
X93715663Y-68284174D01*
X93655828Y-68329847D01*
X93602871Y-68379373D01*
X93560915Y-68428293D01*
X93534083Y-68472147D01*
X93526497Y-68506475D01*
X93508451Y-68506475D01*
X93506538Y-68486644D01*
X93514798Y-68460612D01*
X93539245Y-68419578D01*
X93578464Y-68373593D01*
X93627708Y-68326225D01*
X93682228Y-68281040D01*
X93737278Y-68241604D01*
X93788112Y-68211484D01*
X93829981Y-68194246D01*
X93858138Y-68193458D01*
X93864181Y-68198116D01*
X93880313Y-68223715D01*
X93901053Y-68261998D01*
X93921496Y-68303136D01*
X93936733Y-68337297D01*
X93941941Y-68353901D01*
X93929448Y-68365112D01*
X93896915Y-68382775D01*
X93857680Y-68400374D01*
X93786517Y-68437959D01*
X93717756Y-68488292D01*
X93660118Y-68544102D01*
X93623683Y-68595431D01*
X93605933Y-68620694D01*
X93589573Y-68623647D01*
X93587210Y-68624073D01*
G37*
G36*
X95085810Y-68767381D02*
G01*
X95059534Y-68720892D01*
X95051518Y-68705460D01*
X94995350Y-68602293D01*
X94939946Y-68517418D01*
X94878190Y-68440787D01*
X94821472Y-68380716D01*
X94781900Y-68338780D01*
X94752079Y-68303048D01*
X94738772Y-68282383D01*
X94762595Y-68282383D01*
X94859865Y-68387444D01*
X94898689Y-68433382D01*
X94942151Y-68491192D01*
X94986654Y-68555269D01*
X95028603Y-68620008D01*
X95064402Y-68679804D01*
X95090454Y-68729052D01*
X95103163Y-68762146D01*
X95103840Y-68767712D01*
X95114346Y-68780387D01*
X95141487Y-68777182D01*
X95178694Y-68760299D01*
X95219401Y-68731940D01*
X95225178Y-68727029D01*
X95240858Y-68712516D01*
X95248007Y-68698679D01*
X95246037Y-68678392D01*
X95234359Y-68644528D01*
X95214225Y-68594495D01*
X95187532Y-68532137D01*
X95161361Y-68480694D01*
X95130206Y-68431057D01*
X95088557Y-68374114D01*
X95054903Y-68330959D01*
X94994646Y-68264128D01*
X94939986Y-68224819D01*
X94888416Y-68212275D01*
X94837430Y-68225739D01*
X94797173Y-68253202D01*
X94762595Y-68282383D01*
X94738772Y-68282383D01*
X94737033Y-68279683D01*
X94736151Y-68276087D01*
X94748243Y-68254888D01*
X94778425Y-68228623D01*
X94817555Y-68203347D01*
X94856491Y-68185113D01*
X94881748Y-68179664D01*
X94930403Y-68190686D01*
X94983373Y-68224881D01*
X95042876Y-68283942D01*
X95084259Y-68334093D01*
X95140480Y-68413078D01*
X95190291Y-68496084D01*
X95229768Y-68575653D01*
X95254986Y-68644326D01*
X95260565Y-68669241D01*
X95260284Y-68710534D01*
X95239315Y-68742546D01*
X95233813Y-68747745D01*
X95191733Y-68780355D01*
X95149961Y-68803792D01*
X95120515Y-68812090D01*
X95114346Y-68806303D01*
X95107488Y-68799869D01*
X95085810Y-68767381D01*
G37*
G36*
X94611685Y-70254910D02*
G01*
X94586928Y-70203558D01*
X94570417Y-70167612D01*
X94538689Y-70098552D01*
X94507635Y-70029985D01*
X94481863Y-69972129D01*
X94471472Y-69948251D01*
X94438377Y-69871036D01*
X94336771Y-69871036D01*
X94224979Y-69860030D01*
X94112782Y-69829445D01*
X94013117Y-69782934D01*
X94003291Y-69776886D01*
X93935976Y-69724057D01*
X93868111Y-69653645D01*
X93808605Y-69575917D01*
X93768797Y-69506554D01*
X93737264Y-69410113D01*
X93731985Y-69371848D01*
X93722084Y-69300080D01*
X93722227Y-69290086D01*
X93743389Y-69290086D01*
X93747917Y-69346965D01*
X93769735Y-69448836D01*
X93816526Y-69549336D01*
X93884284Y-69642052D01*
X93969002Y-69720571D01*
X93991333Y-69736537D01*
X94075655Y-69785561D01*
X94162115Y-69817494D01*
X94261147Y-69835670D01*
X94316838Y-69840527D01*
X94449060Y-69848975D01*
X94544806Y-70065766D01*
X94640551Y-70282557D01*
X94684674Y-70274320D01*
X94779962Y-70251100D01*
X94880115Y-70217452D01*
X94976139Y-70177076D01*
X95059040Y-70133669D01*
X95109174Y-70099795D01*
X95152001Y-70060633D01*
X95192994Y-70014298D01*
X95226439Y-69968282D01*
X95246621Y-69930076D01*
X95249997Y-69915159D01*
X95240393Y-69896833D01*
X95213839Y-69862349D01*
X95174191Y-69816348D01*
X95125301Y-69763469D01*
X95115621Y-69753375D01*
X95059911Y-69695503D01*
X95006763Y-69640091D01*
X94962061Y-69593285D01*
X94931686Y-69561229D01*
X94930837Y-69560325D01*
X94880821Y-69506996D01*
X94904085Y-69438473D01*
X94918223Y-69387879D01*
X94926476Y-69341027D01*
X94927349Y-69326745D01*
X94927349Y-69283539D01*
X94335369Y-69286813D01*
X94103724Y-69288094D01*
X93743389Y-69290086D01*
X93722227Y-69290086D01*
X93722544Y-69268025D01*
X93731985Y-69268025D01*
X94089017Y-69268025D01*
X94103724Y-69268025D01*
X94578044Y-69268025D01*
X94568565Y-69220630D01*
X94552115Y-69179883D01*
X94522776Y-69136604D01*
X94512915Y-69125598D01*
X94443474Y-69067945D01*
X94373473Y-69039093D01*
X94300353Y-69038497D01*
X94224592Y-69064126D01*
X94164368Y-69105308D01*
X94122567Y-69158721D01*
X94104208Y-69217573D01*
X94103779Y-69227579D01*
X94103724Y-69268025D01*
X94089017Y-69268025D01*
X94089017Y-69214260D01*
X94103086Y-69151543D01*
X94142742Y-69093654D01*
X94204156Y-69045635D01*
X94225629Y-69034209D01*
X94293802Y-69009013D01*
X94353355Y-69006693D01*
X94414045Y-69027157D01*
X94424200Y-69032372D01*
X94498886Y-69081143D01*
X94553097Y-69135528D01*
X94583556Y-69191681D01*
X94589075Y-69225886D01*
X94589075Y-69268025D01*
X94755761Y-69268025D01*
X94822766Y-69267397D01*
X94878306Y-69265693D01*
X94916176Y-69263180D01*
X94929995Y-69260477D01*
X94933598Y-69239841D01*
X94929509Y-69199206D01*
X94919403Y-69146457D01*
X94904957Y-69089479D01*
X94887847Y-69036157D01*
X94876201Y-69007435D01*
X94814601Y-68906357D01*
X94729973Y-68817737D01*
X94627538Y-68745826D01*
X94512515Y-68694877D01*
X94480971Y-68685530D01*
X94358892Y-68667307D01*
X94238152Y-68675705D01*
X94122421Y-68708249D01*
X94015371Y-68762466D01*
X93920674Y-68835885D01*
X93842000Y-68926030D01*
X93783021Y-69030430D01*
X93747408Y-69146611D01*
X93741822Y-69183456D01*
X93731985Y-69268025D01*
X93722544Y-69268025D01*
X93723698Y-69187606D01*
X93742551Y-69083840D01*
X93750962Y-69057912D01*
X93810549Y-68932128D01*
X93889968Y-68828048D01*
X93989004Y-68745852D01*
X94107440Y-68685722D01*
X94242750Y-68648257D01*
X94365727Y-68639984D01*
X94487095Y-68658768D01*
X94602668Y-68702365D01*
X94708263Y-68768530D01*
X94799695Y-68855020D01*
X94872780Y-68959588D01*
X94891487Y-68996242D01*
X94936179Y-69121433D01*
X94953013Y-69245308D01*
X94943434Y-69356270D01*
X94932915Y-69408829D01*
X94923741Y-69454933D01*
X94919992Y-69473931D01*
X94920113Y-69490192D01*
X94928227Y-69510358D01*
X94946901Y-69537729D01*
X94978706Y-69575607D01*
X95026209Y-69627292D01*
X95091980Y-69696086D01*
X95096560Y-69700827D01*
X95155583Y-69762792D01*
X95206739Y-69818220D01*
X95246750Y-69863417D01*
X95272340Y-69894690D01*
X95280331Y-69907888D01*
X95272702Y-69928758D01*
X95253055Y-69964569D01*
X95234761Y-69993622D01*
X95169064Y-70076118D01*
X95088980Y-70144475D01*
X94990170Y-70201516D01*
X94868298Y-70250065D01*
X94814823Y-70266938D01*
X94742416Y-70288548D01*
X94692258Y-70300735D01*
X94657990Y-70300915D01*
X94640551Y-70290754D01*
X94633252Y-70286501D01*
X94611685Y-70254910D01*
G37*
G36*
X96004397Y-68780479D02*
G01*
X96009084Y-68787220D01*
X96010589Y-68791210D01*
X96000138Y-68802050D01*
X95965567Y-68815912D01*
X95911761Y-68830929D01*
X95898407Y-68834070D01*
X95842993Y-68845512D01*
X95799197Y-68852285D01*
X95774331Y-68853336D01*
X95771590Y-68852315D01*
X95780301Y-68844415D01*
X95811230Y-68831298D01*
X95858213Y-68815487D01*
X95870903Y-68811658D01*
X95932658Y-68793506D01*
X95971769Y-68782804D01*
X95993820Y-68778734D01*
X96004397Y-68780479D01*
G37*
G36*
X94050087Y-67083144D02*
G01*
X94028827Y-67081103D01*
X93973239Y-67055162D01*
X93936357Y-67012697D01*
X93922489Y-66961706D01*
X93942729Y-66961706D01*
X93955656Y-67003856D01*
X93980693Y-67031405D01*
X94026534Y-67057075D01*
X94072787Y-67057847D01*
X94117834Y-67040135D01*
X94161049Y-67006061D01*
X94176669Y-66964640D01*
X94163929Y-66919025D01*
X94151524Y-66901286D01*
X94119242Y-66877154D01*
X94076382Y-66861913D01*
X94074305Y-66861559D01*
X94020747Y-66863937D01*
X93978689Y-66885551D01*
X93951544Y-66920206D01*
X93942729Y-66961706D01*
X93922489Y-66961706D01*
X93922040Y-66960056D01*
X93928831Y-66916552D01*
X93957428Y-66874740D01*
X94004223Y-66844627D01*
X94058679Y-66831623D01*
X94089527Y-66834032D01*
X94139518Y-66858266D01*
X94174303Y-66900659D01*
X94190089Y-66952865D01*
X94183082Y-67006537D01*
X94175313Y-67022819D01*
X94144787Y-67052105D01*
X94098511Y-67074017D01*
X94072787Y-67078865D01*
X94050087Y-67083144D01*
G37*
G36*
X96294670Y-67798373D02*
G01*
X96242612Y-67788004D01*
X96197875Y-67760554D01*
X96165836Y-67719422D01*
X96151873Y-67668006D01*
X96151936Y-67667619D01*
X96169025Y-67667619D01*
X96176126Y-67698069D01*
X96205050Y-67738166D01*
X96249625Y-67761995D01*
X96301488Y-67769330D01*
X96352273Y-67759950D01*
X96393615Y-67733631D01*
X96412713Y-67704383D01*
X96424322Y-67671000D01*
X96423614Y-67646707D01*
X96411194Y-67615735D01*
X96379932Y-67574504D01*
X96337424Y-67553037D01*
X96289752Y-67549204D01*
X96242995Y-67560876D01*
X96203235Y-67585922D01*
X96176551Y-67622212D01*
X96169025Y-67667619D01*
X96151936Y-67667619D01*
X96161360Y-67609704D01*
X96163192Y-67605089D01*
X96197541Y-67557141D01*
X96248246Y-67527700D01*
X96306564Y-67519936D01*
X96358629Y-67534251D01*
X96409742Y-67573876D01*
X96437148Y-67624583D01*
X96439697Y-67680140D01*
X96416237Y-67734314D01*
X96399239Y-67754275D01*
X96348671Y-67788263D01*
X96301488Y-67797097D01*
X96294670Y-67798373D01*
G37*
G36*
X95708023Y-70652662D02*
G01*
X95685520Y-70616132D01*
X95681835Y-70579455D01*
X95696027Y-70579455D01*
X95705323Y-70618266D01*
X95734720Y-70648253D01*
X95773222Y-70657868D01*
X95811886Y-70649152D01*
X95841768Y-70624147D01*
X95853925Y-70584892D01*
X95853927Y-70584354D01*
X95840493Y-70546092D01*
X95817878Y-70524643D01*
X95775983Y-70510564D01*
X95737266Y-70518702D01*
X95708393Y-70543513D01*
X95696027Y-70579455D01*
X95681835Y-70579455D01*
X95680628Y-70567445D01*
X95697926Y-70527547D01*
X95730642Y-70500071D01*
X95772006Y-70488647D01*
X95815249Y-70496907D01*
X95852240Y-70526720D01*
X95876071Y-70562720D01*
X95880087Y-70592715D01*
X95866088Y-70630652D01*
X95865738Y-70631378D01*
X95834626Y-70667463D01*
X95792251Y-70682555D01*
X95773222Y-70680370D01*
X95747192Y-70677380D01*
X95708023Y-70652662D01*
G37*
G36*
X96618327Y-68515799D02*
G01*
X96560258Y-68489881D01*
X96542073Y-68475320D01*
X96509890Y-68440652D01*
X96496427Y-68404803D01*
X96494376Y-68370862D01*
X96494915Y-68365445D01*
X96518757Y-68365445D01*
X96526664Y-68423455D01*
X96557859Y-68465643D01*
X96608894Y-68488446D01*
X96640783Y-68491464D01*
X96700446Y-68479694D01*
X96741996Y-68446756D01*
X96761981Y-68396213D01*
X96762809Y-68365445D01*
X96751362Y-68315550D01*
X96722352Y-68280835D01*
X96719382Y-68278572D01*
X96665344Y-68253454D01*
X96611567Y-68253443D01*
X96564705Y-68275658D01*
X96531410Y-68317220D01*
X96518757Y-68365445D01*
X96494915Y-68365445D01*
X96498937Y-68325061D01*
X96517308Y-68291191D01*
X96542073Y-68266404D01*
X96596620Y-68233803D01*
X96652955Y-68226475D01*
X96705640Y-68241181D01*
X96749236Y-68274682D01*
X96778302Y-68323737D01*
X96787400Y-68385108D01*
X96784523Y-68410806D01*
X96769670Y-68441427D01*
X96740697Y-68474998D01*
X96734297Y-68480667D01*
X96677179Y-68512751D01*
X96640783Y-68514636D01*
X96618327Y-68515799D01*
G37*
G36*
X89777163Y-68382613D02*
G01*
X89748499Y-68375143D01*
X89742925Y-68370862D01*
X89725670Y-68366736D01*
X89680140Y-68363243D01*
X89607468Y-68360414D01*
X89508790Y-68358277D01*
X89385239Y-68356864D01*
X89237948Y-68356203D01*
X89181114Y-68356155D01*
X89036406Y-68356292D01*
X88918397Y-68356775D01*
X88824368Y-68357708D01*
X88751604Y-68359194D01*
X88697388Y-68361340D01*
X88659004Y-68364248D01*
X88633734Y-68368024D01*
X88618863Y-68372773D01*
X88612063Y-68378046D01*
X88589158Y-68392395D01*
X88548510Y-68392041D01*
X88544257Y-68391391D01*
X88540580Y-68390829D01*
X88504133Y-68382046D01*
X88488579Y-68366860D01*
X88486497Y-68348801D01*
X88500134Y-68348801D01*
X88513289Y-68366316D01*
X88544257Y-68370862D01*
X88579287Y-68364285D01*
X88588380Y-68348801D01*
X89764987Y-68348801D01*
X89774701Y-68364141D01*
X89806904Y-68370462D01*
X89823817Y-68370862D01*
X89864724Y-68367219D01*
X89881580Y-68355143D01*
X89882647Y-68348801D01*
X89872933Y-68333461D01*
X89840730Y-68327140D01*
X89823817Y-68326740D01*
X89782911Y-68330382D01*
X89766055Y-68342458D01*
X89764987Y-68348801D01*
X88588380Y-68348801D01*
X88575225Y-68331286D01*
X88544257Y-68326740D01*
X88509228Y-68333317D01*
X88500134Y-68348801D01*
X88486497Y-68348801D01*
X88485427Y-68339523D01*
X88487908Y-68312519D01*
X88500935Y-68300460D01*
X88532883Y-68297387D01*
X88544719Y-68297324D01*
X88587303Y-68301992D01*
X88610242Y-68314417D01*
X88611463Y-68316745D01*
X88618271Y-68321799D01*
X88636044Y-68325790D01*
X88667260Y-68328776D01*
X88714397Y-68330813D01*
X88779931Y-68331959D01*
X88866341Y-68332272D01*
X88976102Y-68331808D01*
X89111693Y-68330624D01*
X89180921Y-68329881D01*
X89306920Y-68328143D01*
X89423789Y-68325898D01*
X89528238Y-68323257D01*
X89616974Y-68320331D01*
X89686705Y-68317232D01*
X89734141Y-68314069D01*
X89755988Y-68310955D01*
X89756898Y-68310460D01*
X89779429Y-68302194D01*
X89818549Y-68297635D01*
X89832113Y-68297324D01*
X89893357Y-68297324D01*
X89902654Y-68229492D01*
X89916098Y-68164247D01*
X89939781Y-68081106D01*
X89970730Y-67988452D01*
X89983664Y-67954032D01*
X90033779Y-67954032D01*
X90035448Y-68006824D01*
X90035952Y-68009701D01*
X90045986Y-68063190D01*
X90137131Y-67969556D01*
X90186738Y-67921914D01*
X90237332Y-67878751D01*
X90279777Y-67847735D01*
X90288488Y-67842530D01*
X90323588Y-67821747D01*
X90340677Y-67803123D01*
X90345039Y-67775930D01*
X90342290Y-67733341D01*
X90335700Y-67677114D01*
X90326551Y-67623656D01*
X90322528Y-67606068D01*
X90306187Y-67553154D01*
X90290193Y-67527561D01*
X90271781Y-67527358D01*
X90248185Y-67550615D01*
X90246383Y-67552923D01*
X90212003Y-67601066D01*
X90172421Y-67662126D01*
X90131775Y-67729031D01*
X90094204Y-67794708D01*
X90063846Y-67852087D01*
X90044842Y-67894095D01*
X90042253Y-67901690D01*
X90033779Y-67954032D01*
X89983664Y-67954032D01*
X90005971Y-67894670D01*
X90042531Y-67808144D01*
X90076793Y-67738436D01*
X90141491Y-67625670D01*
X90203558Y-67531355D01*
X90264586Y-67453059D01*
X90323699Y-67453059D01*
X90344974Y-67525887D01*
X90362495Y-67601321D01*
X90378547Y-67700662D01*
X90392388Y-67818406D01*
X90403273Y-67949054D01*
X90404414Y-67966404D01*
X90409355Y-68039787D01*
X90414833Y-68114812D01*
X90419817Y-68177492D01*
X90420732Y-68188080D01*
X90428609Y-68277388D01*
X90520385Y-68187401D01*
X90610065Y-68110504D01*
X90700747Y-68057405D01*
X90801235Y-68023541D01*
X90858067Y-68012371D01*
X90958385Y-67996334D01*
X90953666Y-67746048D01*
X90952106Y-67654459D01*
X90951731Y-67587332D01*
X90952313Y-67566033D01*
X90967037Y-67566033D01*
X90967042Y-67597751D01*
X90968316Y-67652012D01*
X90970651Y-67721981D01*
X90973839Y-67800823D01*
X90974945Y-67825492D01*
X90979486Y-67913676D01*
X90984699Y-67976678D01*
X90992036Y-68018720D01*
X91002949Y-68044025D01*
X91018888Y-68056815D01*
X91041305Y-68061313D01*
X91056163Y-68061778D01*
X91104488Y-68072987D01*
X91163771Y-68102713D01*
X91227350Y-68145921D01*
X91288560Y-68197576D01*
X91340740Y-68252642D01*
X91375745Y-68303284D01*
X91404218Y-68356155D01*
X92048161Y-68356155D01*
X92038401Y-68212756D01*
X92032842Y-68135602D01*
X92025706Y-68042957D01*
X92018074Y-67948624D01*
X92013353Y-67892866D01*
X92004872Y-67803136D01*
X91993926Y-67698879D01*
X91982096Y-67594704D01*
X91973564Y-67525176D01*
X91949063Y-67333977D01*
X91699034Y-67329442D01*
X91521277Y-67329455D01*
X91370813Y-67336740D01*
X91246327Y-67351721D01*
X91146505Y-67374823D01*
X91070032Y-67406471D01*
X91015594Y-67447089D01*
X90981876Y-67497103D01*
X90967564Y-67556937D01*
X90967037Y-67566033D01*
X90952313Y-67566033D01*
X90953032Y-67539719D01*
X90956498Y-67506675D01*
X90962621Y-67483254D01*
X90971893Y-67464510D01*
X90983278Y-67447628D01*
X91023477Y-67405330D01*
X91079454Y-67370768D01*
X91153397Y-67343471D01*
X91247495Y-67322968D01*
X91363937Y-67308787D01*
X91504911Y-67300458D01*
X91672606Y-67297508D01*
X91680650Y-67297494D01*
X91775581Y-67297073D01*
X91844890Y-67295831D01*
X91892365Y-67293444D01*
X91921794Y-67289589D01*
X91936966Y-67283940D01*
X91941669Y-67276173D01*
X91941709Y-67275147D01*
X91937191Y-67265459D01*
X91920582Y-67259009D01*
X91887304Y-67255199D01*
X91832778Y-67253431D01*
X91772572Y-67253086D01*
X91705952Y-67252189D01*
X91651643Y-67249753D01*
X91622285Y-67246834D01*
X91615462Y-67246156D01*
X91603180Y-67242055D01*
X91600198Y-67223116D01*
X91592597Y-67183721D01*
X91581981Y-67132165D01*
X91581278Y-67128841D01*
X91570552Y-67072229D01*
X91567880Y-67038857D01*
X91592948Y-67038857D01*
X91593583Y-67053341D01*
X91598246Y-67089107D01*
X91605933Y-67138455D01*
X91606051Y-67139163D01*
X91622285Y-67237138D01*
X91741552Y-67229465D01*
X91821474Y-67224159D01*
X91875867Y-67218226D01*
X91908506Y-67208519D01*
X91923170Y-67191885D01*
X91923633Y-67165176D01*
X91913674Y-67125240D01*
X91904296Y-67093720D01*
X91881590Y-67017261D01*
X91738836Y-67026893D01*
X91677708Y-67031221D01*
X91628975Y-67035057D01*
X91599123Y-67037868D01*
X91592948Y-67038857D01*
X91567880Y-67038857D01*
X91567800Y-67037862D01*
X91572840Y-67019720D01*
X91577856Y-67015082D01*
X91600461Y-67009568D01*
X91644003Y-67005353D01*
X91700013Y-67003186D01*
X91713742Y-67003057D01*
X91786365Y-67000964D01*
X91833127Y-66994592D01*
X91857414Y-66982805D01*
X91862611Y-66964467D01*
X91859742Y-66954081D01*
X91851265Y-66942841D01*
X91832640Y-66935576D01*
X91798548Y-66931481D01*
X91743667Y-66929754D01*
X91697097Y-66929519D01*
X91685405Y-66929474D01*
X91628566Y-66929255D01*
X91583682Y-66927588D01*
X91556677Y-66923207D01*
X91541781Y-66914801D01*
X91533228Y-66901058D01*
X91529380Y-66891391D01*
X91523553Y-66879101D01*
X91544605Y-66879101D01*
X91550410Y-66889177D01*
X91570944Y-66895569D01*
X91610883Y-66898974D01*
X91674905Y-66900090D01*
X91685405Y-66900104D01*
X91750723Y-66899590D01*
X91791768Y-66897401D01*
X91813676Y-66892564D01*
X91821581Y-66884107D01*
X91821328Y-66874365D01*
X91806816Y-66855006D01*
X91769472Y-66844965D01*
X91757742Y-66843780D01*
X91697173Y-66842134D01*
X91638518Y-66846189D01*
X91588856Y-66854770D01*
X91555260Y-66866705D01*
X91544605Y-66879101D01*
X91523553Y-66879101D01*
X91518983Y-66869464D01*
X91503891Y-66859590D01*
X91475365Y-66859115D01*
X91437822Y-66863611D01*
X91350864Y-66879114D01*
X91248322Y-66903300D01*
X91141559Y-66933052D01*
X91041937Y-66965256D01*
X90976156Y-66990215D01*
X90830852Y-67060556D01*
X90682246Y-67150253D01*
X90540145Y-67252638D01*
X90414359Y-67361044D01*
X90378940Y-67396139D01*
X90323699Y-67453059D01*
X90264586Y-67453059D01*
X90269976Y-67446144D01*
X90347731Y-67360689D01*
X90393605Y-67314393D01*
X90566706Y-67162909D01*
X90752720Y-67037784D01*
X90951969Y-66938866D01*
X91164775Y-66866005D01*
X91316104Y-66834657D01*
X91855834Y-66834657D01*
X91860234Y-66852058D01*
X91875159Y-66886661D01*
X91881927Y-66901911D01*
X91907336Y-66967065D01*
X91930487Y-67043751D01*
X91952162Y-67135627D01*
X91973141Y-67246352D01*
X91994205Y-67379583D01*
X92013361Y-67517822D01*
X92038179Y-67716614D01*
X92057518Y-67897956D01*
X92071913Y-68070241D01*
X92081897Y-68241865D01*
X92088006Y-68421224D01*
X92090774Y-68616712D01*
X92091061Y-68738552D01*
X92089803Y-68906092D01*
X92086059Y-69057822D01*
X92079296Y-69201752D01*
X92068981Y-69345896D01*
X92054583Y-69498266D01*
X92048161Y-69555213D01*
X92035569Y-69666873D01*
X92022195Y-69775437D01*
X92013740Y-69832434D01*
X92001465Y-69902470D01*
X91986674Y-69979384D01*
X91970670Y-70057016D01*
X91954758Y-70129205D01*
X91940243Y-70189792D01*
X91928429Y-70232617D01*
X91921673Y-70250157D01*
X91923741Y-70266088D01*
X91944347Y-70275945D01*
X91972661Y-70275305D01*
X91978605Y-70273411D01*
X91999585Y-70253343D01*
X92007886Y-70233426D01*
X92014166Y-70205362D01*
X92024928Y-70157082D01*
X92038277Y-70097087D01*
X92044389Y-70069588D01*
X92060489Y-69999302D01*
X92077286Y-69929488D01*
X92091785Y-69872506D01*
X92095123Y-69860181D01*
X92106447Y-69810424D01*
X92119834Y-69737454D01*
X92134408Y-69647325D01*
X92149294Y-69546092D01*
X92163616Y-69439810D01*
X92176498Y-69334533D01*
X92187066Y-69236316D01*
X92190317Y-69201841D01*
X92194154Y-69137982D01*
X92196727Y-69049675D01*
X92198096Y-68941858D01*
X92198322Y-68819468D01*
X92197464Y-68687442D01*
X92195584Y-68550719D01*
X92192741Y-68414236D01*
X92188998Y-68282931D01*
X92184413Y-68161740D01*
X92179048Y-68055601D01*
X92175623Y-68003173D01*
X92158783Y-67808846D01*
X92137060Y-67630944D01*
X92108629Y-67456634D01*
X92072115Y-67275147D01*
X92040955Y-67137824D01*
X92012731Y-67027736D01*
X91988144Y-66947926D01*
X92012039Y-66947926D01*
X92020287Y-66981626D01*
X92022482Y-66988010D01*
X92041957Y-67051096D01*
X92064517Y-67137025D01*
X92088848Y-67239556D01*
X92113632Y-67352448D01*
X92137556Y-67469462D01*
X92159303Y-67584355D01*
X92177559Y-67690886D01*
X92191007Y-67782816D01*
X92192480Y-67794558D01*
X92199166Y-67864822D01*
X92205381Y-67959554D01*
X92211021Y-68073810D01*
X92215981Y-68202644D01*
X92220157Y-68341113D01*
X92223443Y-68484270D01*
X92225736Y-68627173D01*
X92226930Y-68764875D01*
X92226920Y-68892432D01*
X92225603Y-69004900D01*
X92222873Y-69097334D01*
X92220872Y-69135657D01*
X92213730Y-69229996D01*
X92203910Y-69334095D01*
X92192079Y-69442904D01*
X92178907Y-69551371D01*
X92165064Y-69654448D01*
X92151218Y-69747083D01*
X92138040Y-69824227D01*
X92126198Y-69880830D01*
X92118725Y-69906426D01*
X92105514Y-69947484D01*
X92091774Y-69999414D01*
X92087875Y-70016368D01*
X92077237Y-70062900D01*
X92067895Y-70100404D01*
X92065193Y-70110034D01*
X92061160Y-70133951D01*
X92069083Y-70135210D01*
X92086098Y-70116561D01*
X92109337Y-70080754D01*
X92124663Y-70052969D01*
X92155541Y-70002711D01*
X92199154Y-69942709D01*
X92247376Y-69883951D01*
X92260224Y-69869626D01*
X92306772Y-69815318D01*
X92349630Y-69759076D01*
X92381439Y-69710743D01*
X92388015Y-69698688D01*
X92409985Y-69641185D01*
X92431716Y-69557627D01*
X92452527Y-69451371D01*
X92471736Y-69325774D01*
X92484346Y-69223902D01*
X92489033Y-69164063D01*
X92492752Y-69079082D01*
X92495500Y-68973221D01*
X92497274Y-68850736D01*
X92498070Y-68715888D01*
X92497884Y-68572936D01*
X92496711Y-68426137D01*
X92494550Y-68279751D01*
X92491395Y-68138038D01*
X92487244Y-68005255D01*
X92485447Y-67959050D01*
X92480231Y-67840795D01*
X92475263Y-67748235D01*
X92470176Y-67677656D01*
X92464603Y-67625342D01*
X92458176Y-67587580D01*
X92450528Y-67560656D01*
X92444744Y-67547237D01*
X92427861Y-67519320D01*
X92396470Y-67472694D01*
X92353875Y-67412062D01*
X92335062Y-67386006D01*
X92413613Y-67386006D01*
X92449363Y-67438686D01*
X92474117Y-67483803D01*
X92490287Y-67529017D01*
X92491982Y-67537686D01*
X92498457Y-67594938D01*
X92504941Y-67677302D01*
X92511268Y-67780476D01*
X92517272Y-67900157D01*
X92522789Y-68032043D01*
X92527653Y-68171832D01*
X92531698Y-68315220D01*
X92534760Y-68457906D01*
X92536673Y-68595586D01*
X92537276Y-68716491D01*
X92536257Y-68896949D01*
X92533044Y-69051848D01*
X92527292Y-69184986D01*
X92518656Y-69300160D01*
X92506791Y-69401169D01*
X92491351Y-69491810D01*
X92471992Y-69575882D01*
X92453180Y-69641836D01*
X92421799Y-69743557D01*
X92491686Y-69880591D01*
X92531167Y-69954634D01*
X92576306Y-70034145D01*
X92619396Y-70105696D01*
X92633742Y-70128175D01*
X92705910Y-70238726D01*
X92783717Y-70238726D01*
X92886271Y-70249008D01*
X93000814Y-70277990D01*
X93119258Y-70322873D01*
X93233515Y-70380857D01*
X93282941Y-70411489D01*
X93319776Y-70432560D01*
X93347520Y-70436121D01*
X93373571Y-70419740D01*
X93405323Y-70380983D01*
X93414528Y-70368201D01*
X93444630Y-70325926D01*
X93342360Y-70218262D01*
X93200846Y-70048895D01*
X93084259Y-69864654D01*
X92991935Y-69664345D01*
X92930552Y-69475016D01*
X92916199Y-69418295D01*
X92905989Y-69367851D01*
X92899236Y-69316582D01*
X92895255Y-69257383D01*
X92893362Y-69183151D01*
X92892872Y-69086784D01*
X92892872Y-69084180D01*
X92893047Y-69047647D01*
X92907576Y-69047647D01*
X92907639Y-69104890D01*
X92908159Y-69128303D01*
X92927322Y-69340142D01*
X92973653Y-69543853D01*
X93045550Y-69737438D01*
X93141412Y-69918899D01*
X93259637Y-70086237D01*
X93398624Y-70237452D01*
X93556770Y-70370546D01*
X93732475Y-70483521D01*
X93924137Y-70574378D01*
X94117886Y-70637953D01*
X94203293Y-70654871D01*
X94308761Y-70667448D01*
X94425201Y-70675283D01*
X94543524Y-70677977D01*
X94654640Y-70675126D01*
X94749462Y-70666332D01*
X94752183Y-70665939D01*
X94957418Y-70621494D01*
X95152705Y-70550797D01*
X95335944Y-70455901D01*
X95369574Y-70432623D01*
X95442115Y-70432623D01*
X95449280Y-70447643D01*
X95468734Y-70482235D01*
X95497410Y-70531338D01*
X95532244Y-70589892D01*
X95570170Y-70652835D01*
X95608125Y-70715106D01*
X95643043Y-70771644D01*
X95671859Y-70817388D01*
X95691508Y-70847276D01*
X95698775Y-70856444D01*
X95712974Y-70850719D01*
X95747331Y-70835477D01*
X95795342Y-70813622D01*
X95812954Y-70805508D01*
X95992518Y-70738072D01*
X96185594Y-70694328D01*
X96387803Y-70674618D01*
X96594770Y-70679283D01*
X96802115Y-70708665D01*
X96867412Y-70723241D01*
X96976381Y-70749786D01*
X97108042Y-70615594D01*
X97299227Y-70399919D01*
X97468567Y-70165565D01*
X97614373Y-69915276D01*
X97734957Y-69651795D01*
X97786122Y-69513454D01*
X97823089Y-69394436D01*
X97858352Y-69261480D01*
X97889393Y-69125437D01*
X97913694Y-68997155D01*
X97926468Y-68908473D01*
X97934894Y-68835229D01*
X97938479Y-68784765D01*
X97935108Y-68750570D01*
X97933241Y-68746903D01*
X97922666Y-68726135D01*
X97899036Y-68704949D01*
X97862104Y-68680504D01*
X97849845Y-68672671D01*
X97807659Y-68641792D01*
X97751014Y-68594900D01*
X97685841Y-68537182D01*
X97618071Y-68473824D01*
X97580730Y-68437350D01*
X97443300Y-68290822D01*
X97329185Y-68146488D01*
X97233607Y-67997814D01*
X97167994Y-67872846D01*
X97141261Y-67820256D01*
X97117706Y-67779540D01*
X97100991Y-67756804D01*
X97096718Y-67754067D01*
X97075687Y-67758996D01*
X97032593Y-67773449D01*
X96972454Y-67795472D01*
X96900288Y-67823111D01*
X96821116Y-67854412D01*
X96739956Y-67887419D01*
X96661827Y-67920178D01*
X96592126Y-67950566D01*
X96445457Y-68017726D01*
X96312856Y-68082182D01*
X96180567Y-68150777D01*
X96079385Y-68205692D01*
X95929800Y-68288081D01*
X95972645Y-68372957D01*
X96048812Y-68555310D01*
X96101051Y-68750419D01*
X96129051Y-68953508D01*
X96132501Y-69159796D01*
X96111089Y-69364506D01*
X96064506Y-69562859D01*
X96052515Y-69600233D01*
X95996615Y-69742022D01*
X95925262Y-69885407D01*
X95850114Y-70008949D01*
X95797323Y-70079169D01*
X95729745Y-70158136D01*
X95655126Y-70237608D01*
X95581215Y-70309342D01*
X95515758Y-70365096D01*
X95514321Y-70366196D01*
X95476427Y-70396796D01*
X95450279Y-70421164D01*
X95442115Y-70432623D01*
X95369574Y-70432623D01*
X95505036Y-70338859D01*
X95657882Y-70201725D01*
X95792382Y-70046551D01*
X95906435Y-69875393D01*
X95997944Y-69690302D01*
X96064807Y-69493332D01*
X96095347Y-69352339D01*
X96105864Y-69273204D01*
X96113149Y-69184969D01*
X96116908Y-69096271D01*
X96116848Y-69015744D01*
X96112674Y-68952025D01*
X96109630Y-68932380D01*
X96100596Y-68887210D01*
X96047122Y-68906937D01*
X96006387Y-68919807D01*
X95948541Y-68935458D01*
X95885286Y-68950745D01*
X95877892Y-68952404D01*
X95762134Y-68978146D01*
X95770853Y-69053224D01*
X95773971Y-69139301D01*
X95766948Y-69242986D01*
X95751034Y-69354765D01*
X95727482Y-69465128D01*
X95707384Y-69535625D01*
X95636137Y-69711782D01*
X95568388Y-69827207D01*
X95542473Y-69871359D01*
X95428954Y-70013310D01*
X95298141Y-70136591D01*
X95152596Y-70240155D01*
X94994881Y-70322959D01*
X94827557Y-70383955D01*
X94653185Y-70422100D01*
X94508445Y-70433629D01*
X94474328Y-70436347D01*
X94293547Y-70425652D01*
X94130626Y-70392477D01*
X94113404Y-70388970D01*
X93936460Y-70325254D01*
X93861327Y-70288935D01*
X93731005Y-70208088D01*
X93765566Y-70208088D01*
X93901553Y-70275007D01*
X93964157Y-70304455D01*
X94021962Y-70329244D01*
X94066774Y-70345974D01*
X94084083Y-70350743D01*
X94130626Y-70359561D01*
X94139245Y-70280759D01*
X94147828Y-70200325D01*
X94153588Y-70140377D01*
X94157252Y-70092202D01*
X94159545Y-70047085D01*
X94160201Y-70029143D01*
X94160675Y-69987038D01*
X94154980Y-69966529D01*
X94138054Y-69959814D01*
X94114755Y-69959138D01*
X94074647Y-69952769D01*
X94022558Y-69936547D01*
X93987603Y-69922055D01*
X93944977Y-69903078D01*
X93914788Y-69891272D01*
X93904689Y-69889107D01*
X93897643Y-69903523D01*
X93882041Y-69938348D01*
X93860848Y-69986927D01*
X93853750Y-70003404D01*
X93828410Y-70062363D01*
X93804917Y-70116958D01*
X93787791Y-70156683D01*
X93785969Y-70160900D01*
X93765566Y-70208088D01*
X93731005Y-70208088D01*
X93696111Y-70186441D01*
X93550491Y-70063164D01*
X93425868Y-69921434D01*
X93323644Y-69763579D01*
X93245218Y-69591929D01*
X93191993Y-69408814D01*
X93165368Y-69216562D01*
X93162439Y-69126896D01*
X93166339Y-69072471D01*
X93172499Y-69072471D01*
X93182256Y-69211276D01*
X93209155Y-69397240D01*
X93262166Y-69576440D01*
X93339423Y-69745169D01*
X93439062Y-69899725D01*
X93559220Y-70036401D01*
X93628911Y-70098945D01*
X93675021Y-70135559D01*
X93713477Y-70163493D01*
X93738107Y-70178363D01*
X93742573Y-70179676D01*
X93754123Y-70166844D01*
X93773820Y-70132145D01*
X93798826Y-70081000D01*
X93824146Y-70023925D01*
X93851321Y-69961632D01*
X93875258Y-69909879D01*
X93893218Y-69874392D01*
X93902052Y-69861066D01*
X93921033Y-69862670D01*
X93956706Y-69874764D01*
X93982899Y-69886168D01*
X94039138Y-69908032D01*
X94098645Y-69924514D01*
X94118174Y-69928079D01*
X94184458Y-69937561D01*
X94179821Y-70047697D01*
X94175371Y-70119988D01*
X94168458Y-70197278D01*
X94161807Y-70253433D01*
X94154915Y-70303732D01*
X94149983Y-70341715D01*
X94148139Y-70358490D01*
X94155285Y-70369056D01*
X94179798Y-70378451D01*
X94225232Y-70387513D01*
X94295144Y-70397080D01*
X94328468Y-70400977D01*
X94508445Y-70407196D01*
X94691683Y-70386752D01*
X94872275Y-70340932D01*
X95044318Y-70271024D01*
X95125902Y-70227079D01*
X95183831Y-70188376D01*
X95250574Y-70136487D01*
X95320757Y-70076411D01*
X95389006Y-70013144D01*
X95449946Y-69951685D01*
X95498203Y-69897031D01*
X95528402Y-69854180D01*
X95529876Y-69851413D01*
X95538369Y-69834013D01*
X95541569Y-69819341D01*
X95536500Y-69804627D01*
X95520188Y-69787101D01*
X95489661Y-69763990D01*
X95441942Y-69732525D01*
X95374059Y-69689935D01*
X95321611Y-69657391D01*
X95260336Y-69618723D01*
X95207716Y-69584276D01*
X95169127Y-69557656D01*
X95149942Y-69542466D01*
X95149484Y-69541948D01*
X95145697Y-69525060D01*
X95162671Y-69525060D01*
X95174302Y-69534752D01*
X95204990Y-69555170D01*
X95248429Y-69582143D01*
X95254593Y-69585858D01*
X95313284Y-69622053D01*
X95382261Y-69665954D01*
X95447540Y-69708648D01*
X95453470Y-69712605D01*
X95502744Y-69743833D01*
X95543143Y-69766250D01*
X95568388Y-69776504D01*
X95572955Y-69776381D01*
X95591973Y-69753473D01*
X95616007Y-69708439D01*
X95642733Y-69647641D01*
X95669831Y-69577438D01*
X95694978Y-69504192D01*
X95715852Y-69434262D01*
X95730131Y-69374010D01*
X95735478Y-69331199D01*
X95732469Y-69298030D01*
X95715928Y-69282676D01*
X95688467Y-69276430D01*
X95568418Y-69258474D01*
X95469928Y-69246669D01*
X95385951Y-69240296D01*
X95317960Y-69238610D01*
X95206793Y-69238610D01*
X95206793Y-69294350D01*
X95202924Y-69340642D01*
X95193005Y-69398936D01*
X95184732Y-69434790D01*
X95172982Y-69480763D01*
X95164980Y-69513722D01*
X95162671Y-69525060D01*
X95145697Y-69525060D01*
X95143462Y-69515096D01*
X95154246Y-69467317D01*
X95156790Y-69459730D01*
X95170525Y-69408431D01*
X95182342Y-69344712D01*
X95187645Y-69302302D01*
X95196339Y-69209195D01*
X95302124Y-69209195D01*
X95365999Y-69211596D01*
X95445108Y-69218002D01*
X95525732Y-69227214D01*
X95553703Y-69231169D01*
X95634623Y-69243908D01*
X95690538Y-69251156D01*
X95725798Y-69249355D01*
X95744749Y-69234951D01*
X95751739Y-69204386D01*
X95751117Y-69154104D01*
X95747228Y-69080550D01*
X95746888Y-69073149D01*
X95736467Y-68939139D01*
X95718450Y-68827735D01*
X95707793Y-68785307D01*
X95640818Y-68604714D01*
X95549035Y-68438179D01*
X95434502Y-68287783D01*
X95299276Y-68155605D01*
X95145415Y-68043726D01*
X94974977Y-67954225D01*
X94833878Y-67901911D01*
X94781672Y-67886505D01*
X94739641Y-67875380D01*
X94716451Y-67870819D01*
X94715867Y-67870804D01*
X94703263Y-67883675D01*
X94684781Y-67917928D01*
X94663794Y-67967019D01*
X94657103Y-67984788D01*
X94639264Y-68031320D01*
X94615327Y-68090542D01*
X94587931Y-68156307D01*
X94559713Y-68222467D01*
X94533309Y-68282875D01*
X94511357Y-68331383D01*
X94496494Y-68361842D01*
X94492550Y-68368377D01*
X94482832Y-68366580D01*
X94478507Y-68365780D01*
X94454289Y-68354228D01*
X94419110Y-68341290D01*
X94369753Y-68330502D01*
X94346400Y-68327298D01*
X94272862Y-68319386D01*
X94272463Y-68297324D01*
X94294923Y-68297324D01*
X94339518Y-68297324D01*
X94384972Y-68303264D01*
X94432606Y-68317589D01*
X94433473Y-68317948D01*
X94482832Y-68338572D01*
X94535330Y-68226026D01*
X94569677Y-68150096D01*
X94602079Y-68074328D01*
X94630475Y-68004000D01*
X94652808Y-67944392D01*
X94667018Y-67900783D01*
X94671048Y-67878451D01*
X94670988Y-67878158D01*
X94655738Y-67868164D01*
X94620102Y-67858012D01*
X94587871Y-67852304D01*
X94530200Y-67847765D01*
X94459927Y-67847119D01*
X94401553Y-67849882D01*
X94294923Y-67858606D01*
X94294923Y-68297324D01*
X94272463Y-68297324D01*
X94268802Y-68095095D01*
X94267314Y-68004556D01*
X94264547Y-67940103D01*
X94257357Y-67898466D01*
X94242605Y-67876374D01*
X94217148Y-67870557D01*
X94177846Y-67877745D01*
X94121556Y-67894667D01*
X94086723Y-67905552D01*
X93913453Y-67973936D01*
X93751066Y-68067499D01*
X93602957Y-68183229D01*
X93472523Y-68318118D01*
X93363162Y-68469156D01*
X93286299Y-68614736D01*
X93251596Y-68693207D01*
X93313648Y-68743091D01*
X93358742Y-68777572D01*
X93415693Y-68818727D01*
X93468294Y-68855014D01*
X93519949Y-68892406D01*
X93547645Y-68919923D01*
X93554020Y-68940246D01*
X93553646Y-68941786D01*
X93546495Y-68971985D01*
X93537985Y-69015332D01*
X93536208Y-69025350D01*
X93526581Y-69071905D01*
X93515982Y-69110909D01*
X93514210Y-69116002D01*
X93502407Y-69147824D01*
X93495302Y-69146264D01*
X93380223Y-69121003D01*
X93317935Y-69107158D01*
X93261724Y-69094362D01*
X93221653Y-69084914D01*
X93215269Y-69083327D01*
X93172499Y-69072471D01*
X93166339Y-69072471D01*
X93167747Y-69052817D01*
X93184500Y-69052817D01*
X93338662Y-69085925D01*
X93401640Y-69099167D01*
X93452676Y-69109361D01*
X93485772Y-69115343D01*
X93495302Y-69116314D01*
X93500563Y-69100060D01*
X93508603Y-69065190D01*
X93517329Y-69022098D01*
X93524645Y-68981177D01*
X93528457Y-68952820D01*
X93528554Y-68951306D01*
X93516262Y-68920383D01*
X93484550Y-68894461D01*
X93450568Y-68872405D01*
X93402892Y-68839009D01*
X93351060Y-68800977D01*
X93344049Y-68795691D01*
X93299475Y-68762386D01*
X93264784Y-68737280D01*
X93245850Y-68724596D01*
X93244136Y-68723844D01*
X93237556Y-68737098D01*
X93227856Y-68771802D01*
X93216632Y-68820375D01*
X93205483Y-68875233D01*
X93196006Y-68928793D01*
X93189799Y-68973472D01*
X93188562Y-68987607D01*
X93184500Y-69052817D01*
X93167747Y-69052817D01*
X93176158Y-68935426D01*
X93215893Y-68753905D01*
X93279513Y-68583874D01*
X93364890Y-68426875D01*
X93469890Y-68284450D01*
X93592385Y-68158139D01*
X93730243Y-68049484D01*
X93881333Y-67960027D01*
X94043526Y-67891310D01*
X94214690Y-67844874D01*
X94392694Y-67822260D01*
X94575409Y-67825010D01*
X94760702Y-67854665D01*
X94875873Y-67887216D01*
X95031263Y-67949043D01*
X95170635Y-68027767D01*
X95302369Y-68128451D01*
X95356494Y-68177611D01*
X95484950Y-68314093D01*
X95587106Y-68456473D01*
X95666071Y-68610021D01*
X95724952Y-68780007D01*
X95735562Y-68820302D01*
X95749576Y-68874003D01*
X95761548Y-68915600D01*
X95769322Y-68937708D01*
X95770303Y-68939274D01*
X95787227Y-68939305D01*
X95824777Y-68932420D01*
X95875530Y-68920565D01*
X95932062Y-68905686D01*
X95986953Y-68889729D01*
X96032777Y-68874640D01*
X96060574Y-68863183D01*
X96083152Y-68849721D01*
X96093169Y-68833897D01*
X96093014Y-68806552D01*
X96086220Y-68764894D01*
X96076347Y-68719006D01*
X96066086Y-68685398D01*
X96060653Y-68675053D01*
X96041808Y-68673232D01*
X96003656Y-68680062D01*
X95955153Y-68693849D01*
X95901935Y-68709857D01*
X95848413Y-68723573D01*
X95801006Y-68733700D01*
X95766134Y-68738938D01*
X95750214Y-68737989D01*
X95750974Y-68735166D01*
X95767168Y-68727239D01*
X95804637Y-68712082D01*
X95856918Y-68692252D01*
X95890696Y-68679899D01*
X95949368Y-68657988D01*
X95997689Y-68638586D01*
X96028819Y-68624507D01*
X96036118Y-68620066D01*
X96037072Y-68601476D01*
X96027503Y-68562363D01*
X96009063Y-68508979D01*
X96002079Y-68491192D01*
X95917718Y-68316153D01*
X95907939Y-68295863D01*
X95790575Y-68117857D01*
X95651370Y-67958384D01*
X95491707Y-67818652D01*
X95312970Y-67699869D01*
X95116541Y-67603242D01*
X94903804Y-67529980D01*
X94900514Y-67529070D01*
X94854050Y-67517450D01*
X94807731Y-67509015D01*
X94755519Y-67503265D01*
X94691381Y-67499699D01*
X94609278Y-67497817D01*
X94515537Y-67497150D01*
X94412935Y-67497306D01*
X94333600Y-67498788D01*
X94271394Y-67502077D01*
X94220181Y-67507656D01*
X94173824Y-67516007D01*
X94126186Y-67527612D01*
X94125429Y-67527814D01*
X93971626Y-67577815D01*
X93815377Y-67644831D01*
X93669835Y-67722945D01*
X93615999Y-67757014D01*
X93558284Y-67798008D01*
X93497583Y-67845257D01*
X93438488Y-67894670D01*
X93385588Y-67942157D01*
X93343477Y-67983627D01*
X93316743Y-68014989D01*
X93309515Y-68030088D01*
X93320055Y-68048793D01*
X93345598Y-68073527D01*
X93347332Y-68074907D01*
X93385148Y-68104654D01*
X93327942Y-68189958D01*
X93211583Y-68386496D01*
X93119182Y-68592077D01*
X93052947Y-68801490D01*
X93034942Y-68881773D01*
X93021840Y-68945041D01*
X93011566Y-68984276D01*
X93001915Y-69004429D01*
X92990681Y-69010447D01*
X92978594Y-69008260D01*
X92962788Y-69003781D01*
X92944851Y-68998698D01*
X92923533Y-68999065D01*
X92911991Y-69013876D01*
X92907576Y-69047647D01*
X92893047Y-69047647D01*
X92893337Y-68987204D01*
X92894626Y-68935226D01*
X92915959Y-68935226D01*
X92924749Y-68959462D01*
X92944348Y-68971955D01*
X92962788Y-68976321D01*
X92977165Y-68975271D01*
X92988391Y-68962882D01*
X92998736Y-68933985D01*
X93010470Y-68883405D01*
X93016430Y-68854095D01*
X93052915Y-68708745D01*
X93104099Y-68558600D01*
X93166163Y-68412909D01*
X93235291Y-68280917D01*
X93285769Y-68201725D01*
X93312987Y-68161854D01*
X93331798Y-68132319D01*
X93337657Y-68120833D01*
X93327369Y-68107894D01*
X93303595Y-68088485D01*
X93285530Y-68076785D01*
X93270792Y-68075413D01*
X93253844Y-68087942D01*
X93229144Y-68117945D01*
X93202442Y-68153738D01*
X93117603Y-68286098D01*
X93042554Y-68437644D01*
X92981260Y-68598725D01*
X92937686Y-68759696D01*
X92925008Y-68828917D01*
X92916528Y-68893594D01*
X92915959Y-68935226D01*
X92894626Y-68935226D01*
X92895189Y-68912531D01*
X92899112Y-68853058D01*
X92905792Y-68801683D01*
X92915913Y-68751302D01*
X92930159Y-68694811D01*
X92930552Y-68693344D01*
X93000808Y-68480994D01*
X93093483Y-68286878D01*
X93209806Y-68108826D01*
X93351007Y-67944669D01*
X93360364Y-67935146D01*
X93452543Y-67850766D01*
X93559889Y-67766634D01*
X93672746Y-67689626D01*
X93781457Y-67626620D01*
X93820854Y-67607231D01*
X93862328Y-67586691D01*
X93890267Y-67570266D01*
X93897810Y-67563108D01*
X93893003Y-67547009D01*
X93879770Y-67508369D01*
X93859888Y-67452233D01*
X93835132Y-67383651D01*
X93822367Y-67348685D01*
X93790087Y-67256104D01*
X93757153Y-67154015D01*
X93727316Y-67054489D01*
X93704327Y-66969600D01*
X93703352Y-66965663D01*
X93670697Y-66832944D01*
X93693699Y-66832944D01*
X93700876Y-66877497D01*
X93717364Y-66943269D01*
X93727909Y-66982709D01*
X93749017Y-67057397D01*
X93774234Y-67140163D01*
X93801959Y-67226436D01*
X93830589Y-67311647D01*
X93858526Y-67391228D01*
X93884166Y-67460610D01*
X93905909Y-67515223D01*
X93922153Y-67550498D01*
X93930897Y-67561945D01*
X93946153Y-67557468D01*
X93980876Y-67545865D01*
X94017205Y-67533265D01*
X94158751Y-67494720D01*
X94317931Y-67470637D01*
X94486638Y-67461242D01*
X94656764Y-67466761D01*
X94820202Y-67487421D01*
X94915669Y-67508204D01*
X95089083Y-67564869D01*
X95264158Y-67644135D01*
X95415022Y-67731186D01*
X95484213Y-67781677D01*
X95563383Y-67849036D01*
X95646047Y-67926820D01*
X95725718Y-68008586D01*
X95795913Y-68087892D01*
X95850145Y-68158295D01*
X95860337Y-68173575D01*
X95917718Y-68263085D01*
X96051283Y-68189267D01*
X96213608Y-68103341D01*
X96393640Y-68014602D01*
X96581924Y-67927369D01*
X96769007Y-67845962D01*
X96945437Y-67774700D01*
X97019503Y-67746848D01*
X97063433Y-67729239D01*
X97083911Y-67713035D01*
X97085433Y-67690457D01*
X97072825Y-67654560D01*
X97056500Y-67613785D01*
X97044661Y-67584006D01*
X97023456Y-67517294D01*
X97002632Y-67428366D01*
X96983286Y-67324416D01*
X96966513Y-67212635D01*
X96953411Y-67100215D01*
X96945076Y-66994348D01*
X96943468Y-66943269D01*
X96972148Y-66943269D01*
X96973710Y-67040943D01*
X96977717Y-67129579D01*
X96984338Y-67204375D01*
X96987253Y-67226060D01*
X97038457Y-67471922D01*
X97116093Y-67706595D01*
X97219292Y-67928383D01*
X97347187Y-68135588D01*
X97498911Y-68326514D01*
X97607003Y-68438309D01*
X97659731Y-68486849D01*
X97718530Y-68537693D01*
X97778580Y-68587056D01*
X97835062Y-68631155D01*
X97883159Y-68666208D01*
X97918050Y-68688431D01*
X97933241Y-68694429D01*
X97936843Y-68680689D01*
X97939779Y-68643330D01*
X97941736Y-68588150D01*
X97942404Y-68524683D01*
X97942404Y-68354937D01*
X97927447Y-68337534D01*
X97831852Y-68226309D01*
X97672426Y-68021841D01*
X97538299Y-67809426D01*
X97431312Y-67592052D01*
X97411673Y-67544046D01*
X97377631Y-67443700D01*
X97347140Y-67327352D01*
X97321420Y-67202519D01*
X97301691Y-67076721D01*
X97289173Y-66957476D01*
X97285085Y-66852304D01*
X97285482Y-66844529D01*
X97310379Y-66844529D01*
X97313275Y-66930711D01*
X97313794Y-66944318D01*
X97329397Y-67135879D01*
X97362307Y-67316369D01*
X97414417Y-67491810D01*
X97487621Y-67668221D01*
X97583810Y-67851624D01*
X97616632Y-67907573D01*
X97646564Y-67953812D01*
X97686195Y-68009848D01*
X97731877Y-68071109D01*
X97779963Y-68133023D01*
X97826808Y-68191016D01*
X97868765Y-68240518D01*
X97902188Y-68276955D01*
X97923429Y-68295754D01*
X97927447Y-68297324D01*
X97930694Y-68284124D01*
X97929740Y-68249906D01*
X97926036Y-68212756D01*
X97919944Y-68160103D01*
X97915565Y-68115045D01*
X97914230Y-68095410D01*
X97910335Y-68073209D01*
X97895291Y-68071581D01*
X97876158Y-68079415D01*
X97849166Y-68089222D01*
X97847783Y-68089724D01*
X97834520Y-68090130D01*
X97786665Y-68028774D01*
X97755549Y-67985471D01*
X97738982Y-67955754D01*
X97737250Y-67947275D01*
X97770350Y-67947275D01*
X97780643Y-67970836D01*
X97803130Y-68007439D01*
X97829854Y-68046202D01*
X97849166Y-68063152D01*
X97866870Y-68062758D01*
X97871914Y-68060372D01*
X97888267Y-68050127D01*
X97895930Y-68036814D01*
X97895581Y-68012976D01*
X97887898Y-67971152D01*
X97882381Y-67945187D01*
X97871462Y-67902014D01*
X97858401Y-67883110D01*
X97836781Y-67886690D01*
X97800180Y-67910968D01*
X97789052Y-67919230D01*
X97773586Y-67932784D01*
X97770350Y-67947275D01*
X97737250Y-67947275D01*
X97734776Y-67935160D01*
X97740744Y-67919223D01*
X97746966Y-67911487D01*
X97778605Y-67883315D01*
X97814368Y-67858667D01*
X97843107Y-67836755D01*
X97850422Y-67811130D01*
X97847580Y-67790372D01*
X97836630Y-67751920D01*
X97820221Y-67735525D01*
X97793369Y-67740528D01*
X97751092Y-67766270D01*
X97737600Y-67775817D01*
X97697740Y-67803107D01*
X97668550Y-67820588D01*
X97668326Y-67820722D01*
X97656340Y-67824832D01*
X97645981Y-67808125D01*
X97627923Y-67773852D01*
X97605766Y-67729471D01*
X97583109Y-67682436D01*
X97563554Y-67640205D01*
X97552635Y-67614749D01*
X97576832Y-67614749D01*
X97616799Y-67692885D01*
X97639881Y-67734502D01*
X97659096Y-67762965D01*
X97668550Y-67771327D01*
X97685948Y-67763781D01*
X97717049Y-67744711D01*
X97753280Y-67720073D01*
X97786066Y-67695821D01*
X97806833Y-67677908D01*
X97810036Y-67673069D01*
X97805730Y-67656174D01*
X97794731Y-67620898D01*
X97786360Y-67595551D01*
X97772070Y-67554461D01*
X97761617Y-67526929D01*
X97758612Y-67520715D01*
X97744785Y-67525044D01*
X97712301Y-67540644D01*
X97668042Y-67564199D01*
X97665686Y-67565502D01*
X97576832Y-67614749D01*
X97552635Y-67614749D01*
X97550698Y-67610233D01*
X97547759Y-67599936D01*
X97561862Y-67591140D01*
X97594505Y-67571348D01*
X97638968Y-67544631D01*
X97644576Y-67541275D01*
X97701225Y-67503249D01*
X97731448Y-67472959D01*
X97736498Y-67458795D01*
X97732407Y-67434671D01*
X97717063Y-67424619D01*
X97685855Y-67428389D01*
X97634174Y-67445730D01*
X97617147Y-67452301D01*
X97566243Y-67470798D01*
X97531369Y-67476674D01*
X97523238Y-67473044D01*
X97508372Y-67466407D01*
X97493100Y-67436470D01*
X97481401Y-67383341D01*
X97473042Y-67329965D01*
X97465512Y-67262052D01*
X97466413Y-67249025D01*
X97487221Y-67249025D01*
X97491862Y-67286330D01*
X97500565Y-67337378D01*
X97502322Y-67346592D01*
X97523238Y-67454646D01*
X97704828Y-67373112D01*
X97666210Y-67290583D01*
X97627592Y-67208053D01*
X97560707Y-67217747D01*
X97519528Y-67224641D01*
X97492485Y-67230903D01*
X97487615Y-67232989D01*
X97487221Y-67249025D01*
X97466413Y-67249025D01*
X97468578Y-67217714D01*
X97484474Y-67192324D01*
X97515432Y-67181255D01*
X97545659Y-67179548D01*
X97577808Y-67176590D01*
X97593175Y-67170892D01*
X97590845Y-67153067D01*
X97571878Y-67113263D01*
X97537201Y-67053098D01*
X97487741Y-66974189D01*
X97432227Y-66889790D01*
X97385174Y-66819982D01*
X97351532Y-66773831D01*
X97329265Y-66752273D01*
X97316340Y-66756246D01*
X97310722Y-66786686D01*
X97310379Y-66844529D01*
X97285482Y-66844529D01*
X97288516Y-66785050D01*
X97297687Y-66701551D01*
X97162189Y-66549778D01*
X97112515Y-66495793D01*
X97069397Y-66452038D01*
X97036634Y-66422139D01*
X97018031Y-66409720D01*
X97015664Y-66410056D01*
X97004785Y-66436478D01*
X96995181Y-66487489D01*
X96987020Y-66558288D01*
X96980469Y-66644069D01*
X96975695Y-66740028D01*
X96972866Y-66841363D01*
X96972148Y-66943269D01*
X96943468Y-66943269D01*
X96942558Y-66914372D01*
X96943960Y-66858406D01*
X96947945Y-66788171D01*
X96953914Y-66709667D01*
X96961265Y-66628892D01*
X96969398Y-66551847D01*
X96977712Y-66484531D01*
X96985607Y-66432944D01*
X96992482Y-66403086D01*
X96994098Y-66399508D01*
X96987621Y-66383513D01*
X96960416Y-66354034D01*
X96916168Y-66313994D01*
X96858561Y-66266318D01*
X96791281Y-66213930D01*
X96718012Y-66159753D01*
X96642441Y-66106712D01*
X96568251Y-66057729D01*
X96544799Y-66043016D01*
X96378016Y-65949936D01*
X96191601Y-65863307D01*
X95995217Y-65786903D01*
X95798526Y-65724497D01*
X95618606Y-65681303D01*
X95529717Y-65665917D01*
X95426510Y-65651325D01*
X95318032Y-65638519D01*
X95213326Y-65628488D01*
X95121437Y-65622226D01*
X95064670Y-65620594D01*
X95003438Y-65620544D01*
X94971539Y-65719820D01*
X94891493Y-65925137D01*
X94790017Y-66110434D01*
X94667718Y-66275174D01*
X94525203Y-66418823D01*
X94363078Y-66540846D01*
X94181949Y-66640706D01*
X93982424Y-66717870D01*
X93783835Y-66768216D01*
X93740900Y-66777246D01*
X93712424Y-66787754D01*
X93697119Y-66804674D01*
X93693699Y-66832944D01*
X93670697Y-66832944D01*
X93659773Y-66788547D01*
X93576566Y-66798961D01*
X93483831Y-66806410D01*
X93372441Y-66808823D01*
X93337995Y-66808197D01*
X93250484Y-66806608D01*
X93126047Y-66800175D01*
X93007219Y-66789933D01*
X92902086Y-66776289D01*
X92823739Y-66760918D01*
X92807064Y-66759256D01*
X92790683Y-66765690D01*
X92770965Y-66783944D01*
X92744276Y-66817743D01*
X92706985Y-66870808D01*
X92684927Y-66903221D01*
X92633825Y-66982532D01*
X92578302Y-67074897D01*
X92526374Y-67166715D01*
X92498036Y-67220270D01*
X92413613Y-67386006D01*
X92335062Y-67386006D01*
X92303380Y-67342128D01*
X92248438Y-67267793D01*
X92193557Y-67193642D01*
X92143433Y-67124497D01*
X92101318Y-67064955D01*
X92070463Y-67019614D01*
X92054120Y-66993070D01*
X92054063Y-66992959D01*
X92031327Y-66953968D01*
X92016519Y-66938832D01*
X92012039Y-66947926D01*
X91988144Y-66947926D01*
X91986609Y-66942944D01*
X91961756Y-66881511D01*
X91937336Y-66841498D01*
X91912517Y-66820967D01*
X91886464Y-66817980D01*
X91876591Y-66820838D01*
X91861454Y-66826802D01*
X91855834Y-66834657D01*
X91316104Y-66834657D01*
X91391460Y-66819047D01*
X91463505Y-66809847D01*
X91537540Y-66803575D01*
X91611291Y-66800474D01*
X91672983Y-66800927D01*
X91693651Y-66802390D01*
X91786070Y-66801921D01*
X91843849Y-66788292D01*
X91910729Y-66771982D01*
X91958595Y-66774621D01*
X91985640Y-66796096D01*
X91986169Y-66797151D01*
X92020496Y-66864933D01*
X92055757Y-66927070D01*
X92096848Y-66991385D01*
X92148666Y-67065703D01*
X92188684Y-67120718D01*
X92236703Y-67185317D01*
X92281662Y-67244488D01*
X92319210Y-67292598D01*
X92345002Y-67324013D01*
X92349314Y-67328826D01*
X92385615Y-67367797D01*
X92464445Y-67210326D01*
X92606739Y-66957808D01*
X92764006Y-66732793D01*
X92813735Y-66732793D01*
X92833615Y-66739539D01*
X92877267Y-66747176D01*
X92939083Y-66755176D01*
X93013455Y-66763010D01*
X93094772Y-66770150D01*
X93177427Y-66776068D01*
X93255812Y-66780235D01*
X93324316Y-66782123D01*
X93337995Y-66782179D01*
X93582903Y-66770169D01*
X93811070Y-66735033D01*
X94022000Y-66677032D01*
X94215196Y-66596426D01*
X94390163Y-66493474D01*
X94546402Y-66368437D01*
X94683418Y-66221574D01*
X94800714Y-66053146D01*
X94830628Y-66000931D01*
X94859744Y-65943502D01*
X94890257Y-65876279D01*
X94919380Y-65806301D01*
X94944326Y-65740608D01*
X94962308Y-65686239D01*
X94970539Y-65650233D01*
X94970757Y-65646975D01*
X94967062Y-65632626D01*
X94950369Y-65626676D01*
X94913898Y-65627558D01*
X94894257Y-65629281D01*
X94814518Y-65636798D01*
X94758566Y-65643289D01*
X94720994Y-65651350D01*
X94696398Y-65663575D01*
X94679372Y-65682562D01*
X94664511Y-65710904D01*
X94648102Y-65747481D01*
X94554568Y-65919158D01*
X94438696Y-66072371D01*
X94302171Y-66205628D01*
X94146678Y-66317438D01*
X93973904Y-66406311D01*
X93852478Y-66451280D01*
X93752087Y-66481516D01*
X93662611Y-66504001D01*
X93576215Y-66519853D01*
X93485062Y-66530190D01*
X93381316Y-66536131D01*
X93257141Y-66538794D01*
X93237964Y-66538967D01*
X93193892Y-66539314D01*
X92967862Y-66541092D01*
X92887990Y-66634134D01*
X92852183Y-66677193D01*
X92826123Y-66711140D01*
X92813943Y-66730482D01*
X92813735Y-66732793D01*
X92764006Y-66732793D01*
X92772329Y-66720885D01*
X92955317Y-66506123D01*
X93015363Y-66506123D01*
X93029157Y-66511807D01*
X93067024Y-66515564D01*
X93123693Y-66517498D01*
X93193892Y-66517711D01*
X93272349Y-66516309D01*
X93353794Y-66513394D01*
X93432953Y-66509072D01*
X93504556Y-66503445D01*
X93563331Y-66496618D01*
X93573006Y-66495131D01*
X93779249Y-66448909D01*
X93969531Y-66380222D01*
X94142426Y-66290041D01*
X94296509Y-66179340D01*
X94430354Y-66049090D01*
X94542537Y-65900262D01*
X94604360Y-65791655D01*
X94630510Y-65738300D01*
X94650582Y-65694638D01*
X94661498Y-65667482D01*
X94662613Y-65662683D01*
X94650562Y-65654931D01*
X94629521Y-65656212D01*
X94599717Y-65662337D01*
X94550625Y-65672414D01*
X94491772Y-65684489D01*
X94478768Y-65687156D01*
X94390954Y-65706259D01*
X94312761Y-65725338D01*
X94249214Y-65743013D01*
X94205336Y-65757904D01*
X94187320Y-65767280D01*
X94191713Y-65780329D01*
X94215995Y-65801711D01*
X94238796Y-65816863D01*
X94307309Y-65862047D01*
X94349749Y-65898613D01*
X94365448Y-65925944D01*
X94364556Y-65933074D01*
X94348858Y-65944605D01*
X94310625Y-65963588D01*
X94255061Y-65987682D01*
X94187366Y-66014548D01*
X94163055Y-66023696D01*
X94083874Y-66052505D01*
X94027802Y-66071227D01*
X93990711Y-66080883D01*
X93968474Y-66082497D01*
X93956964Y-66077093D01*
X93955513Y-66075144D01*
X93943574Y-66046086D01*
X93942166Y-66036033D01*
X93933270Y-66018932D01*
X93928237Y-66017649D01*
X93899651Y-66023701D01*
X93851556Y-66039957D01*
X93790804Y-66063565D01*
X93724244Y-66091674D01*
X93658729Y-66121431D01*
X93601108Y-66149985D01*
X93572623Y-66165675D01*
X93470632Y-66225242D01*
X93495930Y-66268068D01*
X93510808Y-66299091D01*
X93513650Y-66318164D01*
X93512978Y-66319146D01*
X93491827Y-66327531D01*
X93449198Y-66336410D01*
X93392986Y-66344707D01*
X93331085Y-66351344D01*
X93271389Y-66355247D01*
X93243836Y-66355838D01*
X93199208Y-66356969D01*
X93195651Y-66357059D01*
X93162589Y-66363777D01*
X93133811Y-66380750D01*
X93098479Y-66412735D01*
X93085729Y-66425231D01*
X93050113Y-66461916D01*
X93024804Y-66491046D01*
X93015363Y-66506123D01*
X92955317Y-66506123D01*
X92959235Y-66501525D01*
X93137842Y-66328468D01*
X93199208Y-66328468D01*
X93302161Y-66321198D01*
X93373267Y-66314849D01*
X93419215Y-66306667D01*
X93444263Y-66294920D01*
X93452669Y-66277874D01*
X93450662Y-66260765D01*
X93456512Y-66223971D01*
X93491294Y-66182595D01*
X93554895Y-66136715D01*
X93647205Y-66086408D01*
X93768110Y-66031750D01*
X93802375Y-66017585D01*
X93861965Y-65993501D01*
X93910490Y-65974194D01*
X93942123Y-65961965D01*
X93951307Y-65958818D01*
X93957744Y-65971344D01*
X93967526Y-66001966D01*
X93968813Y-66006618D01*
X93980976Y-66037869D01*
X93993569Y-66051239D01*
X93994971Y-66051154D01*
X94019434Y-66042927D01*
X94061207Y-66026836D01*
X94113752Y-66005626D01*
X94170532Y-65982041D01*
X94225007Y-65958826D01*
X94270639Y-65938725D01*
X94300889Y-65924482D01*
X94309631Y-65919082D01*
X94299700Y-65905565D01*
X94276539Y-65883696D01*
X94243278Y-65858426D01*
X94199126Y-65828711D01*
X94182513Y-65818356D01*
X94121580Y-65781377D01*
X93976607Y-65843432D01*
X93823731Y-65914063D01*
X93672124Y-65993807D01*
X93528092Y-66078872D01*
X93397937Y-66165465D01*
X93287962Y-66249796D01*
X93258038Y-66275705D01*
X93199208Y-66328468D01*
X93137842Y-66328468D01*
X93165475Y-66301694D01*
X93389069Y-66123360D01*
X93628036Y-65968489D01*
X93814081Y-65869918D01*
X94082210Y-65756621D01*
X94356711Y-65671496D01*
X94635732Y-65614533D01*
X94917422Y-65585723D01*
X95199932Y-65585058D01*
X95481409Y-65612529D01*
X95760004Y-65668128D01*
X96033866Y-65751845D01*
X96301144Y-65863672D01*
X96338538Y-65881871D01*
X96589442Y-66022367D01*
X96823859Y-66186402D01*
X97040481Y-66372319D01*
X97237998Y-66578457D01*
X97415100Y-66803160D01*
X97570478Y-67044767D01*
X97702822Y-67301622D01*
X97810822Y-67572065D01*
X97891868Y-67849041D01*
X97929463Y-68039668D01*
X97955426Y-68247624D01*
X97969261Y-68463188D01*
X97970470Y-68676637D01*
X97958558Y-68878251D01*
X97948726Y-68962962D01*
X97894859Y-69250603D01*
X97813717Y-69529912D01*
X97706540Y-69798976D01*
X97574563Y-70055881D01*
X97419026Y-70298711D01*
X97241166Y-70525552D01*
X97042221Y-70734491D01*
X96823430Y-70923613D01*
X96586028Y-71091003D01*
X96563592Y-71105060D01*
X96316087Y-71241553D01*
X96057783Y-71351554D01*
X95790892Y-71434955D01*
X95567876Y-71481220D01*
X95517623Y-71491645D01*
X95240188Y-71521516D01*
X95123137Y-71522749D01*
X95026799Y-71523764D01*
X94960796Y-71524459D01*
X94681659Y-71500364D01*
X94404986Y-71449121D01*
X94132988Y-71370623D01*
X93867876Y-71264759D01*
X93816927Y-71240800D01*
X93798918Y-71231052D01*
X93562833Y-71103259D01*
X93489460Y-71053718D01*
X93328285Y-70944894D01*
X93112480Y-70764912D01*
X92914613Y-70562520D01*
X92879316Y-70518461D01*
X92927118Y-70518461D01*
X92937717Y-70534847D01*
X92966900Y-70566594D01*
X93010748Y-70610121D01*
X93065340Y-70661847D01*
X93126755Y-70718191D01*
X93191075Y-70775572D01*
X93254377Y-70830409D01*
X93312742Y-70879122D01*
X93362251Y-70918129D01*
X93374906Y-70927487D01*
X93433434Y-70969329D01*
X93470781Y-70993069D01*
X93489460Y-70998039D01*
X93491981Y-70983571D01*
X93480857Y-70948999D01*
X93462873Y-70904099D01*
X93410627Y-70805461D01*
X93339840Y-70713790D01*
X93256694Y-70635344D01*
X93167371Y-70576381D01*
X93117411Y-70554366D01*
X93062289Y-70536858D01*
X93008753Y-70523436D01*
X92963836Y-70515426D01*
X92934568Y-70514157D01*
X92927118Y-70518461D01*
X92879316Y-70518461D01*
X92733880Y-70336925D01*
X92688529Y-70268075D01*
X92728662Y-70268075D01*
X92735137Y-70281387D01*
X92752234Y-70307176D01*
X92782298Y-70347127D01*
X92819157Y-70393067D01*
X92823183Y-70397921D01*
X92861167Y-70442152D01*
X92889600Y-70468678D01*
X92917186Y-70482862D01*
X92952630Y-70490064D01*
X92977351Y-70492860D01*
X93099302Y-70519784D01*
X93211395Y-70573454D01*
X93311772Y-70652310D01*
X93398575Y-70754791D01*
X93469945Y-70879335D01*
X93488691Y-70922292D01*
X93511053Y-70974530D01*
X93532377Y-71013508D01*
X93558180Y-71044700D01*
X93593978Y-71073583D01*
X93645289Y-71105634D01*
X93710297Y-71142272D01*
X93765612Y-71170601D01*
X93798918Y-71182254D01*
X93809345Y-71177600D01*
X93803540Y-71156170D01*
X93788172Y-71115131D01*
X93765988Y-71061589D01*
X93753132Y-71032203D01*
X93657368Y-70847171D01*
X93545804Y-70686348D01*
X93418879Y-70550087D01*
X93347520Y-70494071D01*
X93302924Y-70459063D01*
X93363106Y-70459063D01*
X93466063Y-70565831D01*
X93585595Y-70704005D01*
X93685077Y-70851548D01*
X93769126Y-71015843D01*
X93810850Y-71117070D01*
X93830245Y-71164988D01*
X93848453Y-71195781D01*
X93873445Y-71217572D01*
X93913193Y-71238481D01*
X93943536Y-71252235D01*
X94148720Y-71331913D01*
X94372937Y-71396949D01*
X94608723Y-71445477D01*
X94831750Y-71474151D01*
X94919518Y-71482071D01*
X94982892Y-71486761D01*
X95026799Y-71487304D01*
X95056170Y-71482782D01*
X95070146Y-71475355D01*
X95104531Y-71475355D01*
X95106473Y-71481698D01*
X95123137Y-71483281D01*
X95163337Y-71482246D01*
X95221339Y-71478864D01*
X95291406Y-71473408D01*
X95303633Y-71472336D01*
X95493264Y-71455447D01*
X95510990Y-71436301D01*
X95546426Y-71436301D01*
X95567876Y-71439657D01*
X95612388Y-71433674D01*
X95675610Y-71419684D01*
X95753192Y-71399020D01*
X95840784Y-71373015D01*
X95934036Y-71343002D01*
X96028598Y-71310312D01*
X96120119Y-71276279D01*
X96204250Y-71242235D01*
X96258386Y-71218195D01*
X96326589Y-71185065D01*
X96397968Y-71148120D01*
X96467688Y-71110139D01*
X96530915Y-71073899D01*
X96582816Y-71042179D01*
X96618554Y-71017759D01*
X96633296Y-71003416D01*
X96633429Y-71002637D01*
X96620071Y-70996356D01*
X96585262Y-70989677D01*
X96542656Y-70984667D01*
X96449625Y-70982247D01*
X96342797Y-70988849D01*
X96235884Y-71003082D01*
X96142599Y-71023552D01*
X96133371Y-71026241D01*
X96048526Y-71057231D01*
X95954061Y-71100399D01*
X95862364Y-71149558D01*
X95785822Y-71198525D01*
X95780420Y-71202474D01*
X95741869Y-71233502D01*
X95697096Y-71273278D01*
X95650869Y-71317036D01*
X95607959Y-71360010D01*
X95573135Y-71397436D01*
X95551165Y-71424546D01*
X95546426Y-71436301D01*
X95510990Y-71436301D01*
X95587371Y-71353802D01*
X95711632Y-71232805D01*
X95839181Y-71136616D01*
X95976774Y-71060831D01*
X96126017Y-71002718D01*
X96170646Y-70989440D01*
X96214438Y-70979975D01*
X96263985Y-70973620D01*
X96325879Y-70969677D01*
X96406713Y-70967446D01*
X96465747Y-70966651D01*
X96563607Y-70964899D01*
X96635737Y-70961768D01*
X96685805Y-70956937D01*
X96717477Y-70950085D01*
X96731399Y-70943403D01*
X96804553Y-70888868D01*
X96862783Y-70841590D01*
X96903595Y-70803852D01*
X96924493Y-70777938D01*
X96924420Y-70766722D01*
X96901688Y-70759119D01*
X96858181Y-70748381D01*
X96802096Y-70736479D01*
X96783917Y-70732952D01*
X96559321Y-70703611D01*
X96342978Y-70702459D01*
X96134502Y-70729570D01*
X95933507Y-70785015D01*
X95739606Y-70868866D01*
X95698775Y-70892641D01*
X95590519Y-70955675D01*
X95541641Y-70991621D01*
X95484356Y-71040331D01*
X95421839Y-71098354D01*
X95357268Y-71162238D01*
X95293817Y-71228532D01*
X95234663Y-71293784D01*
X95182982Y-71354544D01*
X95141949Y-71407360D01*
X95114740Y-71448781D01*
X95104531Y-71475355D01*
X95070146Y-71475355D01*
X95075934Y-71472279D01*
X95091019Y-71454876D01*
X95106355Y-71429656D01*
X95110678Y-71422241D01*
X95177460Y-71323731D01*
X95264176Y-71219124D01*
X95364276Y-71115125D01*
X95471212Y-71018444D01*
X95578437Y-70935788D01*
X95599801Y-70921223D01*
X95676596Y-70870137D01*
X95549936Y-70661061D01*
X95507544Y-70591205D01*
X95470630Y-70530604D01*
X95441810Y-70483534D01*
X95423702Y-70454274D01*
X95418762Y-70446631D01*
X95404766Y-70450125D01*
X95375465Y-70465421D01*
X95365245Y-70471561D01*
X95287666Y-70515109D01*
X95195469Y-70560244D01*
X95101492Y-70601052D01*
X95018574Y-70631623D01*
X95015595Y-70632573D01*
X94933729Y-70657507D01*
X94864186Y-70675686D01*
X94799375Y-70688120D01*
X94731704Y-70695816D01*
X94653582Y-70699782D01*
X94557417Y-70701027D01*
X94543524Y-70701007D01*
X94500829Y-70700947D01*
X94403232Y-70700135D01*
X94328085Y-70698149D01*
X94268427Y-70694283D01*
X94217295Y-70687832D01*
X94167729Y-70678089D01*
X94112767Y-70664350D01*
X94096371Y-70659937D01*
X93974355Y-70620293D01*
X93845487Y-70567152D01*
X93720087Y-70505384D01*
X93608475Y-70439859D01*
X93561616Y-70407613D01*
X93516780Y-70376984D01*
X93481029Y-70356761D01*
X93460595Y-70350344D01*
X93458549Y-70351373D01*
X93443384Y-70369303D01*
X93416813Y-70399413D01*
X93406058Y-70411402D01*
X93363106Y-70459063D01*
X93302924Y-70459063D01*
X93277033Y-70438739D01*
X93120705Y-70352657D01*
X92950335Y-70292193D01*
X92789985Y-70260565D01*
X92748149Y-70255846D01*
X92729634Y-70257618D01*
X92728662Y-70268075D01*
X92688529Y-70268075D01*
X92569476Y-70087332D01*
X92472674Y-69915047D01*
X92402304Y-69781822D01*
X92300698Y-69889831D01*
X92249675Y-69947734D01*
X92200310Y-70010000D01*
X92160637Y-70066277D01*
X92149053Y-70085190D01*
X92098885Y-70171496D01*
X92069083Y-70219988D01*
X92059836Y-70235034D01*
X92029336Y-70279069D01*
X92004812Y-70306868D01*
X91983696Y-70321697D01*
X91963414Y-70326822D01*
X91958718Y-70326971D01*
X91944347Y-70325530D01*
X91924807Y-70323570D01*
X91906684Y-70316459D01*
X91889119Y-70313150D01*
X91868900Y-70311997D01*
X91847330Y-70310766D01*
X91786498Y-70309443D01*
X91711805Y-70309317D01*
X91657881Y-70309948D01*
X91479553Y-70307608D01*
X91320921Y-70293139D01*
X91174232Y-70264974D01*
X91031730Y-70221549D01*
X90885660Y-70161300D01*
X90858605Y-70148650D01*
X90663059Y-70039933D01*
X90485383Y-69908773D01*
X90327250Y-69756997D01*
X90287275Y-69707199D01*
X90264205Y-69678460D01*
X90310803Y-69678460D01*
X90423969Y-69784532D01*
X90600626Y-69930629D01*
X90790985Y-70050773D01*
X90994553Y-70144776D01*
X91210839Y-70212450D01*
X91439352Y-70253608D01*
X91679601Y-70268062D01*
X91688368Y-70268082D01*
X91868900Y-70268141D01*
X91883888Y-70228717D01*
X91895769Y-70187834D01*
X91905870Y-70137501D01*
X91907281Y-70127983D01*
X91915684Y-70066672D01*
X91743651Y-70066194D01*
X91674818Y-70064917D01*
X91651703Y-70063679D01*
X91616674Y-70061803D01*
X91575588Y-70057329D01*
X91558216Y-70052314D01*
X91553888Y-70037984D01*
X91552629Y-70005250D01*
X91553566Y-69979421D01*
X91572169Y-69979421D01*
X91572278Y-70011252D01*
X91579541Y-70026142D01*
X91583436Y-70028292D01*
X91607458Y-70031502D01*
X91651703Y-70032588D01*
X91708652Y-70031867D01*
X91770786Y-70029651D01*
X91830585Y-70026256D01*
X91880530Y-70021997D01*
X91913100Y-70017187D01*
X91921182Y-70014162D01*
X91930183Y-69993224D01*
X91940034Y-69952842D01*
X91948744Y-69902851D01*
X91954324Y-69853086D01*
X91954603Y-69848975D01*
X91953889Y-69836754D01*
X91946732Y-69828667D01*
X91928370Y-69824055D01*
X91894041Y-69822255D01*
X91838984Y-69822608D01*
X91817438Y-69823091D01*
X91774910Y-69824043D01*
X91593349Y-69828527D01*
X91592655Y-69833171D01*
X91578962Y-69924791D01*
X91572169Y-69979421D01*
X91553566Y-69979421D01*
X91554560Y-69952025D01*
X91559804Y-69876222D01*
X91566603Y-69797498D01*
X91592655Y-69797498D01*
X91777358Y-69797498D01*
X91783072Y-69760289D01*
X91810473Y-69760289D01*
X91810810Y-69786566D01*
X91817438Y-69795268D01*
X91830433Y-69792551D01*
X91861743Y-69786051D01*
X91905321Y-69782858D01*
X91912103Y-69782790D01*
X91968337Y-69782790D01*
X91980761Y-69676160D01*
X91993186Y-69569530D01*
X91950705Y-69564770D01*
X91906716Y-69564079D01*
X91875112Y-69568320D01*
X91853184Y-69576655D01*
X91838418Y-69592499D01*
X91828249Y-69621962D01*
X91820111Y-69671156D01*
X91815366Y-69710666D01*
X91810473Y-69760289D01*
X91783072Y-69760289D01*
X91791475Y-69705576D01*
X91799170Y-69654746D01*
X91805013Y-69614794D01*
X91807467Y-69596575D01*
X91794631Y-69585483D01*
X91755383Y-69577232D01*
X91717419Y-69573764D01*
X91668003Y-69571971D01*
X91631145Y-69573027D01*
X91616202Y-69576135D01*
X91610744Y-69593790D01*
X91605021Y-69632768D01*
X91600186Y-69685011D01*
X91599781Y-69690868D01*
X91592655Y-69797498D01*
X91566603Y-69797498D01*
X91568481Y-69775756D01*
X91580712Y-69648541D01*
X91583096Y-69624684D01*
X91590844Y-69547469D01*
X91689062Y-69545642D01*
X91759489Y-69543142D01*
X91838529Y-69538598D01*
X91890150Y-69534612D01*
X91944064Y-69529132D01*
X91975643Y-69522539D01*
X91991886Y-69511509D01*
X91999788Y-69492717D01*
X92002394Y-69481285D01*
X92009405Y-69434986D01*
X92013446Y-69383821D01*
X92013507Y-69382009D01*
X92015247Y-69326855D01*
X91913868Y-69326855D01*
X91856338Y-69325524D01*
X91821119Y-69317669D01*
X91802741Y-69297502D01*
X91795736Y-69259233D01*
X91794634Y-69200638D01*
X91794634Y-69120949D01*
X91824049Y-69120949D01*
X91824049Y-69297440D01*
X91917197Y-69297440D01*
X91967124Y-69295998D01*
X92004572Y-69292238D01*
X92020150Y-69287635D01*
X92025658Y-69268487D01*
X92029215Y-69229935D01*
X92029955Y-69199390D01*
X92029955Y-69120949D01*
X91824049Y-69120949D01*
X91794634Y-69120949D01*
X91489169Y-69120949D01*
X91482377Y-69367301D01*
X91479462Y-69451095D01*
X91475728Y-69525840D01*
X91471538Y-69586033D01*
X91467257Y-69626173D01*
X91464399Y-69639392D01*
X91447987Y-69656519D01*
X91413754Y-69664039D01*
X91384925Y-69664905D01*
X91346965Y-69664475D01*
X91319038Y-69660881D01*
X91299715Y-69650236D01*
X91291542Y-69635715D01*
X91363482Y-69635715D01*
X91407715Y-69633893D01*
X91438809Y-69629250D01*
X91446554Y-69625910D01*
X91449800Y-69608636D01*
X91452592Y-69567005D01*
X91454738Y-69506071D01*
X91456045Y-69430889D01*
X91456359Y-69368527D01*
X91456359Y-69120949D01*
X91309283Y-69120949D01*
X91309195Y-69256994D01*
X91307984Y-69337368D01*
X91304863Y-69425250D01*
X91300464Y-69503583D01*
X91299661Y-69514377D01*
X91290377Y-69633646D01*
X91287567Y-69628653D01*
X91281167Y-69592246D01*
X91279085Y-69537128D01*
X91279895Y-69459412D01*
X91281548Y-69383583D01*
X91287222Y-69128303D01*
X91044547Y-69128303D01*
X90953866Y-69128074D01*
X90914085Y-69127393D01*
X90886855Y-69126927D01*
X90837768Y-69124170D01*
X90800859Y-69119113D01*
X90770384Y-69111063D01*
X90740597Y-69099331D01*
X90718090Y-69089031D01*
X90640406Y-69042559D01*
X90566264Y-68980448D01*
X90504888Y-68911252D01*
X90474447Y-68863152D01*
X90446270Y-68808229D01*
X90436296Y-69039553D01*
X90428609Y-69151393D01*
X90425556Y-69195812D01*
X90407749Y-69339995D01*
X90386904Y-69450297D01*
X90383708Y-69467209D01*
X90354743Y-69570860D01*
X90354267Y-69572563D01*
X90338315Y-69614278D01*
X90310803Y-69678460D01*
X90264205Y-69678460D01*
X90190331Y-69586432D01*
X90076297Y-69398907D01*
X90009573Y-69247782D01*
X89986821Y-69196251D01*
X89986177Y-69194487D01*
X89977804Y-69169674D01*
X90023533Y-69169674D01*
X90027308Y-69196465D01*
X90041132Y-69234962D01*
X90066792Y-69290875D01*
X90082317Y-69322517D01*
X90113190Y-69381018D01*
X90148900Y-69442920D01*
X90186232Y-69503351D01*
X90221968Y-69557438D01*
X90252893Y-69600308D01*
X90275792Y-69627086D01*
X90287275Y-69633095D01*
X90294084Y-69616678D01*
X90305699Y-69580362D01*
X90319688Y-69532757D01*
X90333620Y-69482475D01*
X90345061Y-69438126D01*
X90351582Y-69408321D01*
X90352246Y-69403028D01*
X90343428Y-69383997D01*
X90318963Y-69349599D01*
X90283340Y-69305910D01*
X90265341Y-69285367D01*
X90216103Y-69228835D01*
X90165997Y-69168803D01*
X90124584Y-69116770D01*
X90118753Y-69109091D01*
X90060114Y-69031049D01*
X90051255Y-69072322D01*
X90039070Y-69117368D01*
X90028023Y-69148877D01*
X90023533Y-69169674D01*
X89977804Y-69169674D01*
X89951705Y-69092333D01*
X89924332Y-68995948D01*
X89905693Y-68911893D01*
X89897420Y-68846730D01*
X89897154Y-68836915D01*
X89894188Y-68792069D01*
X89888160Y-68757224D01*
X89884466Y-68746340D01*
X89877476Y-68738116D01*
X89863391Y-68732110D01*
X89838413Y-68727883D01*
X89798743Y-68724993D01*
X89740581Y-68723000D01*
X89660129Y-68721463D01*
X89568471Y-68720147D01*
X89257575Y-68715873D01*
X89570111Y-68712505D01*
X89675204Y-68711115D01*
X89754352Y-68709326D01*
X89811027Y-68706856D01*
X89848698Y-68703422D01*
X89870836Y-68698742D01*
X89880913Y-68692534D01*
X89882647Y-68687075D01*
X89879146Y-68679694D01*
X89866323Y-68674129D01*
X89840707Y-68670136D01*
X89798821Y-68667472D01*
X89737193Y-68665894D01*
X89652346Y-68665159D01*
X89567457Y-68665014D01*
X89252267Y-68665014D01*
X89247567Y-68698106D01*
X89239353Y-68719965D01*
X89217322Y-68731100D01*
X89193766Y-68734072D01*
X89180922Y-68735693D01*
X89130740Y-68733626D01*
X89090376Y-68721970D01*
X89064154Y-68704230D01*
X89061284Y-68696712D01*
X89085220Y-68696712D01*
X89089863Y-68703501D01*
X89114033Y-68715883D01*
X89153140Y-68722870D01*
X89193766Y-68723421D01*
X89222491Y-68716494D01*
X89225709Y-68714039D01*
X89237718Y-68690203D01*
X89223429Y-68672924D01*
X89185739Y-68665172D01*
X89177886Y-68665014D01*
X89118786Y-68668495D01*
X89087992Y-68679019D01*
X89085220Y-68696712D01*
X89061284Y-68696712D01*
X89056396Y-68683905D01*
X89071423Y-68664498D01*
X89084761Y-68657785D01*
X89106019Y-68655046D01*
X89152450Y-68652741D01*
X89219816Y-68650956D01*
X89303877Y-68649778D01*
X89400395Y-68649294D01*
X89489220Y-68649493D01*
X89867940Y-68651579D01*
X89868068Y-68595789D01*
X89870007Y-68546839D01*
X89872124Y-68520519D01*
X89896582Y-68520519D01*
X89898402Y-68600566D01*
X89905944Y-68693269D01*
X89918108Y-68792054D01*
X89933799Y-68890348D01*
X89951919Y-68981576D01*
X89971372Y-69059164D01*
X89991059Y-69116539D01*
X89998664Y-69132197D01*
X90009573Y-69146206D01*
X90017478Y-69136018D01*
X90022745Y-69117334D01*
X90027776Y-69086776D01*
X90034069Y-69032852D01*
X90041131Y-68961555D01*
X90045792Y-68909068D01*
X90072419Y-68909068D01*
X90072847Y-68965748D01*
X90081146Y-69006306D01*
X90100367Y-69043642D01*
X90106403Y-69052761D01*
X90133623Y-69089987D01*
X90170671Y-69136915D01*
X90213183Y-69188466D01*
X90256791Y-69239564D01*
X90297130Y-69285131D01*
X90329833Y-69320089D01*
X90350535Y-69339361D01*
X90354743Y-69341563D01*
X90364312Y-69331875D01*
X90371459Y-69301178D01*
X90376473Y-69247028D01*
X90379645Y-69166976D01*
X90380502Y-69124811D01*
X90382705Y-68988951D01*
X90282015Y-68938244D01*
X90225274Y-68907523D01*
X90172488Y-68875308D01*
X90134893Y-68848465D01*
X90134318Y-68847984D01*
X90104112Y-68824865D01*
X90084430Y-68814070D01*
X90081470Y-68814271D01*
X90080305Y-68819690D01*
X90077891Y-68830919D01*
X90074503Y-68868256D01*
X90072419Y-68909068D01*
X90045792Y-68909068D01*
X90048472Y-68878881D01*
X90055599Y-68790827D01*
X90061334Y-68712719D01*
X90088602Y-68712719D01*
X90091270Y-68745446D01*
X90101598Y-68767284D01*
X90122108Y-68787437D01*
X90127180Y-68791682D01*
X90151685Y-68809853D01*
X90191120Y-68836875D01*
X90239031Y-68868587D01*
X90288968Y-68900829D01*
X90334479Y-68929440D01*
X90369112Y-68950258D01*
X90386417Y-68959123D01*
X90386904Y-68959192D01*
X90387762Y-68945430D01*
X90387825Y-68907837D01*
X90387135Y-68851985D01*
X90385733Y-68783446D01*
X90385549Y-68775858D01*
X90382705Y-68660230D01*
X90381039Y-68592496D01*
X90326719Y-68584111D01*
X90279521Y-68576462D01*
X90221150Y-68566531D01*
X90192732Y-68561539D01*
X90147442Y-68555035D01*
X90115099Y-68553292D01*
X90105148Y-68555272D01*
X90100235Y-68572966D01*
X90095109Y-68611518D01*
X90091072Y-68659898D01*
X90088602Y-68712719D01*
X90061334Y-68712719D01*
X90062019Y-68703386D01*
X90067241Y-68622554D01*
X90070774Y-68554328D01*
X90071972Y-68517552D01*
X90071009Y-68454434D01*
X90066723Y-68377828D01*
X90061237Y-68316952D01*
X90085440Y-68316952D01*
X90091368Y-68410050D01*
X90096911Y-68461293D01*
X90105392Y-68501336D01*
X90113585Y-68519437D01*
X90134968Y-68527728D01*
X90177836Y-68535699D01*
X90234277Y-68542011D01*
X90256290Y-68543613D01*
X90382705Y-68551500D01*
X90382705Y-68313076D01*
X90434182Y-68313076D01*
X90439192Y-68529491D01*
X90441682Y-68616860D01*
X90445056Y-68681078D01*
X90450186Y-68728408D01*
X90457945Y-68765114D01*
X90469205Y-68797459D01*
X90479846Y-68821302D01*
X90525385Y-68893522D01*
X90589998Y-68964900D01*
X90664475Y-69026508D01*
X90732493Y-69066295D01*
X90783473Y-69084810D01*
X90840256Y-69094518D01*
X90914085Y-69097279D01*
X90919532Y-69097264D01*
X90969267Y-69097006D01*
X91042232Y-69096590D01*
X91132244Y-69096052D01*
X91233117Y-69095431D01*
X91338669Y-69094764D01*
X91379144Y-69094503D01*
X91721096Y-69092285D01*
X91721096Y-69091534D01*
X91735803Y-69091534D01*
X91880428Y-69091534D01*
X91942969Y-69090594D01*
X91994041Y-69088066D01*
X92026785Y-69084383D01*
X92034857Y-69081729D01*
X92037636Y-69064835D01*
X92040108Y-69022760D01*
X92042158Y-68959736D01*
X92043667Y-68879997D01*
X92044517Y-68787774D01*
X92044663Y-68728747D01*
X92044663Y-68385570D01*
X91735803Y-68385570D01*
X91735803Y-69091534D01*
X91721096Y-69091534D01*
X91721096Y-68385570D01*
X91400595Y-68385570D01*
X91353434Y-68312076D01*
X91316233Y-68261872D01*
X91273288Y-68214787D01*
X91250649Y-68194527D01*
X91201102Y-68160369D01*
X91142454Y-68127345D01*
X91083498Y-68099678D01*
X91033028Y-68081593D01*
X91005674Y-68076854D01*
X90976328Y-68066751D01*
X90964913Y-68052624D01*
X90954395Y-68039069D01*
X90931826Y-68033754D01*
X90889861Y-68035444D01*
X90872636Y-68037108D01*
X90766867Y-68061906D01*
X90661005Y-68113071D01*
X90559966Y-68187984D01*
X90522427Y-68223581D01*
X90434182Y-68313076D01*
X90382705Y-68313076D01*
X90382705Y-68220598D01*
X90342260Y-68230564D01*
X90308717Y-68240305D01*
X90257877Y-68256724D01*
X90200094Y-68276464D01*
X90193627Y-68278741D01*
X90085440Y-68316952D01*
X90061237Y-68316952D01*
X90060012Y-68303356D01*
X90059278Y-68296938D01*
X90047545Y-68206482D01*
X90045986Y-68196669D01*
X90035250Y-68129094D01*
X90028851Y-68096992D01*
X90055531Y-68096992D01*
X90064723Y-68184936D01*
X90070588Y-68232630D01*
X90076471Y-68267073D01*
X90080305Y-68279271D01*
X90096021Y-68277583D01*
X90133376Y-68267964D01*
X90186213Y-68252110D01*
X90229493Y-68238088D01*
X90372291Y-68190515D01*
X90363222Y-68021286D01*
X90359021Y-67953783D01*
X90354433Y-67897702D01*
X90350032Y-67859187D01*
X90346634Y-67844538D01*
X90329541Y-67846774D01*
X90296929Y-67866272D01*
X90253738Y-67899162D01*
X90204908Y-67941570D01*
X90155378Y-67989626D01*
X90137479Y-68008477D01*
X90055531Y-68096992D01*
X90028851Y-68096992D01*
X90023170Y-68068488D01*
X90012081Y-68028376D01*
X90002761Y-68012471D01*
X89999943Y-68013435D01*
X89983671Y-68043626D01*
X89965848Y-68096905D01*
X89947736Y-68167081D01*
X89930598Y-68247962D01*
X89915694Y-68333355D01*
X89904289Y-68417069D01*
X89897642Y-68492912D01*
X89896582Y-68520519D01*
X89872124Y-68520519D01*
X89874761Y-68487726D01*
X89877470Y-68462785D01*
X89886745Y-68385570D01*
X89819380Y-68385570D01*
X89777163Y-68382613D01*
G37*
D15*
%TO.C,C4*%
X117220911Y-61174795D02*
X117502071Y-61174795D01*
X117220911Y-62194795D02*
X117502071Y-62194795D01*
%TO.C,C1*%
X91945480Y-58441781D02*
X91664320Y-58441781D01*
X91945480Y-57421781D02*
X91664320Y-57421781D01*
%TO.C,C2*%
X91945480Y-61954509D02*
X91664320Y-61954509D01*
X91945480Y-60934509D02*
X91664320Y-60934509D01*
D12*
%TO.C,U02*%
X97161485Y-59217290D02*
X97161485Y-58816290D01*
X97161485Y-60457290D02*
X97161485Y-60858290D01*
X97161485Y-60858290D02*
X97562485Y-60858290D01*
X99203485Y-60457290D02*
X99203485Y-60858290D01*
X99203485Y-59217290D02*
X99203485Y-58816290D01*
X99203485Y-60858290D02*
X98802485Y-60858290D01*
X97161485Y-58816290D02*
X97562485Y-58816290D01*
X99203485Y-58816290D02*
X98802485Y-58816290D01*
D14*
X98857485Y-58537290D02*
G75*
G03*
X98857485Y-58537290I-75000J0D01*
G01*
D15*
%TO.C,J1*%
X105508163Y-48183787D02*
X92748163Y-48183787D01*
X105508163Y-50843787D02*
X92748163Y-50843787D01*
X108108163Y-49513787D02*
X108108163Y-50843787D01*
X92748163Y-48183787D02*
X92748163Y-50843787D01*
X108108163Y-50843787D02*
X106778163Y-50843787D01*
X105508163Y-48183787D02*
X105508163Y-50843787D01*
%TO.C,C3*%
X117220911Y-56953011D02*
X117502071Y-56953011D01*
X117220911Y-57973011D02*
X117502071Y-57973011D01*
%TO.C,R1*%
X110035621Y-55264805D02*
X109561105Y-55264805D01*
X110035621Y-54219805D02*
X109561105Y-54219805D01*
%TO.C,R2*%
X97465074Y-54219805D02*
X97939590Y-54219805D01*
X97465074Y-55264805D02*
X97939590Y-55264805D01*
D12*
%TO.C,U01*%
X107518956Y-60766169D02*
X108073956Y-60766169D01*
X107518956Y-60711169D02*
X107518956Y-60766169D01*
X109963956Y-60766169D02*
X110518956Y-60766169D01*
X110518956Y-58266169D02*
X110518956Y-58321169D01*
X107518956Y-58266169D02*
X107518956Y-58321169D01*
X107518956Y-58266169D02*
X108073956Y-58266169D01*
X109963956Y-58266169D02*
X110518956Y-58266169D01*
X110518956Y-60711169D02*
X110518956Y-60766169D01*
D14*
X107093956Y-58616169D02*
G75*
G03*
X107093956Y-58616169I-75000J0D01*
G01*
%TD*%
M02*
